ISO-10303-21;
HEADER;
/* Generated by software containing ST-Developer
 * from STEP Tools, Inc. (www.steptools.com) 
 */

FILE_DESCRIPTION(
/* description */ (''),
/* implementation_level */ '2;1');

FILE_NAME(
/* name */ 'Distribution Board.step',
/* time_stamp */ '2026-07-19T11:27:13+05:30',
/* author */ (''),
/* organization */ (''),
/* preprocessor_version */ 'ST-DEVELOPER v20.1',
/* originating_system */ 'Autodesk Translation Framework v15.8.0.0',
/* authorisation */ '');

FILE_SCHEMA (('AUTOMOTIVE_DESIGN { 1 0 10303 214 3 1 1 }'));
ENDSEC;

DATA;
#10=MECHANICAL_DESIGN_GEOMETRIC_PRESENTATION_REPRESENTATION('',(#13),#1484);
#11=SHAPE_REPRESENTATION_RELATIONSHIP('SRR','None',#1491,#12);
#12=ADVANCED_BREP_SHAPE_REPRESENTATION('',(#14),#1483);
#13=STYLED_ITEM('',(#1501),#14);
#14=MANIFOLD_SOLID_BREP('Body1',#876);
#15=FACE_BOUND('',#101,.T.);
#16=FACE_BOUND('',#102,.T.);
#17=FACE_BOUND('',#103,.T.);
#18=FACE_BOUND('',#105,.T.);
#19=FACE_BOUND('',#106,.T.);
#20=FACE_BOUND('',#107,.T.);
#21=FACE_BOUND('',#109,.T.);
#22=FACE_BOUND('',#110,.T.);
#23=FACE_BOUND('',#111,.T.);
#24=FACE_BOUND('',#112,.T.);
#25=FACE_BOUND('',#145,.T.);
#26=FACE_BOUND('',#152,.T.);
#27=FACE_BOUND('',#153,.T.);
#28=FACE_BOUND('',#154,.T.);
#29=FACE_BOUND('',#155,.T.);
#30=PLANE('',#899);
#31=PLANE('',#905);
#32=PLANE('',#911);
#33=PLANE('',#920);
#34=PLANE('',#923);
#35=PLANE('',#926);
#36=PLANE('',#927);
#37=PLANE('',#928);
#38=PLANE('',#931);
#39=PLANE('',#932);
#40=PLANE('',#935);
#41=PLANE('',#938);
#42=PLANE('',#941);
#43=PLANE('',#942);
#44=PLANE('',#945);
#45=PLANE('',#946);
#46=PLANE('',#949);
#47=PLANE('',#952);
#48=PLANE('',#963);
#49=PLANE('',#966);
#50=PLANE('',#969);
#51=PLANE('',#972);
#52=PLANE('',#975);
#53=FACE_OUTER_BOUND('',#97,.T.);
#54=FACE_OUTER_BOUND('',#98,.T.);
#55=FACE_OUTER_BOUND('',#99,.T.);
#56=FACE_OUTER_BOUND('',#100,.T.);
#57=FACE_OUTER_BOUND('',#104,.T.);
#58=FACE_OUTER_BOUND('',#108,.T.);
#59=FACE_OUTER_BOUND('',#113,.T.);
#60=FACE_OUTER_BOUND('',#114,.T.);
#61=FACE_OUTER_BOUND('',#115,.T.);
#62=FACE_OUTER_BOUND('',#116,.T.);
#63=FACE_OUTER_BOUND('',#117,.T.);
#64=FACE_OUTER_BOUND('',#118,.T.);
#65=FACE_OUTER_BOUND('',#119,.T.);
#66=FACE_OUTER_BOUND('',#120,.T.);
#67=FACE_OUTER_BOUND('',#121,.T.);
#68=FACE_OUTER_BOUND('',#122,.T.);
#69=FACE_OUTER_BOUND('',#123,.T.);
#70=FACE_OUTER_BOUND('',#124,.T.);
#71=FACE_OUTER_BOUND('',#125,.T.);
#72=FACE_OUTER_BOUND('',#126,.T.);
#73=FACE_OUTER_BOUND('',#127,.T.);
#74=FACE_OUTER_BOUND('',#128,.T.);
#75=FACE_OUTER_BOUND('',#129,.T.);
#76=FACE_OUTER_BOUND('',#130,.T.);
#77=FACE_OUTER_BOUND('',#131,.T.);
#78=FACE_OUTER_BOUND('',#132,.T.);
#79=FACE_OUTER_BOUND('',#133,.T.);
#80=FACE_OUTER_BOUND('',#134,.T.);
#81=FACE_OUTER_BOUND('',#135,.T.);
#82=FACE_OUTER_BOUND('',#136,.T.);
#83=FACE_OUTER_BOUND('',#137,.T.);
#84=FACE_OUTER_BOUND('',#138,.T.);
#85=FACE_OUTER_BOUND('',#139,.T.);
#86=FACE_OUTER_BOUND('',#140,.T.);
#87=FACE_OUTER_BOUND('',#141,.T.);
#88=FACE_OUTER_BOUND('',#142,.T.);
#89=FACE_OUTER_BOUND('',#143,.T.);
#90=FACE_OUTER_BOUND('',#144,.T.);
#91=FACE_OUTER_BOUND('',#146,.T.);
#92=FACE_OUTER_BOUND('',#147,.T.);
#93=FACE_OUTER_BOUND('',#148,.T.);
#94=FACE_OUTER_BOUND('',#149,.T.);
#95=FACE_OUTER_BOUND('',#150,.T.);
#96=FACE_OUTER_BOUND('',#151,.T.);
#97=EDGE_LOOP('',(#565,#566,#567,#568));
#98=EDGE_LOOP('',(#569,#570,#571,#572));
#99=EDGE_LOOP('',(#573,#574,#575,#576));
#100=EDGE_LOOP('',(#577,#578,#579,#580,#581,#582,#583,#584,#585,#586,#587,
#588,#589));
#101=EDGE_LOOP('',(#590));
#102=EDGE_LOOP('',(#591));
#103=EDGE_LOOP('',(#592));
#104=EDGE_LOOP('',(#593,#594,#595,#596,#597,#598,#599,#600,#601,#602,#603,
#604,#605));
#105=EDGE_LOOP('',(#606));
#106=EDGE_LOOP('',(#607));
#107=EDGE_LOOP('',(#608));
#108=EDGE_LOOP('',(#609,#610,#611,#612,#613,#614,#615,#616,#617,#618,#619,
#620));
#109=EDGE_LOOP('',(#621));
#110=EDGE_LOOP('',(#622));
#111=EDGE_LOOP('',(#623));
#112=EDGE_LOOP('',(#624));
#113=EDGE_LOOP('',(#625,#626,#627,#628));
#114=EDGE_LOOP('',(#629,#630,#631,#632));
#115=EDGE_LOOP('',(#633,#634,#635,#636));
#116=EDGE_LOOP('',(#637,#638,#639,#640));
#117=EDGE_LOOP('',(#641,#642,#643,#644));
#118=EDGE_LOOP('',(#645,#646,#647,#648));
#119=EDGE_LOOP('',(#649,#650,#651,#652));
#120=EDGE_LOOP('',(#653,#654,#655,#656));
#121=EDGE_LOOP('',(#657,#658,#659,#660));
#122=EDGE_LOOP('',(#661,#662,#663,#664));
#123=EDGE_LOOP('',(#665,#666,#667,#668));
#124=EDGE_LOOP('',(#669,#670,#671,#672));
#125=EDGE_LOOP('',(#673,#674,#675,#676));
#126=EDGE_LOOP('',(#677,#678,#679,#680));
#127=EDGE_LOOP('',(#681,#682,#683,#684));
#128=EDGE_LOOP('',(#685,#686,#687,#688));
#129=EDGE_LOOP('',(#689,#690,#691,#692));
#130=EDGE_LOOP('',(#693,#694,#695,#696));
#131=EDGE_LOOP('',(#697,#698,#699,#700));
#132=EDGE_LOOP('',(#701,#702,#703,#704));
#133=EDGE_LOOP('',(#705,#706,#707,#708));
#134=EDGE_LOOP('',(#709,#710,#711,#712));
#135=EDGE_LOOP('',(#713,#714,#715,#716));
#136=EDGE_LOOP('',(#717,#718,#719,#720));
#137=EDGE_LOOP('',(#721,#722,#723,#724));
#138=EDGE_LOOP('',(#725,#726,#727,#728));
#139=EDGE_LOOP('',(#729,#730,#731,#732));
#140=EDGE_LOOP('',(#733,#734,#735,#736));
#141=EDGE_LOOP('',(#737,#738,#739,#740));
#142=EDGE_LOOP('',(#741,#742,#743,#744));
#143=EDGE_LOOP('',(#745,#746,#747,#748));
#144=EDGE_LOOP('',(#749,#750,#751,#752,#753,#754,#755,#756,#757,#758,#759,
#760,#761,#762,#763,#764,#765));
#145=EDGE_LOOP('',(#766,#767,#768,#769,#770,#771,#772,#773,#774,#775,#776,
#777,#778));
#146=EDGE_LOOP('',(#779,#780,#781,#782));
#147=EDGE_LOOP('',(#783,#784,#785,#786));
#148=EDGE_LOOP('',(#787,#788,#789,#790));
#149=EDGE_LOOP('',(#791,#792,#793,#794));
#150=EDGE_LOOP('',(#795,#796,#797,#798));
#151=EDGE_LOOP('',(#799,#800,#801,#802,#803,#804,#805,#806));
#152=EDGE_LOOP('',(#807));
#153=EDGE_LOOP('',(#808));
#154=EDGE_LOOP('',(#809));
#155=EDGE_LOOP('',(#810));
#156=LINE('',#1236,#237);
#157=LINE('',#1242,#238);
#158=LINE('',#1248,#239);
#159=LINE('',#1253,#240);
#160=LINE('',#1257,#241);
#161=LINE('',#1261,#242);
#162=LINE('',#1263,#243);
#163=LINE('',#1267,#244);
#164=LINE('',#1269,#245);
#165=LINE('',#1271,#246);
#166=LINE('',#1275,#247);
#167=LINE('',#1280,#248);
#168=LINE('',#1284,#249);
#169=LINE('',#1286,#250);
#170=LINE('',#1288,#251);
#171=LINE('',#1292,#252);
#172=LINE('',#1294,#253);
#173=LINE('',#1298,#254);
#174=LINE('',#1302,#255);
#175=LINE('',#1306,#256);
#176=LINE('',#1308,#257);
#177=LINE('',#1310,#258);
#178=LINE('',#1314,#259);
#179=LINE('',#1318,#260);
#180=LINE('',#1322,#261);
#181=LINE('',#1325,#262);
#182=LINE('',#1337,#263);
#183=LINE('',#1338,#264);
#184=LINE('',#1339,#265);
#185=LINE('',#1343,#266);
#186=LINE('',#1346,#267);
#187=LINE('',#1347,#268);
#188=LINE('',#1351,#269);
#189=LINE('',#1354,#270);
#190=LINE('',#1355,#271);
#191=LINE('',#1358,#272);
#192=LINE('',#1359,#273);
#193=LINE('',#1362,#274);
#194=LINE('',#1363,#275);
#195=LINE('',#1367,#276);
#196=LINE('',#1370,#277);
#197=LINE('',#1371,#278);
#198=LINE('',#1374,#279);
#199=LINE('',#1375,#280);
#200=LINE('',#1379,#281);
#201=LINE('',#1382,#282);
#202=LINE('',#1383,#283);
#203=LINE('',#1389,#284);
#204=LINE('',#1390,#285);
#205=LINE('',#1391,#286);
#206=LINE('',#1395,#287);
#207=LINE('',#1398,#288);
#208=LINE('',#1399,#289);
#209=LINE('',#1402,#290);
#210=LINE('',#1403,#291);
#211=LINE('',#1407,#292);
#212=LINE('',#1409,#293);
#213=LINE('',#1412,#294);
#214=LINE('',#1413,#295);
#215=LINE('',#1417,#296);
#216=LINE('',#1420,#297);
#217=LINE('',#1421,#298);
#218=LINE('',#1425,#299);
#219=LINE('',#1428,#300);
#220=LINE('',#1429,#301);
#221=LINE('',#1434,#302);
#222=LINE('',#1438,#303);
#223=LINE('',#1442,#304);
#224=LINE('',#1446,#305);
#225=LINE('',#1451,#306);
#226=LINE('',#1452,#307);
#227=LINE('',#1453,#308);
#228=LINE('',#1457,#309);
#229=LINE('',#1460,#310);
#230=LINE('',#1461,#311);
#231=LINE('',#1465,#312);
#232=LINE('',#1468,#313);
#233=LINE('',#1469,#314);
#234=LINE('',#1473,#315);
#235=LINE('',#1476,#316);
#236=LINE('',#1477,#317);
#237=VECTOR('',#982,0.25);
#238=VECTOR('',#989,0.25);
#239=VECTOR('',#996,0.25);
#240=VECTOR('',#1001,10.);
#241=VECTOR('',#1004,10.);
#242=VECTOR('',#1007,10.);
#243=VECTOR('',#1008,10.);
#244=VECTOR('',#1011,10.);
#245=VECTOR('',#1012,10.);
#246=VECTOR('',#1013,10.);
#247=VECTOR('',#1016,10.);
#248=VECTOR('',#1021,10.);
#249=VECTOR('',#1024,10.);
#250=VECTOR('',#1025,10.);
#251=VECTOR('',#1026,10.);
#252=VECTOR('',#1029,10.);
#253=VECTOR('',#1030,10.);
#254=VECTOR('',#1033,10.);
#255=VECTOR('',#1036,10.);
#256=VECTOR('',#1041,10.);
#257=VECTOR('',#1042,10.);
#258=VECTOR('',#1043,10.);
#259=VECTOR('',#1046,10.);
#260=VECTOR('',#1049,10.);
#261=VECTOR('',#1052,10.);
#262=VECTOR('',#1055,10.);
#263=VECTOR('',#1066,10.);
#264=VECTOR('',#1067,10.);
#265=VECTOR('',#1068,10.);
#266=VECTOR('',#1073,10.);
#267=VECTOR('',#1076,10.);
#268=VECTOR('',#1077,10.);
#269=VECTOR('',#1082,10.);
#270=VECTOR('',#1085,10.);
#271=VECTOR('',#1086,10.);
#272=VECTOR('',#1089,10.);
#273=VECTOR('',#1090,10.);
#274=VECTOR('',#1093,10.);
#275=VECTOR('',#1094,10.);
#276=VECTOR('',#1099,10.);
#277=VECTOR('',#1102,10.);
#278=VECTOR('',#1103,10.);
#279=VECTOR('',#1106,10.);
#280=VECTOR('',#1107,10.);
#281=VECTOR('',#1112,10.);
#282=VECTOR('',#1115,10.);
#283=VECTOR('',#1116,10.);
#284=VECTOR('',#1123,10.);
#285=VECTOR('',#1124,10.);
#286=VECTOR('',#1125,10.);
#287=VECTOR('',#1130,10.);
#288=VECTOR('',#1133,10.);
#289=VECTOR('',#1134,10.);
#290=VECTOR('',#1137,10.);
#291=VECTOR('',#1138,10.);
#292=VECTOR('',#1143,10.);
#293=VECTOR('',#1146,10.);
#294=VECTOR('',#1149,10.);
#295=VECTOR('',#1150,10.);
#296=VECTOR('',#1155,10.);
#297=VECTOR('',#1158,10.);
#298=VECTOR('',#1159,10.);
#299=VECTOR('',#1164,10.);
#300=VECTOR('',#1167,10.);
#301=VECTOR('',#1168,10.);
#302=VECTOR('',#1175,1.5);
#303=VECTOR('',#1180,1.5);
#304=VECTOR('',#1185,1.5);
#305=VECTOR('',#1190,1.5);
#306=VECTOR('',#1195,10.);
#307=VECTOR('',#1196,10.);
#308=VECTOR('',#1197,10.);
#309=VECTOR('',#1202,10.);
#310=VECTOR('',#1205,10.);
#311=VECTOR('',#1206,10.);
#312=VECTOR('',#1211,10.);
#313=VECTOR('',#1214,10.);
#314=VECTOR('',#1215,10.);
#315=VECTOR('',#1220,10.);
#316=VECTOR('',#1223,10.);
#317=VECTOR('',#1224,10.);
#318=CIRCLE('',#891,0.25);
#319=CIRCLE('',#892,0.25);
#320=CIRCLE('',#894,0.25);
#321=CIRCLE('',#895,0.25);
#322=CIRCLE('',#897,0.25);
#323=CIRCLE('',#898,0.25);
#324=CIRCLE('',#900,0.1);
#325=CIRCLE('',#901,0.100000000000002);
#326=CIRCLE('',#902,0.100000000000002);
#327=CIRCLE('',#903,0.1);
#328=CIRCLE('',#904,0.299999999999998);
#329=CIRCLE('',#906,0.2);
#330=CIRCLE('',#907,0.200000000000002);
#331=CIRCLE('',#908,0.200000000000002);
#332=CIRCLE('',#909,0.2);
#333=CIRCLE('',#910,0.199999999999998);
#334=CIRCLE('',#912,2.);
#335=CIRCLE('',#913,2.);
#336=CIRCLE('',#914,2.);
#337=CIRCLE('',#915,2.);
#338=CIRCLE('',#916,1.5);
#339=CIRCLE('',#917,1.5);
#340=CIRCLE('',#918,1.5);
#341=CIRCLE('',#919,1.5);
#342=CIRCLE('',#922,0.299999999999998);
#343=CIRCLE('',#925,0.1);
#344=CIRCLE('',#930,0.100000000000002);
#345=CIRCLE('',#934,0.100000000000002);
#346=CIRCLE('',#937,0.1);
#347=CIRCLE('',#940,0.200000000000002);
#348=CIRCLE('',#944,0.200000000000002);
#349=CIRCLE('',#948,0.2);
#350=CIRCLE('',#951,0.199999999999998);
#351=CIRCLE('',#954,0.2);
#352=CIRCLE('',#956,1.5);
#353=CIRCLE('',#958,1.5);
#354=CIRCLE('',#960,1.5);
#355=CIRCLE('',#962,1.5);
#356=CIRCLE('',#965,2.);
#357=CIRCLE('',#968,2.);
#358=CIRCLE('',#971,2.);
#359=CIRCLE('',#974,2.);
#360=VERTEX_POINT('',#1233);
#361=VERTEX_POINT('',#1235);
#362=VERTEX_POINT('',#1239);
#363=VERTEX_POINT('',#1241);
#364=VERTEX_POINT('',#1245);
#365=VERTEX_POINT('',#1247);
#366=VERTEX_POINT('',#1251);
#367=VERTEX_POINT('',#1252);
#368=VERTEX_POINT('',#1254);
#369=VERTEX_POINT('',#1256);
#370=VERTEX_POINT('',#1258);
#371=VERTEX_POINT('',#1260);
#372=VERTEX_POINT('',#1262);
#373=VERTEX_POINT('',#1264);
#374=VERTEX_POINT('',#1266);
#375=VERTEX_POINT('',#1268);
#376=VERTEX_POINT('',#1270);
#377=VERTEX_POINT('',#1272);
#378=VERTEX_POINT('',#1274);
#379=VERTEX_POINT('',#1278);
#380=VERTEX_POINT('',#1279);
#381=VERTEX_POINT('',#1281);
#382=VERTEX_POINT('',#1283);
#383=VERTEX_POINT('',#1285);
#384=VERTEX_POINT('',#1287);
#385=VERTEX_POINT('',#1289);
#386=VERTEX_POINT('',#1291);
#387=VERTEX_POINT('',#1293);
#388=VERTEX_POINT('',#1295);
#389=VERTEX_POINT('',#1297);
#390=VERTEX_POINT('',#1299);
#391=VERTEX_POINT('',#1301);
#392=VERTEX_POINT('',#1305);
#393=VERTEX_POINT('',#1307);
#394=VERTEX_POINT('',#1309);
#395=VERTEX_POINT('',#1311);
#396=VERTEX_POINT('',#1313);
#397=VERTEX_POINT('',#1315);
#398=VERTEX_POINT('',#1317);
#399=VERTEX_POINT('',#1319);
#400=VERTEX_POINT('',#1321);
#401=VERTEX_POINT('',#1323);
#402=VERTEX_POINT('',#1326);
#403=VERTEX_POINT('',#1328);
#404=VERTEX_POINT('',#1330);
#405=VERTEX_POINT('',#1332);
#406=VERTEX_POINT('',#1335);
#407=VERTEX_POINT('',#1336);
#408=VERTEX_POINT('',#1341);
#409=VERTEX_POINT('',#1345);
#410=VERTEX_POINT('',#1349);
#411=VERTEX_POINT('',#1353);
#412=VERTEX_POINT('',#1357);
#413=VERTEX_POINT('',#1361);
#414=VERTEX_POINT('',#1365);
#415=VERTEX_POINT('',#1369);
#416=VERTEX_POINT('',#1373);
#417=VERTEX_POINT('',#1377);
#418=VERTEX_POINT('',#1381);
#419=VERTEX_POINT('',#1387);
#420=VERTEX_POINT('',#1388);
#421=VERTEX_POINT('',#1393);
#422=VERTEX_POINT('',#1397);
#423=VERTEX_POINT('',#1401);
#424=VERTEX_POINT('',#1405);
#425=VERTEX_POINT('',#1411);
#426=VERTEX_POINT('',#1415);
#427=VERTEX_POINT('',#1419);
#428=VERTEX_POINT('',#1423);
#429=VERTEX_POINT('',#1427);
#430=VERTEX_POINT('',#1433);
#431=VERTEX_POINT('',#1437);
#432=VERTEX_POINT('',#1441);
#433=VERTEX_POINT('',#1445);
#434=VERTEX_POINT('',#1449);
#435=VERTEX_POINT('',#1450);
#436=VERTEX_POINT('',#1455);
#437=VERTEX_POINT('',#1459);
#438=VERTEX_POINT('',#1463);
#439=VERTEX_POINT('',#1467);
#440=VERTEX_POINT('',#1471);
#441=VERTEX_POINT('',#1475);
#442=EDGE_CURVE('',#360,#360,#318,.T.);
#443=EDGE_CURVE('',#360,#361,#156,.T.);
#444=EDGE_CURVE('',#361,#361,#319,.T.);
#445=EDGE_CURVE('',#362,#362,#320,.T.);
#446=EDGE_CURVE('',#362,#363,#157,.T.);
#447=EDGE_CURVE('',#363,#363,#321,.T.);
#448=EDGE_CURVE('',#364,#364,#322,.T.);
#449=EDGE_CURVE('',#364,#365,#158,.T.);
#450=EDGE_CURVE('',#365,#365,#323,.T.);
#451=EDGE_CURVE('',#366,#367,#159,.T.);
#452=EDGE_CURVE('',#367,#368,#324,.T.);
#453=EDGE_CURVE('',#368,#369,#160,.T.);
#454=EDGE_CURVE('',#369,#370,#325,.T.);
#455=EDGE_CURVE('',#370,#371,#161,.T.);
#456=EDGE_CURVE('',#371,#372,#162,.T.);
#457=EDGE_CURVE('',#372,#373,#326,.T.);
#458=EDGE_CURVE('',#373,#374,#163,.T.);
#459=EDGE_CURVE('',#374,#375,#164,.T.);
#460=EDGE_CURVE('',#375,#376,#165,.T.);
#461=EDGE_CURVE('',#376,#377,#327,.T.);
#462=EDGE_CURVE('',#377,#378,#166,.T.);
#463=EDGE_CURVE('',#378,#366,#328,.T.);
#464=EDGE_CURVE('',#379,#380,#167,.T.);
#465=EDGE_CURVE('',#380,#381,#329,.T.);
#466=EDGE_CURVE('',#381,#382,#168,.T.);
#467=EDGE_CURVE('',#383,#382,#169,.T.);
#468=EDGE_CURVE('',#383,#384,#170,.T.);
#469=EDGE_CURVE('',#384,#385,#330,.T.);
#470=EDGE_CURVE('',#385,#386,#171,.T.);
#471=EDGE_CURVE('',#386,#387,#172,.T.);
#472=EDGE_CURVE('',#387,#388,#331,.T.);
#473=EDGE_CURVE('',#388,#389,#173,.T.);
#474=EDGE_CURVE('',#389,#390,#332,.T.);
#475=EDGE_CURVE('',#390,#391,#174,.T.);
#476=EDGE_CURVE('',#391,#379,#333,.T.);
#477=EDGE_CURVE('',#392,#383,#175,.T.);
#478=EDGE_CURVE('',#382,#393,#176,.T.);
#479=EDGE_CURVE('',#393,#394,#177,.T.);
#480=EDGE_CURVE('',#394,#395,#334,.T.);
#481=EDGE_CURVE('',#395,#396,#178,.T.);
#482=EDGE_CURVE('',#396,#397,#335,.T.);
#483=EDGE_CURVE('',#397,#398,#179,.T.);
#484=EDGE_CURVE('',#398,#399,#336,.T.);
#485=EDGE_CURVE('',#399,#400,#180,.T.);
#486=EDGE_CURVE('',#400,#401,#337,.T.);
#487=EDGE_CURVE('',#401,#392,#181,.T.);
#488=EDGE_CURVE('',#402,#402,#338,.T.);
#489=EDGE_CURVE('',#403,#403,#339,.T.);
#490=EDGE_CURVE('',#404,#404,#340,.T.);
#491=EDGE_CURVE('',#405,#405,#341,.T.);
#492=EDGE_CURVE('',#406,#407,#182,.T.);
#493=EDGE_CURVE('',#406,#367,#183,.T.);
#494=EDGE_CURVE('',#407,#366,#184,.T.);
#495=EDGE_CURVE('',#407,#408,#342,.T.);
#496=EDGE_CURVE('',#408,#378,#185,.T.);
#497=EDGE_CURVE('',#408,#409,#186,.T.);
#498=EDGE_CURVE('',#409,#377,#187,.T.);
#499=EDGE_CURVE('',#409,#410,#343,.T.);
#500=EDGE_CURVE('',#410,#376,#188,.T.);
#501=EDGE_CURVE('',#410,#411,#189,.T.);
#502=EDGE_CURVE('',#411,#375,#190,.T.);
#503=EDGE_CURVE('',#411,#412,#191,.T.);
#504=EDGE_CURVE('',#412,#374,#192,.T.);
#505=EDGE_CURVE('',#412,#413,#193,.T.);
#506=EDGE_CURVE('',#413,#373,#194,.T.);
#507=EDGE_CURVE('',#413,#414,#344,.T.);
#508=EDGE_CURVE('',#414,#372,#195,.T.);
#509=EDGE_CURVE('',#414,#415,#196,.T.);
#510=EDGE_CURVE('',#415,#371,#197,.T.);
#511=EDGE_CURVE('',#415,#416,#198,.T.);
#512=EDGE_CURVE('',#416,#370,#199,.T.);
#513=EDGE_CURVE('',#416,#417,#345,.T.);
#514=EDGE_CURVE('',#417,#369,#200,.T.);
#515=EDGE_CURVE('',#417,#418,#201,.T.);
#516=EDGE_CURVE('',#418,#368,#202,.T.);
#517=EDGE_CURVE('',#418,#406,#346,.T.);
#518=EDGE_CURVE('',#419,#420,#203,.T.);
#519=EDGE_CURVE('',#419,#389,#204,.T.);
#520=EDGE_CURVE('',#420,#388,#205,.T.);
#521=EDGE_CURVE('',#420,#421,#347,.T.);
#522=EDGE_CURVE('',#421,#387,#206,.T.);
#523=EDGE_CURVE('',#421,#422,#207,.T.);
#524=EDGE_CURVE('',#422,#386,#208,.T.);
#525=EDGE_CURVE('',#422,#423,#209,.T.);
#526=EDGE_CURVE('',#423,#385,#210,.T.);
#527=EDGE_CURVE('',#423,#424,#348,.T.);
#528=EDGE_CURVE('',#424,#384,#211,.T.);
#529=EDGE_CURVE('',#424,#392,#212,.T.);
#530=EDGE_CURVE('',#393,#425,#213,.T.);
#531=EDGE_CURVE('',#425,#381,#214,.T.);
#532=EDGE_CURVE('',#425,#426,#349,.T.);
#533=EDGE_CURVE('',#426,#380,#215,.T.);
#534=EDGE_CURVE('',#427,#426,#216,.T.);
#535=EDGE_CURVE('',#427,#379,#217,.T.);
#536=EDGE_CURVE('',#428,#427,#350,.T.);
#537=EDGE_CURVE('',#428,#391,#218,.T.);
#538=EDGE_CURVE('',#429,#428,#219,.T.);
#539=EDGE_CURVE('',#429,#390,#220,.T.);
#540=EDGE_CURVE('',#429,#419,#351,.T.);
#541=EDGE_CURVE('',#402,#430,#221,.T.);
#542=EDGE_CURVE('',#430,#430,#352,.T.);
#543=EDGE_CURVE('',#403,#431,#222,.T.);
#544=EDGE_CURVE('',#431,#431,#353,.T.);
#545=EDGE_CURVE('',#404,#432,#223,.T.);
#546=EDGE_CURVE('',#432,#432,#354,.T.);
#547=EDGE_CURVE('',#405,#433,#224,.T.);
#548=EDGE_CURVE('',#433,#433,#355,.T.);
#549=EDGE_CURVE('',#434,#435,#225,.T.);
#550=EDGE_CURVE('',#434,#396,#226,.T.);
#551=EDGE_CURVE('',#435,#395,#227,.T.);
#552=EDGE_CURVE('',#436,#435,#356,.T.);
#553=EDGE_CURVE('',#436,#394,#228,.T.);
#554=EDGE_CURVE('',#436,#437,#229,.T.);
#555=EDGE_CURVE('',#437,#401,#230,.T.);
#556=EDGE_CURVE('',#438,#437,#357,.T.);
#557=EDGE_CURVE('',#438,#400,#231,.T.);
#558=EDGE_CURVE('',#438,#439,#232,.T.);
#559=EDGE_CURVE('',#439,#399,#233,.T.);
#560=EDGE_CURVE('',#440,#439,#358,.T.);
#561=EDGE_CURVE('',#440,#398,#234,.T.);
#562=EDGE_CURVE('',#440,#441,#235,.T.);
#563=EDGE_CURVE('',#441,#397,#236,.T.);
#564=EDGE_CURVE('',#434,#441,#359,.T.);
#565=ORIENTED_EDGE('',*,*,#442,.F.);
#566=ORIENTED_EDGE('',*,*,#443,.T.);
#567=ORIENTED_EDGE('',*,*,#444,.F.);
#568=ORIENTED_EDGE('',*,*,#443,.F.);
#569=ORIENTED_EDGE('',*,*,#445,.F.);
#570=ORIENTED_EDGE('',*,*,#446,.T.);
#571=ORIENTED_EDGE('',*,*,#447,.F.);
#572=ORIENTED_EDGE('',*,*,#446,.F.);
#573=ORIENTED_EDGE('',*,*,#448,.F.);
#574=ORIENTED_EDGE('',*,*,#449,.T.);
#575=ORIENTED_EDGE('',*,*,#450,.F.);
#576=ORIENTED_EDGE('',*,*,#449,.F.);
#577=ORIENTED_EDGE('',*,*,#451,.T.);
#578=ORIENTED_EDGE('',*,*,#452,.T.);
#579=ORIENTED_EDGE('',*,*,#453,.T.);
#580=ORIENTED_EDGE('',*,*,#454,.T.);
#581=ORIENTED_EDGE('',*,*,#455,.T.);
#582=ORIENTED_EDGE('',*,*,#456,.T.);
#583=ORIENTED_EDGE('',*,*,#457,.T.);
#584=ORIENTED_EDGE('',*,*,#458,.T.);
#585=ORIENTED_EDGE('',*,*,#459,.T.);
#586=ORIENTED_EDGE('',*,*,#460,.T.);
#587=ORIENTED_EDGE('',*,*,#461,.T.);
#588=ORIENTED_EDGE('',*,*,#462,.T.);
#589=ORIENTED_EDGE('',*,*,#463,.T.);
#590=ORIENTED_EDGE('',*,*,#444,.T.);
#591=ORIENTED_EDGE('',*,*,#447,.T.);
#592=ORIENTED_EDGE('',*,*,#450,.T.);
#593=ORIENTED_EDGE('',*,*,#464,.T.);
#594=ORIENTED_EDGE('',*,*,#465,.T.);
#595=ORIENTED_EDGE('',*,*,#466,.T.);
#596=ORIENTED_EDGE('',*,*,#467,.F.);
#597=ORIENTED_EDGE('',*,*,#468,.T.);
#598=ORIENTED_EDGE('',*,*,#469,.T.);
#599=ORIENTED_EDGE('',*,*,#470,.T.);
#600=ORIENTED_EDGE('',*,*,#471,.T.);
#601=ORIENTED_EDGE('',*,*,#472,.T.);
#602=ORIENTED_EDGE('',*,*,#473,.T.);
#603=ORIENTED_EDGE('',*,*,#474,.T.);
#604=ORIENTED_EDGE('',*,*,#475,.T.);
#605=ORIENTED_EDGE('',*,*,#476,.T.);
#606=ORIENTED_EDGE('',*,*,#442,.T.);
#607=ORIENTED_EDGE('',*,*,#445,.T.);
#608=ORIENTED_EDGE('',*,*,#448,.T.);
#609=ORIENTED_EDGE('',*,*,#477,.T.);
#610=ORIENTED_EDGE('',*,*,#467,.T.);
#611=ORIENTED_EDGE('',*,*,#478,.T.);
#612=ORIENTED_EDGE('',*,*,#479,.T.);
#613=ORIENTED_EDGE('',*,*,#480,.T.);
#614=ORIENTED_EDGE('',*,*,#481,.T.);
#615=ORIENTED_EDGE('',*,*,#482,.T.);
#616=ORIENTED_EDGE('',*,*,#483,.T.);
#617=ORIENTED_EDGE('',*,*,#484,.T.);
#618=ORIENTED_EDGE('',*,*,#485,.T.);
#619=ORIENTED_EDGE('',*,*,#486,.T.);
#620=ORIENTED_EDGE('',*,*,#487,.T.);
#621=ORIENTED_EDGE('',*,*,#488,.T.);
#622=ORIENTED_EDGE('',*,*,#489,.T.);
#623=ORIENTED_EDGE('',*,*,#490,.T.);
#624=ORIENTED_EDGE('',*,*,#491,.T.);
#625=ORIENTED_EDGE('',*,*,#492,.F.);
#626=ORIENTED_EDGE('',*,*,#493,.T.);
#627=ORIENTED_EDGE('',*,*,#451,.F.);
#628=ORIENTED_EDGE('',*,*,#494,.F.);
#629=ORIENTED_EDGE('',*,*,#495,.F.);
#630=ORIENTED_EDGE('',*,*,#494,.T.);
#631=ORIENTED_EDGE('',*,*,#463,.F.);
#632=ORIENTED_EDGE('',*,*,#496,.F.);
#633=ORIENTED_EDGE('',*,*,#497,.F.);
#634=ORIENTED_EDGE('',*,*,#496,.T.);
#635=ORIENTED_EDGE('',*,*,#462,.F.);
#636=ORIENTED_EDGE('',*,*,#498,.F.);
#637=ORIENTED_EDGE('',*,*,#499,.F.);
#638=ORIENTED_EDGE('',*,*,#498,.T.);
#639=ORIENTED_EDGE('',*,*,#461,.F.);
#640=ORIENTED_EDGE('',*,*,#500,.F.);
#641=ORIENTED_EDGE('',*,*,#501,.F.);
#642=ORIENTED_EDGE('',*,*,#500,.T.);
#643=ORIENTED_EDGE('',*,*,#460,.F.);
#644=ORIENTED_EDGE('',*,*,#502,.F.);
#645=ORIENTED_EDGE('',*,*,#503,.F.);
#646=ORIENTED_EDGE('',*,*,#502,.T.);
#647=ORIENTED_EDGE('',*,*,#459,.F.);
#648=ORIENTED_EDGE('',*,*,#504,.F.);
#649=ORIENTED_EDGE('',*,*,#505,.F.);
#650=ORIENTED_EDGE('',*,*,#504,.T.);
#651=ORIENTED_EDGE('',*,*,#458,.F.);
#652=ORIENTED_EDGE('',*,*,#506,.F.);
#653=ORIENTED_EDGE('',*,*,#507,.F.);
#654=ORIENTED_EDGE('',*,*,#506,.T.);
#655=ORIENTED_EDGE('',*,*,#457,.F.);
#656=ORIENTED_EDGE('',*,*,#508,.F.);
#657=ORIENTED_EDGE('',*,*,#509,.F.);
#658=ORIENTED_EDGE('',*,*,#508,.T.);
#659=ORIENTED_EDGE('',*,*,#456,.F.);
#660=ORIENTED_EDGE('',*,*,#510,.F.);
#661=ORIENTED_EDGE('',*,*,#511,.F.);
#662=ORIENTED_EDGE('',*,*,#510,.T.);
#663=ORIENTED_EDGE('',*,*,#455,.F.);
#664=ORIENTED_EDGE('',*,*,#512,.F.);
#665=ORIENTED_EDGE('',*,*,#513,.F.);
#666=ORIENTED_EDGE('',*,*,#512,.T.);
#667=ORIENTED_EDGE('',*,*,#454,.F.);
#668=ORIENTED_EDGE('',*,*,#514,.F.);
#669=ORIENTED_EDGE('',*,*,#515,.F.);
#670=ORIENTED_EDGE('',*,*,#514,.T.);
#671=ORIENTED_EDGE('',*,*,#453,.F.);
#672=ORIENTED_EDGE('',*,*,#516,.F.);
#673=ORIENTED_EDGE('',*,*,#517,.F.);
#674=ORIENTED_EDGE('',*,*,#516,.T.);
#675=ORIENTED_EDGE('',*,*,#452,.F.);
#676=ORIENTED_EDGE('',*,*,#493,.F.);
#677=ORIENTED_EDGE('',*,*,#518,.F.);
#678=ORIENTED_EDGE('',*,*,#519,.T.);
#679=ORIENTED_EDGE('',*,*,#473,.F.);
#680=ORIENTED_EDGE('',*,*,#520,.F.);
#681=ORIENTED_EDGE('',*,*,#521,.F.);
#682=ORIENTED_EDGE('',*,*,#520,.T.);
#683=ORIENTED_EDGE('',*,*,#472,.F.);
#684=ORIENTED_EDGE('',*,*,#522,.F.);
#685=ORIENTED_EDGE('',*,*,#523,.F.);
#686=ORIENTED_EDGE('',*,*,#522,.T.);
#687=ORIENTED_EDGE('',*,*,#471,.F.);
#688=ORIENTED_EDGE('',*,*,#524,.F.);
#689=ORIENTED_EDGE('',*,*,#525,.F.);
#690=ORIENTED_EDGE('',*,*,#524,.T.);
#691=ORIENTED_EDGE('',*,*,#470,.F.);
#692=ORIENTED_EDGE('',*,*,#526,.F.);
#693=ORIENTED_EDGE('',*,*,#527,.F.);
#694=ORIENTED_EDGE('',*,*,#526,.T.);
#695=ORIENTED_EDGE('',*,*,#469,.F.);
#696=ORIENTED_EDGE('',*,*,#528,.F.);
#697=ORIENTED_EDGE('',*,*,#529,.F.);
#698=ORIENTED_EDGE('',*,*,#528,.T.);
#699=ORIENTED_EDGE('',*,*,#468,.F.);
#700=ORIENTED_EDGE('',*,*,#477,.F.);
#701=ORIENTED_EDGE('',*,*,#530,.F.);
#702=ORIENTED_EDGE('',*,*,#478,.F.);
#703=ORIENTED_EDGE('',*,*,#466,.F.);
#704=ORIENTED_EDGE('',*,*,#531,.F.);
#705=ORIENTED_EDGE('',*,*,#532,.F.);
#706=ORIENTED_EDGE('',*,*,#531,.T.);
#707=ORIENTED_EDGE('',*,*,#465,.F.);
#708=ORIENTED_EDGE('',*,*,#533,.F.);
#709=ORIENTED_EDGE('',*,*,#534,.T.);
#710=ORIENTED_EDGE('',*,*,#533,.T.);
#711=ORIENTED_EDGE('',*,*,#464,.F.);
#712=ORIENTED_EDGE('',*,*,#535,.F.);
#713=ORIENTED_EDGE('',*,*,#536,.T.);
#714=ORIENTED_EDGE('',*,*,#535,.T.);
#715=ORIENTED_EDGE('',*,*,#476,.F.);
#716=ORIENTED_EDGE('',*,*,#537,.F.);
#717=ORIENTED_EDGE('',*,*,#538,.T.);
#718=ORIENTED_EDGE('',*,*,#537,.T.);
#719=ORIENTED_EDGE('',*,*,#475,.F.);
#720=ORIENTED_EDGE('',*,*,#539,.F.);
#721=ORIENTED_EDGE('',*,*,#540,.F.);
#722=ORIENTED_EDGE('',*,*,#539,.T.);
#723=ORIENTED_EDGE('',*,*,#474,.F.);
#724=ORIENTED_EDGE('',*,*,#519,.F.);
#725=ORIENTED_EDGE('',*,*,#488,.F.);
#726=ORIENTED_EDGE('',*,*,#541,.T.);
#727=ORIENTED_EDGE('',*,*,#542,.T.);
#728=ORIENTED_EDGE('',*,*,#541,.F.);
#729=ORIENTED_EDGE('',*,*,#489,.F.);
#730=ORIENTED_EDGE('',*,*,#543,.T.);
#731=ORIENTED_EDGE('',*,*,#544,.T.);
#732=ORIENTED_EDGE('',*,*,#543,.F.);
#733=ORIENTED_EDGE('',*,*,#490,.F.);
#734=ORIENTED_EDGE('',*,*,#545,.T.);
#735=ORIENTED_EDGE('',*,*,#546,.T.);
#736=ORIENTED_EDGE('',*,*,#545,.F.);
#737=ORIENTED_EDGE('',*,*,#491,.F.);
#738=ORIENTED_EDGE('',*,*,#547,.T.);
#739=ORIENTED_EDGE('',*,*,#548,.T.);
#740=ORIENTED_EDGE('',*,*,#547,.F.);
#741=ORIENTED_EDGE('',*,*,#549,.F.);
#742=ORIENTED_EDGE('',*,*,#550,.T.);
#743=ORIENTED_EDGE('',*,*,#481,.F.);
#744=ORIENTED_EDGE('',*,*,#551,.F.);
#745=ORIENTED_EDGE('',*,*,#552,.T.);
#746=ORIENTED_EDGE('',*,*,#551,.T.);
#747=ORIENTED_EDGE('',*,*,#480,.F.);
#748=ORIENTED_EDGE('',*,*,#553,.F.);
#749=ORIENTED_EDGE('',*,*,#554,.F.);
#750=ORIENTED_EDGE('',*,*,#553,.T.);
#751=ORIENTED_EDGE('',*,*,#479,.F.);
#752=ORIENTED_EDGE('',*,*,#530,.T.);
#753=ORIENTED_EDGE('',*,*,#532,.T.);
#754=ORIENTED_EDGE('',*,*,#534,.F.);
#755=ORIENTED_EDGE('',*,*,#536,.F.);
#756=ORIENTED_EDGE('',*,*,#538,.F.);
#757=ORIENTED_EDGE('',*,*,#540,.T.);
#758=ORIENTED_EDGE('',*,*,#518,.T.);
#759=ORIENTED_EDGE('',*,*,#521,.T.);
#760=ORIENTED_EDGE('',*,*,#523,.T.);
#761=ORIENTED_EDGE('',*,*,#525,.T.);
#762=ORIENTED_EDGE('',*,*,#527,.T.);
#763=ORIENTED_EDGE('',*,*,#529,.T.);
#764=ORIENTED_EDGE('',*,*,#487,.F.);
#765=ORIENTED_EDGE('',*,*,#555,.F.);
#766=ORIENTED_EDGE('',*,*,#517,.T.);
#767=ORIENTED_EDGE('',*,*,#492,.T.);
#768=ORIENTED_EDGE('',*,*,#495,.T.);
#769=ORIENTED_EDGE('',*,*,#497,.T.);
#770=ORIENTED_EDGE('',*,*,#499,.T.);
#771=ORIENTED_EDGE('',*,*,#501,.T.);
#772=ORIENTED_EDGE('',*,*,#503,.T.);
#773=ORIENTED_EDGE('',*,*,#505,.T.);
#774=ORIENTED_EDGE('',*,*,#507,.T.);
#775=ORIENTED_EDGE('',*,*,#509,.T.);
#776=ORIENTED_EDGE('',*,*,#511,.T.);
#777=ORIENTED_EDGE('',*,*,#513,.T.);
#778=ORIENTED_EDGE('',*,*,#515,.T.);
#779=ORIENTED_EDGE('',*,*,#556,.T.);
#780=ORIENTED_EDGE('',*,*,#555,.T.);
#781=ORIENTED_EDGE('',*,*,#486,.F.);
#782=ORIENTED_EDGE('',*,*,#557,.F.);
#783=ORIENTED_EDGE('',*,*,#558,.F.);
#784=ORIENTED_EDGE('',*,*,#557,.T.);
#785=ORIENTED_EDGE('',*,*,#485,.F.);
#786=ORIENTED_EDGE('',*,*,#559,.F.);
#787=ORIENTED_EDGE('',*,*,#560,.T.);
#788=ORIENTED_EDGE('',*,*,#559,.T.);
#789=ORIENTED_EDGE('',*,*,#484,.F.);
#790=ORIENTED_EDGE('',*,*,#561,.F.);
#791=ORIENTED_EDGE('',*,*,#562,.F.);
#792=ORIENTED_EDGE('',*,*,#561,.T.);
#793=ORIENTED_EDGE('',*,*,#483,.F.);
#794=ORIENTED_EDGE('',*,*,#563,.F.);
#795=ORIENTED_EDGE('',*,*,#564,.T.);
#796=ORIENTED_EDGE('',*,*,#563,.T.);
#797=ORIENTED_EDGE('',*,*,#482,.F.);
#798=ORIENTED_EDGE('',*,*,#550,.F.);
#799=ORIENTED_EDGE('',*,*,#564,.F.);
#800=ORIENTED_EDGE('',*,*,#549,.T.);
#801=ORIENTED_EDGE('',*,*,#552,.F.);
#802=ORIENTED_EDGE('',*,*,#554,.T.);
#803=ORIENTED_EDGE('',*,*,#556,.F.);
#804=ORIENTED_EDGE('',*,*,#558,.T.);
#805=ORIENTED_EDGE('',*,*,#560,.F.);
#806=ORIENTED_EDGE('',*,*,#562,.T.);
#807=ORIENTED_EDGE('',*,*,#548,.F.);
#808=ORIENTED_EDGE('',*,*,#546,.F.);
#809=ORIENTED_EDGE('',*,*,#544,.F.);
#810=ORIENTED_EDGE('',*,*,#542,.F.);
#811=CYLINDRICAL_SURFACE('',#890,0.25);
#812=CYLINDRICAL_SURFACE('',#893,0.25);
#813=CYLINDRICAL_SURFACE('',#896,0.25);
#814=CYLINDRICAL_SURFACE('',#921,0.299999999999998);
#815=CYLINDRICAL_SURFACE('',#924,0.1);
#816=CYLINDRICAL_SURFACE('',#929,0.100000000000002);
#817=CYLINDRICAL_SURFACE('',#933,0.100000000000002);
#818=CYLINDRICAL_SURFACE('',#936,0.1);
#819=CYLINDRICAL_SURFACE('',#939,0.200000000000002);
#820=CYLINDRICAL_SURFACE('',#943,0.200000000000002);
#821=CYLINDRICAL_SURFACE('',#947,0.2);
#822=CYLINDRICAL_SURFACE('',#950,0.199999999999998);
#823=CYLINDRICAL_SURFACE('',#953,0.2);
#824=CYLINDRICAL_SURFACE('',#955,1.5);
#825=CYLINDRICAL_SURFACE('',#957,1.5);
#826=CYLINDRICAL_SURFACE('',#959,1.5);
#827=CYLINDRICAL_SURFACE('',#961,1.5);
#828=CYLINDRICAL_SURFACE('',#964,2.);
#829=CYLINDRICAL_SURFACE('',#967,2.);
#830=CYLINDRICAL_SURFACE('',#970,2.);
#831=CYLINDRICAL_SURFACE('',#973,2.);
#832=ADVANCED_FACE('',(#53),#811,.F.);
#833=ADVANCED_FACE('',(#54),#812,.F.);
#834=ADVANCED_FACE('',(#55),#813,.F.);
#835=ADVANCED_FACE('',(#56,#15,#16,#17),#30,.F.);
#836=ADVANCED_FACE('',(#57,#18,#19,#20),#31,.T.);
#837=ADVANCED_FACE('',(#58,#21,#22,#23,#24),#32,.T.);
#838=ADVANCED_FACE('',(#59),#33,.T.);
#839=ADVANCED_FACE('',(#60),#814,.T.);
#840=ADVANCED_FACE('',(#61),#34,.T.);
#841=ADVANCED_FACE('',(#62),#815,.F.);
#842=ADVANCED_FACE('',(#63),#35,.T.);
#843=ADVANCED_FACE('',(#64),#36,.T.);
#844=ADVANCED_FACE('',(#65),#37,.T.);
#845=ADVANCED_FACE('',(#66),#816,.F.);
#846=ADVANCED_FACE('',(#67),#38,.T.);
#847=ADVANCED_FACE('',(#68),#39,.T.);
#848=ADVANCED_FACE('',(#69),#817,.F.);
#849=ADVANCED_FACE('',(#70),#40,.T.);
#850=ADVANCED_FACE('',(#71),#818,.F.);
#851=ADVANCED_FACE('',(#72),#41,.T.);
#852=ADVANCED_FACE('',(#73),#819,.T.);
#853=ADVANCED_FACE('',(#74),#42,.T.);
#854=ADVANCED_FACE('',(#75),#43,.T.);
#855=ADVANCED_FACE('',(#76),#820,.T.);
#856=ADVANCED_FACE('',(#77),#44,.T.);
#857=ADVANCED_FACE('',(#78),#45,.T.);
#858=ADVANCED_FACE('',(#79),#821,.T.);
#859=ADVANCED_FACE('',(#80),#46,.T.);
#860=ADVANCED_FACE('',(#81),#822,.F.);
#861=ADVANCED_FACE('',(#82),#47,.T.);
#862=ADVANCED_FACE('',(#83),#823,.T.);
#863=ADVANCED_FACE('',(#84),#824,.F.);
#864=ADVANCED_FACE('',(#85),#825,.F.);
#865=ADVANCED_FACE('',(#86),#826,.F.);
#866=ADVANCED_FACE('',(#87),#827,.F.);
#867=ADVANCED_FACE('',(#88),#48,.T.);
#868=ADVANCED_FACE('',(#89),#828,.T.);
#869=ADVANCED_FACE('',(#90,#25),#49,.T.);
#870=ADVANCED_FACE('',(#91),#829,.T.);
#871=ADVANCED_FACE('',(#92),#50,.T.);
#872=ADVANCED_FACE('',(#93),#830,.T.);
#873=ADVANCED_FACE('',(#94),#51,.T.);
#874=ADVANCED_FACE('',(#95),#831,.T.);
#875=ADVANCED_FACE('',(#96,#26,#27,#28,#29),#52,.F.);
#876=CLOSED_SHELL('',(#832,#833,#834,#835,#836,#837,#838,#839,#840,#841,
#842,#843,#844,#845,#846,#847,#848,#849,#850,#851,#852,#853,#854,#855,#856,
#857,#858,#859,#860,#861,#862,#863,#864,#865,#866,#867,#868,#869,#870,#871,
#872,#873,#874,#875));
#877=DERIVED_UNIT_ELEMENT(#879,1.);
#878=DERIVED_UNIT_ELEMENT(#1486,-3.);
#879=(
MASS_UNIT()
NAMED_UNIT(*)
SI_UNIT(.KILO.,.GRAM.)
);
#880=DERIVED_UNIT((#877,#878));
#881=MEASURE_REPRESENTATION_ITEM('density measure',
POSITIVE_RATIO_MEASURE(7850.),#880);
#882=PROPERTY_DEFINITION_REPRESENTATION(#887,#884);
#883=PROPERTY_DEFINITION_REPRESENTATION(#888,#885);
#884=REPRESENTATION('material name',(#886),#1483);
#885=REPRESENTATION('density',(#881),#1483);
#886=DESCRIPTIVE_REPRESENTATION_ITEM('Steel','Steel');
#887=PROPERTY_DEFINITION('material property','material name',#1493);
#888=PROPERTY_DEFINITION('material property','density of part',#1493);
#889=AXIS2_PLACEMENT_3D('',#1231,#976,#977);
#890=AXIS2_PLACEMENT_3D('',#1232,#978,#979);
#891=AXIS2_PLACEMENT_3D('',#1234,#980,#981);
#892=AXIS2_PLACEMENT_3D('',#1237,#983,#984);
#893=AXIS2_PLACEMENT_3D('',#1238,#985,#986);
#894=AXIS2_PLACEMENT_3D('',#1240,#987,#988);
#895=AXIS2_PLACEMENT_3D('',#1243,#990,#991);
#896=AXIS2_PLACEMENT_3D('',#1244,#992,#993);
#897=AXIS2_PLACEMENT_3D('',#1246,#994,#995);
#898=AXIS2_PLACEMENT_3D('',#1249,#997,#998);
#899=AXIS2_PLACEMENT_3D('',#1250,#999,#1000);
#900=AXIS2_PLACEMENT_3D('',#1255,#1002,#1003);
#901=AXIS2_PLACEMENT_3D('',#1259,#1005,#1006);
#902=AXIS2_PLACEMENT_3D('',#1265,#1009,#1010);
#903=AXIS2_PLACEMENT_3D('',#1273,#1014,#1015);
#904=AXIS2_PLACEMENT_3D('',#1276,#1017,#1018);
#905=AXIS2_PLACEMENT_3D('',#1277,#1019,#1020);
#906=AXIS2_PLACEMENT_3D('',#1282,#1022,#1023);
#907=AXIS2_PLACEMENT_3D('',#1290,#1027,#1028);
#908=AXIS2_PLACEMENT_3D('',#1296,#1031,#1032);
#909=AXIS2_PLACEMENT_3D('',#1300,#1034,#1035);
#910=AXIS2_PLACEMENT_3D('',#1303,#1037,#1038);
#911=AXIS2_PLACEMENT_3D('',#1304,#1039,#1040);
#912=AXIS2_PLACEMENT_3D('',#1312,#1044,#1045);
#913=AXIS2_PLACEMENT_3D('',#1316,#1047,#1048);
#914=AXIS2_PLACEMENT_3D('',#1320,#1050,#1051);
#915=AXIS2_PLACEMENT_3D('',#1324,#1053,#1054);
#916=AXIS2_PLACEMENT_3D('',#1327,#1056,#1057);
#917=AXIS2_PLACEMENT_3D('',#1329,#1058,#1059);
#918=AXIS2_PLACEMENT_3D('',#1331,#1060,#1061);
#919=AXIS2_PLACEMENT_3D('',#1333,#1062,#1063);
#920=AXIS2_PLACEMENT_3D('',#1334,#1064,#1065);
#921=AXIS2_PLACEMENT_3D('',#1340,#1069,#1070);
#922=AXIS2_PLACEMENT_3D('',#1342,#1071,#1072);
#923=AXIS2_PLACEMENT_3D('',#1344,#1074,#1075);
#924=AXIS2_PLACEMENT_3D('',#1348,#1078,#1079);
#925=AXIS2_PLACEMENT_3D('',#1350,#1080,#1081);
#926=AXIS2_PLACEMENT_3D('',#1352,#1083,#1084);
#927=AXIS2_PLACEMENT_3D('',#1356,#1087,#1088);
#928=AXIS2_PLACEMENT_3D('',#1360,#1091,#1092);
#929=AXIS2_PLACEMENT_3D('',#1364,#1095,#1096);
#930=AXIS2_PLACEMENT_3D('',#1366,#1097,#1098);
#931=AXIS2_PLACEMENT_3D('',#1368,#1100,#1101);
#932=AXIS2_PLACEMENT_3D('',#1372,#1104,#1105);
#933=AXIS2_PLACEMENT_3D('',#1376,#1108,#1109);
#934=AXIS2_PLACEMENT_3D('',#1378,#1110,#1111);
#935=AXIS2_PLACEMENT_3D('',#1380,#1113,#1114);
#936=AXIS2_PLACEMENT_3D('',#1384,#1117,#1118);
#937=AXIS2_PLACEMENT_3D('',#1385,#1119,#1120);
#938=AXIS2_PLACEMENT_3D('',#1386,#1121,#1122);
#939=AXIS2_PLACEMENT_3D('',#1392,#1126,#1127);
#940=AXIS2_PLACEMENT_3D('',#1394,#1128,#1129);
#941=AXIS2_PLACEMENT_3D('',#1396,#1131,#1132);
#942=AXIS2_PLACEMENT_3D('',#1400,#1135,#1136);
#943=AXIS2_PLACEMENT_3D('',#1404,#1139,#1140);
#944=AXIS2_PLACEMENT_3D('',#1406,#1141,#1142);
#945=AXIS2_PLACEMENT_3D('',#1408,#1144,#1145);
#946=AXIS2_PLACEMENT_3D('',#1410,#1147,#1148);
#947=AXIS2_PLACEMENT_3D('',#1414,#1151,#1152);
#948=AXIS2_PLACEMENT_3D('',#1416,#1153,#1154);
#949=AXIS2_PLACEMENT_3D('',#1418,#1156,#1157);
#950=AXIS2_PLACEMENT_3D('',#1422,#1160,#1161);
#951=AXIS2_PLACEMENT_3D('',#1424,#1162,#1163);
#952=AXIS2_PLACEMENT_3D('',#1426,#1165,#1166);
#953=AXIS2_PLACEMENT_3D('',#1430,#1169,#1170);
#954=AXIS2_PLACEMENT_3D('',#1431,#1171,#1172);
#955=AXIS2_PLACEMENT_3D('',#1432,#1173,#1174);
#956=AXIS2_PLACEMENT_3D('',#1435,#1176,#1177);
#957=AXIS2_PLACEMENT_3D('',#1436,#1178,#1179);
#958=AXIS2_PLACEMENT_3D('',#1439,#1181,#1182);
#959=AXIS2_PLACEMENT_3D('',#1440,#1183,#1184);
#960=AXIS2_PLACEMENT_3D('',#1443,#1186,#1187);
#961=AXIS2_PLACEMENT_3D('',#1444,#1188,#1189);
#962=AXIS2_PLACEMENT_3D('',#1447,#1191,#1192);
#963=AXIS2_PLACEMENT_3D('',#1448,#1193,#1194);
#964=AXIS2_PLACEMENT_3D('',#1454,#1198,#1199);
#965=AXIS2_PLACEMENT_3D('',#1456,#1200,#1201);
#966=AXIS2_PLACEMENT_3D('',#1458,#1203,#1204);
#967=AXIS2_PLACEMENT_3D('',#1462,#1207,#1208);
#968=AXIS2_PLACEMENT_3D('',#1464,#1209,#1210);
#969=AXIS2_PLACEMENT_3D('',#1466,#1212,#1213);
#970=AXIS2_PLACEMENT_3D('',#1470,#1216,#1217);
#971=AXIS2_PLACEMENT_3D('',#1472,#1218,#1219);
#972=AXIS2_PLACEMENT_3D('',#1474,#1221,#1222);
#973=AXIS2_PLACEMENT_3D('',#1478,#1225,#1226);
#974=AXIS2_PLACEMENT_3D('',#1479,#1227,#1228);
#975=AXIS2_PLACEMENT_3D('',#1480,#1229,#1230);
#976=DIRECTION('axis',(0.,0.,1.));
#977=DIRECTION('refdir',(1.,0.,0.));
#978=DIRECTION('center_axis',(0.,-1.,0.));
#979=DIRECTION('ref_axis',(-1.,0.,0.));
#980=DIRECTION('center_axis',(0.,-1.,0.));
#981=DIRECTION('ref_axis',(-1.,0.,0.));
#982=DIRECTION('',(0.,-1.,0.));
#983=DIRECTION('center_axis',(0.,1.,0.));
#984=DIRECTION('ref_axis',(-1.,0.,0.));
#985=DIRECTION('center_axis',(0.,-1.,0.));
#986=DIRECTION('ref_axis',(-1.,0.,0.));
#987=DIRECTION('center_axis',(0.,-1.,0.));
#988=DIRECTION('ref_axis',(-1.,0.,0.));
#989=DIRECTION('',(0.,-1.,0.));
#990=DIRECTION('center_axis',(0.,1.,0.));
#991=DIRECTION('ref_axis',(-1.,0.,0.));
#992=DIRECTION('center_axis',(0.,-1.,0.));
#993=DIRECTION('ref_axis',(-1.,0.,0.));
#994=DIRECTION('center_axis',(0.,-1.,0.));
#995=DIRECTION('ref_axis',(-1.,0.,0.));
#996=DIRECTION('',(0.,-1.,0.));
#997=DIRECTION('center_axis',(0.,1.,0.));
#998=DIRECTION('ref_axis',(-1.,0.,0.));
#999=DIRECTION('center_axis',(0.,1.,0.));
#1000=DIRECTION('ref_axis',(-1.,0.,0.));
#1001=DIRECTION('',(1.,0.,0.));
#1002=DIRECTION('center_axis',(0.,-1.,0.));
#1003=DIRECTION('ref_axis',(-1.11022302462516E-14,0.,-1.));
#1004=DIRECTION('',(0.,0.,1.));
#1005=DIRECTION('center_axis',(0.,-1.,0.));
#1006=DIRECTION('ref_axis',(1.,0.,2.22044604925026E-14));
#1007=DIRECTION('',(-1.,0.,0.));
#1008=DIRECTION('',(1.09411605406136E-15,0.,1.));
#1009=DIRECTION('center_axis',(0.,-1.,0.));
#1010=DIRECTION('ref_axis',(1.,0.,1.11022302462513E-14));
#1011=DIRECTION('',(-1.,0.,0.));
#1012=DIRECTION('',(0.,0.,-1.));
#1013=DIRECTION('',(1.,0.,-1.9293156231373E-15));
#1014=DIRECTION('center_axis',(0.,-1.,0.));
#1015=DIRECTION('ref_axis',(-1.11022302462516E-14,0.,-1.));
#1016=DIRECTION('',(0.,0.,1.));
#1017=DIRECTION('center_axis',(0.,1.,0.));
#1018=DIRECTION('ref_axis',(5.55111512312582E-15,0.,1.));
#1019=DIRECTION('center_axis',(0.,1.,0.));
#1020=DIRECTION('ref_axis',(-1.,0.,0.));
#1021=DIRECTION('',(0.,0.,-1.));
#1022=DIRECTION('center_axis',(0.,1.,0.));
#1023=DIRECTION('ref_axis',(1.,0.,0.));
#1024=DIRECTION('',(-1.,0.,1.77508121092406E-15));
#1025=DIRECTION('',(0.,0.,-1.));
#1026=DIRECTION('',(1.,0.,0.));
#1027=DIRECTION('center_axis',(0.,1.,0.));
#1028=DIRECTION('ref_axis',(8.32667268468857E-15,0.,1.));
#1029=DIRECTION('',(-1.362702589801E-15,0.,-1.));
#1030=DIRECTION('',(1.,0.,0.));
#1031=DIRECTION('center_axis',(0.,1.,0.));
#1032=DIRECTION('ref_axis',(5.55111512312572E-15,0.,1.));
#1033=DIRECTION('',(0.,0.,-1.));
#1034=DIRECTION('center_axis',(0.,1.,0.));
#1035=DIRECTION('ref_axis',(1.,0.,0.));
#1036=DIRECTION('',(-1.,0.,0.));
#1037=DIRECTION('center_axis',(0.,-1.,0.));
#1038=DIRECTION('ref_axis',(-1.,0.,0.));
#1039=DIRECTION('center_axis',(1.,0.,0.));
#1040=DIRECTION('ref_axis',(0.,1.,0.));
#1041=DIRECTION('',(0.,1.,0.));
#1042=DIRECTION('',(0.,-1.,0.));
#1043=DIRECTION('',(0.,0.,-1.));
#1044=DIRECTION('center_axis',(1.,0.,0.));
#1045=DIRECTION('ref_axis',(0.,-1.,0.));
#1046=DIRECTION('',(0.,1.,6.93889390390723E-17));
#1047=DIRECTION('center_axis',(1.,0.,0.));
#1048=DIRECTION('ref_axis',(0.,0.,-1.));
#1049=DIRECTION('',(0.,1.38777878078145E-16,1.));
#1050=DIRECTION('center_axis',(1.,0.,0.));
#1051=DIRECTION('ref_axis',(0.,1.,1.11022302462516E-15));
#1052=DIRECTION('',(0.,-1.,-6.93889390390723E-17));
#1053=DIRECTION('center_axis',(1.,0.,0.));
#1054=DIRECTION('ref_axis',(0.,1.11022302462516E-15,1.));
#1055=DIRECTION('',(0.,0.,-1.));
#1056=DIRECTION('center_axis',(-1.,0.,0.));
#1057=DIRECTION('ref_axis',(0.,1.,0.));
#1058=DIRECTION('center_axis',(-1.,0.,0.));
#1059=DIRECTION('ref_axis',(0.,1.,0.));
#1060=DIRECTION('center_axis',(-1.,0.,0.));
#1061=DIRECTION('ref_axis',(0.,1.,0.));
#1062=DIRECTION('center_axis',(-1.,0.,0.));
#1063=DIRECTION('ref_axis',(0.,1.,0.));
#1064=DIRECTION('center_axis',(0.,0.,1.));
#1065=DIRECTION('ref_axis',(1.,0.,0.));
#1066=DIRECTION('',(-1.,0.,0.));
#1067=DIRECTION('',(0.,1.,0.));
#1068=DIRECTION('',(0.,1.,0.));
#1069=DIRECTION('center_axis',(0.,1.,0.));
#1070=DIRECTION('ref_axis',(5.55111512312582E-15,0.,1.));
#1071=DIRECTION('center_axis',(0.,-1.,0.));
#1072=DIRECTION('ref_axis',(5.55111512312582E-15,0.,1.));
#1073=DIRECTION('',(0.,1.,0.));
#1074=DIRECTION('center_axis',(-1.,0.,0.));
#1075=DIRECTION('ref_axis',(0.,0.,1.));
#1076=DIRECTION('',(0.,0.,-1.));
#1077=DIRECTION('',(0.,1.,0.));
#1078=DIRECTION('center_axis',(0.,1.,0.));
#1079=DIRECTION('ref_axis',(-1.11022302462516E-14,0.,-1.));
#1080=DIRECTION('center_axis',(0.,1.,0.));
#1081=DIRECTION('ref_axis',(-1.11022302462516E-14,0.,-1.));
#1082=DIRECTION('',(0.,1.,0.));
#1083=DIRECTION('center_axis',(1.9293156231373E-15,0.,1.));
#1084=DIRECTION('ref_axis',(1.,0.,-1.9293156231373E-15));
#1085=DIRECTION('',(-1.,0.,1.9293156231373E-15));
#1086=DIRECTION('',(0.,1.,0.));
#1087=DIRECTION('center_axis',(1.,0.,0.));
#1088=DIRECTION('ref_axis',(0.,0.,-1.));
#1089=DIRECTION('',(0.,0.,1.));
#1090=DIRECTION('',(0.,1.,0.));
#1091=DIRECTION('center_axis',(0.,0.,-1.));
#1092=DIRECTION('ref_axis',(-1.,0.,0.));
#1093=DIRECTION('',(1.,0.,0.));
#1094=DIRECTION('',(0.,1.,0.));
#1095=DIRECTION('center_axis',(0.,1.,0.));
#1096=DIRECTION('ref_axis',(1.,0.,1.11022302462513E-14));
#1097=DIRECTION('center_axis',(0.,1.,0.));
#1098=DIRECTION('ref_axis',(1.,0.,1.11022302462513E-14));
#1099=DIRECTION('',(0.,1.,0.));
#1100=DIRECTION('center_axis',(-1.,0.,1.09411605406136E-15));
#1101=DIRECTION('ref_axis',(1.09411605406136E-15,0.,1.));
#1102=DIRECTION('',(-1.09411605406136E-15,0.,-1.));
#1103=DIRECTION('',(0.,1.,0.));
#1104=DIRECTION('center_axis',(0.,0.,-1.));
#1105=DIRECTION('ref_axis',(-1.,0.,0.));
#1106=DIRECTION('',(1.,0.,0.));
#1107=DIRECTION('',(0.,1.,0.));
#1108=DIRECTION('center_axis',(0.,1.,0.));
#1109=DIRECTION('ref_axis',(1.,0.,2.22044604925026E-14));
#1110=DIRECTION('center_axis',(0.,1.,0.));
#1111=DIRECTION('ref_axis',(1.,0.,2.22044604925026E-14));
#1112=DIRECTION('',(0.,1.,0.));
#1113=DIRECTION('center_axis',(-1.,0.,0.));
#1114=DIRECTION('ref_axis',(0.,0.,1.));
#1115=DIRECTION('',(0.,0.,-1.));
#1116=DIRECTION('',(0.,1.,0.));
#1117=DIRECTION('center_axis',(0.,1.,0.));
#1118=DIRECTION('ref_axis',(-1.11022302462516E-14,0.,-1.));
#1119=DIRECTION('center_axis',(0.,1.,0.));
#1120=DIRECTION('ref_axis',(-1.11022302462516E-14,0.,-1.));
#1121=DIRECTION('center_axis',(1.,0.,0.));
#1122=DIRECTION('ref_axis',(0.,0.,-1.));
#1123=DIRECTION('',(0.,0.,1.));
#1124=DIRECTION('',(0.,1.,0.));
#1125=DIRECTION('',(0.,1.,0.));
#1126=DIRECTION('center_axis',(0.,1.,0.));
#1127=DIRECTION('ref_axis',(1.,0.,1.11022302462514E-14));
#1128=DIRECTION('center_axis',(0.,-1.,0.));
#1129=DIRECTION('ref_axis',(1.,0.,1.11022302462514E-14));
#1130=DIRECTION('',(0.,1.,0.));
#1131=DIRECTION('center_axis',(0.,0.,1.));
#1132=DIRECTION('ref_axis',(1.,0.,0.));
#1133=DIRECTION('',(-1.,0.,0.));
#1134=DIRECTION('',(0.,1.,0.));
#1135=DIRECTION('center_axis',(1.,0.,-1.362702589801E-15));
#1136=DIRECTION('ref_axis',(-1.362702589801E-15,0.,-1.));
#1137=DIRECTION('',(1.362702589801E-15,0.,1.));
#1138=DIRECTION('',(0.,1.,0.));
#1139=DIRECTION('center_axis',(0.,1.,0.));
#1140=DIRECTION('ref_axis',(1.,0.,5.55111512312572E-15));
#1141=DIRECTION('center_axis',(0.,-1.,0.));
#1142=DIRECTION('ref_axis',(1.,0.,5.55111512312572E-15));
#1143=DIRECTION('',(0.,1.,0.));
#1144=DIRECTION('center_axis',(0.,0.,1.));
#1145=DIRECTION('ref_axis',(1.,0.,0.));
#1146=DIRECTION('',(-1.,0.,0.));
#1147=DIRECTION('center_axis',(-1.77508121092406E-15,0.,-1.));
#1148=DIRECTION('ref_axis',(-1.,0.,1.77508121092406E-15));
#1149=DIRECTION('',(1.,0.,-1.77508121092406E-15));
#1150=DIRECTION('',(0.,1.,0.));
#1151=DIRECTION('center_axis',(0.,1.,0.));
#1152=DIRECTION('ref_axis',(-5.55111512312578E-15,0.,-1.));
#1153=DIRECTION('center_axis',(0.,-1.,0.));
#1154=DIRECTION('ref_axis',(-5.55111512312578E-15,0.,-1.));
#1155=DIRECTION('',(0.,1.,0.));
#1156=DIRECTION('center_axis',(1.,0.,-2.32583141269927E-15));
#1157=DIRECTION('ref_axis',(-2.32583141269927E-15,0.,-1.));
#1158=DIRECTION('',(-2.32583141269927E-15,0.,-1.));
#1159=DIRECTION('',(0.,1.,0.));
#1160=DIRECTION('center_axis',(0.,1.,0.));
#1161=DIRECTION('ref_axis',(5.55111512312584E-15,0.,1.));
#1162=DIRECTION('center_axis',(0.,-1.,0.));
#1163=DIRECTION('ref_axis',(5.55111512312584E-15,0.,1.));
#1164=DIRECTION('',(0.,1.,0.));
#1165=DIRECTION('center_axis',(0.,0.,-1.));
#1166=DIRECTION('ref_axis',(-1.,0.,0.));
#1167=DIRECTION('',(-1.,0.,0.));
#1168=DIRECTION('',(0.,1.,0.));
#1169=DIRECTION('center_axis',(0.,1.,0.));
#1170=DIRECTION('ref_axis',(-5.55111512312578E-15,0.,-1.));
#1171=DIRECTION('center_axis',(0.,-1.,0.));
#1172=DIRECTION('ref_axis',(-5.55111512312578E-15,0.,-1.));
#1173=DIRECTION('center_axis',(1.,0.,0.));
#1174=DIRECTION('ref_axis',(0.,1.,0.));
#1175=DIRECTION('',(-1.,0.,0.));
#1176=DIRECTION('center_axis',(-1.,0.,0.));
#1177=DIRECTION('ref_axis',(0.,1.,0.));
#1178=DIRECTION('center_axis',(1.,0.,0.));
#1179=DIRECTION('ref_axis',(0.,1.,0.));
#1180=DIRECTION('',(-1.,0.,0.));
#1181=DIRECTION('center_axis',(-1.,0.,0.));
#1182=DIRECTION('ref_axis',(0.,1.,0.));
#1183=DIRECTION('center_axis',(1.,0.,0.));
#1184=DIRECTION('ref_axis',(0.,1.,0.));
#1185=DIRECTION('',(-1.,0.,0.));
#1186=DIRECTION('center_axis',(-1.,0.,0.));
#1187=DIRECTION('ref_axis',(0.,1.,0.));
#1188=DIRECTION('center_axis',(1.,0.,0.));
#1189=DIRECTION('ref_axis',(0.,1.,0.));
#1190=DIRECTION('',(-1.,0.,0.));
#1191=DIRECTION('center_axis',(-1.,0.,0.));
#1192=DIRECTION('ref_axis',(0.,1.,0.));
#1193=DIRECTION('center_axis',(0.,6.93889390390723E-17,-1.));
#1194=DIRECTION('ref_axis',(0.,1.,6.93889390390723E-17));
#1195=DIRECTION('',(0.,-1.,-6.93889390390723E-17));
#1196=DIRECTION('',(1.,0.,0.));
#1197=DIRECTION('',(1.,0.,0.));
#1198=DIRECTION('center_axis',(1.,0.,0.));
#1199=DIRECTION('ref_axis',(0.,-1.,0.));
#1200=DIRECTION('center_axis',(1.,0.,0.));
#1201=DIRECTION('ref_axis',(0.,-1.,0.));
#1202=DIRECTION('',(1.,0.,0.));
#1203=DIRECTION('center_axis',(0.,-1.,0.));
#1204=DIRECTION('ref_axis',(0.,0.,-1.));
#1205=DIRECTION('',(0.,0.,1.));
#1206=DIRECTION('',(1.,0.,0.));
#1207=DIRECTION('center_axis',(1.,0.,0.));
#1208=DIRECTION('ref_axis',(0.,1.11022302462516E-15,1.));
#1209=DIRECTION('center_axis',(1.,0.,0.));
#1210=DIRECTION('ref_axis',(0.,1.11022302462516E-15,1.));
#1211=DIRECTION('',(1.,0.,0.));
#1212=DIRECTION('center_axis',(0.,-6.93889390390723E-17,1.));
#1213=DIRECTION('ref_axis',(0.,-1.,-6.93889390390723E-17));
#1214=DIRECTION('',(0.,1.,6.93889390390723E-17));
#1215=DIRECTION('',(1.,0.,0.));
#1216=DIRECTION('center_axis',(1.,0.,0.));
#1217=DIRECTION('ref_axis',(0.,1.,1.11022302462516E-15));
#1218=DIRECTION('center_axis',(1.,0.,0.));
#1219=DIRECTION('ref_axis',(0.,1.,1.11022302462516E-15));
#1220=DIRECTION('',(1.,0.,0.));
#1221=DIRECTION('center_axis',(0.,1.,-1.38777878078145E-16));
#1222=DIRECTION('ref_axis',(0.,1.38777878078145E-16,1.));
#1223=DIRECTION('',(0.,-1.38777878078145E-16,-1.));
#1224=DIRECTION('',(1.,0.,0.));
#1225=DIRECTION('center_axis',(1.,0.,0.));
#1226=DIRECTION('ref_axis',(0.,0.,-1.));
#1227=DIRECTION('center_axis',(1.,0.,0.));
#1228=DIRECTION('ref_axis',(0.,0.,-1.));
#1229=DIRECTION('center_axis',(1.,0.,0.));
#1230=DIRECTION('ref_axis',(0.,1.,0.));
#1231=CARTESIAN_POINT('',(0.,0.,0.));
#1232=CARTESIAN_POINT('Origin',(2.49999994412065,-14.5,-8.59999977201223));
#1233=CARTESIAN_POINT('',(2.74999994412065,-14.5,-8.59999977201223));
#1234=CARTESIAN_POINT('Origin',(2.49999994412065,-14.5,-8.59999977201223));
#1235=CARTESIAN_POINT('',(2.74999994412065,-15.,-8.59999977201223));
#1236=CARTESIAN_POINT('',(2.74999994412065,-14.5,-8.59999977201223));
#1237=CARTESIAN_POINT('Origin',(2.49999994412065,-15.,-8.59999977201223));
#1238=CARTESIAN_POINT('Origin',(2.49999994412065,-14.5,-10.1999997720122));
#1239=CARTESIAN_POINT('',(2.74999994412065,-14.5,-10.1999997720122));
#1240=CARTESIAN_POINT('Origin',(2.49999994412065,-14.5,-10.1999997720122));
#1241=CARTESIAN_POINT('',(2.74999994412065,-15.,-10.1999997720122));
#1242=CARTESIAN_POINT('',(2.74999994412065,-14.5,-10.1999997720122));
#1243=CARTESIAN_POINT('Origin',(2.49999994412065,-15.,-10.1999997720122));
#1244=CARTESIAN_POINT('Origin',(2.49999994412065,-14.5,-9.39999977201223));
#1245=CARTESIAN_POINT('',(2.74999994412065,-14.5,-9.39999977201223));
#1246=CARTESIAN_POINT('Origin',(2.49999994412065,-14.5,-9.39999977201223));
#1247=CARTESIAN_POINT('',(2.74999994412065,-15.,-9.39999977201223));
#1248=CARTESIAN_POINT('',(2.74999994412065,-14.5,-9.39999977201223));
#1249=CARTESIAN_POINT('Origin',(2.49999994412065,-15.,-9.39999977201223));
#1250=CARTESIAN_POINT('Origin',(2.75,-15.,-9.27553809182633));
#1251=CARTESIAN_POINT('',(3.40089828881373,-15.,-10.5368658005839));
#1252=CARTESIAN_POINT('',(3.55,-15.,-10.5368658005839));
#1253=CARTESIAN_POINT('',(3.55,-15.,-10.5368658005839));
#1254=CARTESIAN_POINT('',(3.65,-15.,-10.4368658005839));
#1255=CARTESIAN_POINT('Origin',(3.55,-15.,-10.4368658005839));
#1256=CARTESIAN_POINT('',(3.65,-15.,-8.08289881489771));
#1257=CARTESIAN_POINT('',(3.65,-15.,-10.4368658005839));
#1258=CARTESIAN_POINT('',(3.55,-15.,-7.98289881489771));
#1259=CARTESIAN_POINT('Origin',(3.55,-15.,-8.08289881489771));
#1260=CARTESIAN_POINT('',(3.10089828881373,-15.,-7.98289881489771));
#1261=CARTESIAN_POINT('',(3.55,-15.,-7.98289881489771));
#1262=CARTESIAN_POINT('',(3.10089828881373,-15.,-7.47553809182633));
#1263=CARTESIAN_POINT('',(3.10089828881373,-15.,-7.98289881489771));
#1264=CARTESIAN_POINT('',(3.00089828881373,-15.,-7.37553809182633));
#1265=CARTESIAN_POINT('Origin',(3.00089828881373,-15.,-7.47553809182633));
#1266=CARTESIAN_POINT('',(1.85,-15.,-7.37553809182633));
#1267=CARTESIAN_POINT('',(3.00089828881373,-15.,-7.37553809182633));
#1268=CARTESIAN_POINT('',(1.85,-15.,-11.1755380918263));
#1269=CARTESIAN_POINT('',(1.85,-15.,-7.37553809182633));
#1270=CARTESIAN_POINT('',(3.00089828881373,-15.,-11.1755380918263));
#1271=CARTESIAN_POINT('',(1.85,-15.,-11.1755380918263));
#1272=CARTESIAN_POINT('',(3.10089828881373,-15.,-11.0755380918263));
#1273=CARTESIAN_POINT('Origin',(3.00089828881373,-15.,-11.0755380918263));
#1274=CARTESIAN_POINT('',(3.10089828881373,-15.,-10.8368658005839));
#1275=CARTESIAN_POINT('',(3.10089828881373,-15.,-10.8368658005839));
#1276=CARTESIAN_POINT('Origin',(3.40089828881373,-15.,-10.8368658005839));
#1277=CARTESIAN_POINT('Origin',(2.75,-14.5,-9.27553809182633));
#1278=CARTESIAN_POINT('',(3.20089828881373,-14.5,-10.8368658005839));
#1279=CARTESIAN_POINT('',(3.20089828881373,-14.5,-11.0755380918263));
#1280=CARTESIAN_POINT('',(3.20089828881373,-14.5,-10.8368658005839));
#1281=CARTESIAN_POINT('',(3.00089828881373,-14.5,-11.2755380918263));
#1282=CARTESIAN_POINT('Origin',(3.00089828881373,-14.5,-11.0755380918263));
#1283=CARTESIAN_POINT('',(1.75,-14.5,-11.2755380918263));
#1284=CARTESIAN_POINT('',(3.00089828881373,-14.5,-11.2755380918263));
#1285=CARTESIAN_POINT('',(1.75,-14.5,-7.27553809182633));
#1286=CARTESIAN_POINT('',(1.75,-14.5,-4.63776904591317));
#1287=CARTESIAN_POINT('',(3.00089828881373,-14.5,-7.27553809182633));
#1288=CARTESIAN_POINT('',(1.75,-14.5,-7.27553809182633));
#1289=CARTESIAN_POINT('',(3.20089828881373,-14.5,-7.47553809182633));
#1290=CARTESIAN_POINT('Origin',(3.00089828881373,-14.5,-7.47553809182633));
#1291=CARTESIAN_POINT('',(3.20089828881373,-14.5,-7.88289881489771));
#1292=CARTESIAN_POINT('',(3.20089828881373,-14.5,-7.47553809182633));
#1293=CARTESIAN_POINT('',(3.55,-14.5,-7.88289881489771));
#1294=CARTESIAN_POINT('',(3.20089828881373,-14.5,-7.88289881489771));
#1295=CARTESIAN_POINT('',(3.75,-14.5,-8.08289881489771));
#1296=CARTESIAN_POINT('Origin',(3.55,-14.5,-8.08289881489771));
#1297=CARTESIAN_POINT('',(3.75,-14.5,-10.4368658005839));
#1298=CARTESIAN_POINT('',(3.75,-14.5,-8.08289881489771));
#1299=CARTESIAN_POINT('',(3.55,-14.5,-10.6368658005839));
#1300=CARTESIAN_POINT('Origin',(3.55,-14.5,-10.4368658005839));
#1301=CARTESIAN_POINT('',(3.40089828881373,-14.5,-10.6368658005839));
#1302=CARTESIAN_POINT('',(3.55,-14.5,-10.6368658005839));
#1303=CARTESIAN_POINT('Origin',(3.40089828881373,-14.5,-10.8368658005839));
#1304=CARTESIAN_POINT('Origin',(1.75,2.22044604925031E-15,0.));
#1305=CARTESIAN_POINT('',(1.75,-18.,-7.27553809182633));
#1306=CARTESIAN_POINT('',(1.75,-9.,-7.27553809182633));
#1307=CARTESIAN_POINT('',(1.75,-18.,-11.2755380918263));
#1308=CARTESIAN_POINT('',(1.75,-9.,-11.2755380918263));
#1309=CARTESIAN_POINT('',(1.75,-18.,-16.));
#1310=CARTESIAN_POINT('',(1.75,-18.,-16.));
#1311=CARTESIAN_POINT('',(1.75,-16.,-18.));
#1312=CARTESIAN_POINT('Origin',(1.75,-16.,-16.));
#1313=CARTESIAN_POINT('',(1.75,16.,-18.));
#1314=CARTESIAN_POINT('',(1.75,16.,-18.));
#1315=CARTESIAN_POINT('',(1.75,18.,-16.));
#1316=CARTESIAN_POINT('Origin',(1.75,16.,-16.));
#1317=CARTESIAN_POINT('',(1.75,18.,16.));
#1318=CARTESIAN_POINT('',(1.75,18.,16.));
#1319=CARTESIAN_POINT('',(1.75,16.,18.));
#1320=CARTESIAN_POINT('Origin',(1.75,16.,16.));
#1321=CARTESIAN_POINT('',(1.75,-16.,18.));
#1322=CARTESIAN_POINT('',(1.75,-16.,18.));
#1323=CARTESIAN_POINT('',(1.75,-18.,16.));
#1324=CARTESIAN_POINT('Origin',(1.75,-16.,16.));
#1325=CARTESIAN_POINT('',(1.75,-18.,-16.));
#1326=CARTESIAN_POINT('',(1.75,-16.75,-15.25));
#1327=CARTESIAN_POINT('Origin',(1.75,-15.25,-15.25));
#1328=CARTESIAN_POINT('',(1.75,13.75,15.25));
#1329=CARTESIAN_POINT('Origin',(1.75,15.25,15.25));
#1330=CARTESIAN_POINT('',(1.75,-16.75,15.25));
#1331=CARTESIAN_POINT('Origin',(1.75,-15.25,15.25));
#1332=CARTESIAN_POINT('',(1.75,13.75,-15.25));
#1333=CARTESIAN_POINT('Origin',(1.75,15.25,-15.25));
#1334=CARTESIAN_POINT('Origin',(3.40089828881373,-18.,-10.5368658005839));
#1335=CARTESIAN_POINT('',(3.55,-18.,-10.5368658005839));
#1336=CARTESIAN_POINT('',(3.40089828881373,-18.,-10.5368658005839));
#1337=CARTESIAN_POINT('',(3.55,-18.,-10.5368658005839));
#1338=CARTESIAN_POINT('',(3.55,-18.,-10.5368658005839));
#1339=CARTESIAN_POINT('',(3.40089828881373,-18.,-10.5368658005839));
#1340=CARTESIAN_POINT('Origin',(3.40089828881373,-18.,-10.8368658005839));
#1341=CARTESIAN_POINT('',(3.10089828881373,-18.,-10.8368658005839));
#1342=CARTESIAN_POINT('Origin',(3.40089828881373,-18.,-10.8368658005839));
#1343=CARTESIAN_POINT('',(3.10089828881373,-18.,-10.8368658005839));
#1344=CARTESIAN_POINT('Origin',(3.10089828881373,-18.,-11.0755380918263));
#1345=CARTESIAN_POINT('',(3.10089828881373,-18.,-11.0755380918263));
#1346=CARTESIAN_POINT('',(3.10089828881373,-18.,-10.8368658005839));
#1347=CARTESIAN_POINT('',(3.10089828881373,-18.,-11.0755380918263));
#1348=CARTESIAN_POINT('Origin',(3.00089828881373,-18.,-11.0755380918263));
#1349=CARTESIAN_POINT('',(3.00089828881373,-18.,-11.1755380918263));
#1350=CARTESIAN_POINT('Origin',(3.00089828881373,-18.,-11.0755380918263));
#1351=CARTESIAN_POINT('',(3.00089828881373,-18.,-11.1755380918263));
#1352=CARTESIAN_POINT('Origin',(1.85,-18.,-11.1755380918263));
#1353=CARTESIAN_POINT('',(1.85,-18.,-11.1755380918263));
#1354=CARTESIAN_POINT('',(1.85,-18.,-11.1755380918263));
#1355=CARTESIAN_POINT('',(1.85,-18.,-11.1755380918263));
#1356=CARTESIAN_POINT('Origin',(1.85,-18.,-7.37553809182633));
#1357=CARTESIAN_POINT('',(1.85,-18.,-7.37553809182633));
#1358=CARTESIAN_POINT('',(1.85,-18.,-7.37553809182633));
#1359=CARTESIAN_POINT('',(1.85,-18.,-7.37553809182633));
#1360=CARTESIAN_POINT('Origin',(3.00089828881373,-18.,-7.37553809182633));
#1361=CARTESIAN_POINT('',(3.00089828881373,-18.,-7.37553809182633));
#1362=CARTESIAN_POINT('',(3.00089828881373,-18.,-7.37553809182633));
#1363=CARTESIAN_POINT('',(3.00089828881373,-18.,-7.37553809182633));
#1364=CARTESIAN_POINT('Origin',(3.00089828881373,-18.,-7.47553809182633));
#1365=CARTESIAN_POINT('',(3.10089828881373,-18.,-7.47553809182633));
#1366=CARTESIAN_POINT('Origin',(3.00089828881373,-18.,-7.47553809182633));
#1367=CARTESIAN_POINT('',(3.10089828881373,-18.,-7.47553809182633));
#1368=CARTESIAN_POINT('Origin',(3.10089828881373,-18.,-7.98289881489771));
#1369=CARTESIAN_POINT('',(3.10089828881373,-18.,-7.98289881489771));
#1370=CARTESIAN_POINT('',(3.10089828881373,-18.,-7.98289881489771));
#1371=CARTESIAN_POINT('',(3.10089828881373,-18.,-7.98289881489771));
#1372=CARTESIAN_POINT('Origin',(3.55,-18.,-7.98289881489771));
#1373=CARTESIAN_POINT('',(3.55,-18.,-7.98289881489771));
#1374=CARTESIAN_POINT('',(3.55,-18.,-7.98289881489771));
#1375=CARTESIAN_POINT('',(3.55,-18.,-7.98289881489771));
#1376=CARTESIAN_POINT('Origin',(3.55,-18.,-8.08289881489771));
#1377=CARTESIAN_POINT('',(3.65,-18.,-8.08289881489771));
#1378=CARTESIAN_POINT('Origin',(3.55,-18.,-8.08289881489771));
#1379=CARTESIAN_POINT('',(3.65,-18.,-8.08289881489771));
#1380=CARTESIAN_POINT('Origin',(3.65,-18.,-10.4368658005839));
#1381=CARTESIAN_POINT('',(3.65,-18.,-10.4368658005839));
#1382=CARTESIAN_POINT('',(3.65,-18.,-10.4368658005839));
#1383=CARTESIAN_POINT('',(3.65,-18.,-10.4368658005839));
#1384=CARTESIAN_POINT('Origin',(3.55,-18.,-10.4368658005839));
#1385=CARTESIAN_POINT('Origin',(3.55,-18.,-10.4368658005839));
#1386=CARTESIAN_POINT('Origin',(3.75,-18.,-8.08289881489771));
#1387=CARTESIAN_POINT('',(3.75,-18.,-10.4368658005839));
#1388=CARTESIAN_POINT('',(3.75,-18.,-8.08289881489771));
#1389=CARTESIAN_POINT('',(3.75,-18.,-10.4368658005839));
#1390=CARTESIAN_POINT('',(3.75,-18.,-10.4368658005839));
#1391=CARTESIAN_POINT('',(3.75,-18.,-8.08289881489771));
#1392=CARTESIAN_POINT('Origin',(3.55,-18.,-8.08289881489771));
#1393=CARTESIAN_POINT('',(3.55,-18.,-7.88289881489771));
#1394=CARTESIAN_POINT('Origin',(3.55,-18.,-8.08289881489771));
#1395=CARTESIAN_POINT('',(3.55,-18.,-7.88289881489771));
#1396=CARTESIAN_POINT('Origin',(3.20089828881373,-18.,-7.88289881489771));
#1397=CARTESIAN_POINT('',(3.20089828881373,-18.,-7.88289881489771));
#1398=CARTESIAN_POINT('',(3.55,-18.,-7.88289881489771));
#1399=CARTESIAN_POINT('',(3.20089828881373,-18.,-7.88289881489771));
#1400=CARTESIAN_POINT('Origin',(3.20089828881373,-18.,-7.47553809182633));
#1401=CARTESIAN_POINT('',(3.20089828881373,-18.,-7.47553809182633));
#1402=CARTESIAN_POINT('',(3.20089828881373,-18.,-7.88289881489771));
#1403=CARTESIAN_POINT('',(3.20089828881373,-18.,-7.47553809182633));
#1404=CARTESIAN_POINT('Origin',(3.00089828881373,-18.,-7.47553809182633));
#1405=CARTESIAN_POINT('',(3.00089828881373,-18.,-7.27553809182633));
#1406=CARTESIAN_POINT('Origin',(3.00089828881373,-18.,-7.47553809182633));
#1407=CARTESIAN_POINT('',(3.00089828881373,-18.,-7.27553809182633));
#1408=CARTESIAN_POINT('Origin',(1.75,-18.,-7.27553809182633));
#1409=CARTESIAN_POINT('',(3.00089828881373,-18.,-7.27553809182633));
#1410=CARTESIAN_POINT('Origin',(3.00089828881373,-18.,-11.2755380918263));
#1411=CARTESIAN_POINT('',(3.00089828881373,-18.,-11.2755380918263));
#1412=CARTESIAN_POINT('',(1.75,-18.,-11.2755380918263));
#1413=CARTESIAN_POINT('',(3.00089828881373,-18.,-11.2755380918263));
#1414=CARTESIAN_POINT('Origin',(3.00089828881373,-18.,-11.0755380918263));
#1415=CARTESIAN_POINT('',(3.20089828881373,-18.,-11.0755380918263));
#1416=CARTESIAN_POINT('Origin',(3.00089828881373,-18.,-11.0755380918263));
#1417=CARTESIAN_POINT('',(3.20089828881373,-18.,-11.0755380918263));
#1418=CARTESIAN_POINT('Origin',(3.20089828881373,-18.,-10.8368658005839));
#1419=CARTESIAN_POINT('',(3.20089828881373,-18.,-10.8368658005839));
#1420=CARTESIAN_POINT('',(3.20089828881373,-18.,-10.8368658005839));
#1421=CARTESIAN_POINT('',(3.20089828881373,-18.,-10.8368658005839));
#1422=CARTESIAN_POINT('Origin',(3.40089828881373,-18.,-10.8368658005839));
#1423=CARTESIAN_POINT('',(3.40089828881373,-18.,-10.6368658005839));
#1424=CARTESIAN_POINT('Origin',(3.40089828881373,-18.,-10.8368658005839));
#1425=CARTESIAN_POINT('',(3.40089828881373,-18.,-10.6368658005839));
#1426=CARTESIAN_POINT('Origin',(3.55,-18.,-10.6368658005839));
#1427=CARTESIAN_POINT('',(3.55,-18.,-10.6368658005839));
#1428=CARTESIAN_POINT('',(3.55,-18.,-10.6368658005839));
#1429=CARTESIAN_POINT('',(3.55,-18.,-10.6368658005839));
#1430=CARTESIAN_POINT('Origin',(3.55,-18.,-10.4368658005839));
#1431=CARTESIAN_POINT('Origin',(3.55,-18.,-10.4368658005839));
#1432=CARTESIAN_POINT('Origin',(0.,-15.25,-15.25));
#1433=CARTESIAN_POINT('',(0.,-16.75,-15.25));
#1434=CARTESIAN_POINT('',(0.,-16.75,-15.25));
#1435=CARTESIAN_POINT('Origin',(0.,-15.25,-15.25));
#1436=CARTESIAN_POINT('Origin',(0.,15.25,15.25));
#1437=CARTESIAN_POINT('',(0.,13.75,15.25));
#1438=CARTESIAN_POINT('',(0.,13.75,15.25));
#1439=CARTESIAN_POINT('Origin',(0.,15.25,15.25));
#1440=CARTESIAN_POINT('Origin',(0.,-15.25,15.25));
#1441=CARTESIAN_POINT('',(0.,-16.75,15.25));
#1442=CARTESIAN_POINT('',(0.,-16.75,15.25));
#1443=CARTESIAN_POINT('Origin',(0.,-15.25,15.25));
#1444=CARTESIAN_POINT('Origin',(0.,15.25,-15.25));
#1445=CARTESIAN_POINT('',(0.,13.75,-15.25));
#1446=CARTESIAN_POINT('',(0.,13.75,-15.25));
#1447=CARTESIAN_POINT('Origin',(0.,15.25,-15.25));
#1448=CARTESIAN_POINT('Origin',(0.,-16.,-18.));
#1449=CARTESIAN_POINT('',(0.,16.,-18.));
#1450=CARTESIAN_POINT('',(0.,-16.,-18.));
#1451=CARTESIAN_POINT('',(0.,16.,-18.));
#1452=CARTESIAN_POINT('',(0.,16.,-18.));
#1453=CARTESIAN_POINT('',(0.,-16.,-18.));
#1454=CARTESIAN_POINT('Origin',(0.,-16.,-16.));
#1455=CARTESIAN_POINT('',(0.,-18.,-16.));
#1456=CARTESIAN_POINT('Origin',(0.,-16.,-16.));
#1457=CARTESIAN_POINT('',(0.,-18.,-16.));
#1458=CARTESIAN_POINT('Origin',(0.,-18.,16.));
#1459=CARTESIAN_POINT('',(0.,-18.,16.));
#1460=CARTESIAN_POINT('',(0.,-18.,-16.));
#1461=CARTESIAN_POINT('',(0.,-18.,16.));
#1462=CARTESIAN_POINT('Origin',(0.,-16.,16.));
#1463=CARTESIAN_POINT('',(0.,-16.,18.));
#1464=CARTESIAN_POINT('Origin',(0.,-16.,16.));
#1465=CARTESIAN_POINT('',(0.,-16.,18.));
#1466=CARTESIAN_POINT('Origin',(0.,16.,18.));
#1467=CARTESIAN_POINT('',(0.,16.,18.));
#1468=CARTESIAN_POINT('',(0.,-16.,18.));
#1469=CARTESIAN_POINT('',(0.,16.,18.));
#1470=CARTESIAN_POINT('Origin',(0.,16.,16.));
#1471=CARTESIAN_POINT('',(0.,18.,16.));
#1472=CARTESIAN_POINT('Origin',(0.,16.,16.));
#1473=CARTESIAN_POINT('',(0.,18.,16.));
#1474=CARTESIAN_POINT('Origin',(0.,18.,-16.));
#1475=CARTESIAN_POINT('',(0.,18.,-16.));
#1476=CARTESIAN_POINT('',(0.,18.,16.));
#1477=CARTESIAN_POINT('',(0.,18.,-16.));
#1478=CARTESIAN_POINT('Origin',(0.,16.,-16.));
#1479=CARTESIAN_POINT('Origin',(0.,16.,-16.));
#1480=CARTESIAN_POINT('Origin',(0.,2.22044604925031E-15,0.));
#1481=UNCERTAINTY_MEASURE_WITH_UNIT(LENGTH_MEASURE(0.01),#1485,
'DISTANCE_ACCURACY_VALUE',
'Maximum model space distance between geometric entities at asserted c
onnectivities');
#1482=UNCERTAINTY_MEASURE_WITH_UNIT(LENGTH_MEASURE(0.01),#1485,
'DISTANCE_ACCURACY_VALUE',
'Maximum model space distance between geometric entities at asserted c
onnectivities');
#1483=(
GEOMETRIC_REPRESENTATION_CONTEXT(3)
GLOBAL_UNCERTAINTY_ASSIGNED_CONTEXT((#1481))
GLOBAL_UNIT_ASSIGNED_CONTEXT((#1485,#1487,#1488))
REPRESENTATION_CONTEXT('','3D')
);
#1484=(
GEOMETRIC_REPRESENTATION_CONTEXT(3)
GLOBAL_UNCERTAINTY_ASSIGNED_CONTEXT((#1482))
GLOBAL_UNIT_ASSIGNED_CONTEXT((#1485,#1487,#1488))
REPRESENTATION_CONTEXT('','3D')
);
#1485=(
LENGTH_UNIT()
NAMED_UNIT(*)
SI_UNIT(.MILLI.,.METRE.)
);
#1486=(
LENGTH_UNIT()
NAMED_UNIT(*)
SI_UNIT($,.METRE.)
);
#1487=(
NAMED_UNIT(*)
PLANE_ANGLE_UNIT()
SI_UNIT($,.RADIAN.)
);
#1488=(
NAMED_UNIT(*)
SI_UNIT($,.STERADIAN.)
SOLID_ANGLE_UNIT()
);
#1489=SHAPE_DEFINITION_REPRESENTATION(#1490,#1491);
#1490=PRODUCT_DEFINITION_SHAPE('',$,#1493);
#1491=SHAPE_REPRESENTATION('',(#889),#1483);
#1492=PRODUCT_DEFINITION_CONTEXT('part definition',#1497,'design');
#1493=PRODUCT_DEFINITION('Distribution Board','Distribution Board v3',#1494,
#1492);
#1494=PRODUCT_DEFINITION_FORMATION('',$,#1499);
#1495=PRODUCT_RELATED_PRODUCT_CATEGORY('Distribution Board v3',
'Distribution Board v3',(#1499));
#1496=APPLICATION_PROTOCOL_DEFINITION('international standard',
'automotive_design',2009,#1497);
#1497=APPLICATION_CONTEXT(
'Core Data for Automotive Mechanical Design Process');
#1498=PRODUCT_CONTEXT('part definition',#1497,'mechanical');
#1499=PRODUCT('Distribution Board','Distribution Board v3',$,(#1498));
#1500=PRESENTATION_STYLE_ASSIGNMENT((#1502));
#1501=PRESENTATION_STYLE_ASSIGNMENT((#1503));
#1502=SURFACE_STYLE_USAGE(.BOTH.,#1504);
#1503=SURFACE_STYLE_USAGE(.BOTH.,#1505);
#1504=SURFACE_SIDE_STYLE('',(#1506));
#1505=SURFACE_SIDE_STYLE('',(#1507));
#1506=SURFACE_STYLE_FILL_AREA(#1508);
#1507=SURFACE_STYLE_FILL_AREA(#1509);
#1508=FILL_AREA_STYLE('Steel - Satin',(#1510));
#1509=FILL_AREA_STYLE('Paint - Metallic (Silver)',(#1511));
#1510=FILL_AREA_STYLE_COLOUR('Steel - Satin',#1512);
#1511=FILL_AREA_STYLE_COLOUR('Paint - Metallic (Silver)',#1513);
#1512=COLOUR_RGB('Steel - Satin',0.627450980392157,0.627450980392157,0.627450980392157);
#1513=COLOUR_RGB('Paint - Metallic (Silver)',0.984313725490196,0.980392156862745,
0.96078431372549);
ENDSEC;
END-ISO-10303-21;
