ISO-10303-21;
HEADER;
/* Generated by software containing ST-Developer
 * from STEP Tools, Inc. (www.steptools.com) 
 */

FILE_DESCRIPTION(
/* description */ (''),
/* implementation_level */ '2;1');

FILE_NAME(
/* name */ 'Elecrical Connector.step',
/* time_stamp */ '2026-07-19T11:30:38+05:30',
/* author */ (''),
/* organization */ (''),
/* preprocessor_version */ 'ST-DEVELOPER v20.1',
/* originating_system */ 'Autodesk Translation Framework v15.8.0.0',
/* authorisation */ '');

FILE_SCHEMA (('AUTOMOTIVE_DESIGN { 1 0 10303 214 3 1 1 }'));
ENDSEC;

DATA;
#10=MECHANICAL_DESIGN_GEOMETRIC_PRESENTATION_REPRESENTATION('',(#794,#795,
#796,#797,#798,#799,#800,#801,#802,#803,#804,#805,#806,#807,#808,#809,#810,
#811,#812,#813,#814),#1529);
#11=SHAPE_REPRESENTATION_RELATIONSHIP('SRR','None',#1536,#12);
#12=ADVANCED_BREP_SHAPE_REPRESENTATION('',(#13),#1528);
#13=MANIFOLD_SOLID_BREP('Body1',#871);
#14=SPHERICAL_SURFACE('',#954,2.);
#15=SPHERICAL_SURFACE('',#959,2.);
#16=SPHERICAL_SURFACE('',#964,2.);
#17=SPHERICAL_SURFACE('',#966,2.);
#18=SPHERICAL_SURFACE('',#981,2.);
#19=SPHERICAL_SURFACE('',#986,2.);
#20=SPHERICAL_SURFACE('',#990,2.);
#21=SPHERICAL_SURFACE('',#991,2.);
#22=FACE_BOUND('',#171,.T.);
#23=FACE_BOUND('',#177,.T.);
#24=FACE_BOUND('',#184,.T.);
#25=FACE_BOUND('',#186,.T.);
#26=FACE_BOUND('',#191,.T.);
#27=FACE_BOUND('',#196,.T.);
#28=CIRCLE('',#892,1.1);
#29=CIRCLE('',#893,1.1);
#30=CIRCLE('',#895,1.5);
#31=CIRCLE('',#896,1.5);
#32=CIRCLE('',#897,1.5);
#33=CIRCLE('',#898,1.5);
#34=CIRCLE('',#902,1.5);
#35=CIRCLE('',#904,1.1);
#36=CIRCLE('',#905,1.1);
#37=CIRCLE('',#907,1.5);
#38=CIRCLE('',#908,1.5);
#39=CIRCLE('',#909,1.5);
#40=CIRCLE('',#914,1.10710668108713);
#41=CIRCLE('',#915,0.707106828601106);
#42=CIRCLE('',#917,0.707106828601106);
#43=CIRCLE('',#918,0.707106828601106);
#44=CIRCLE('',#919,0.707106828601106);
#45=CIRCLE('',#921,1.10710668108713);
#46=CIRCLE('',#922,1.10710668108713);
#47=CIRCLE('',#923,1.10710668108713);
#48=CIRCLE('',#926,1.10710668108713);
#49=CIRCLE('',#927,1.10710668108713);
#50=CIRCLE('',#930,0.707106754844114);
#51=CIRCLE('',#931,0.707106754844114);
#52=CIRCLE('',#933,1.10710668108713);
#53=CIRCLE('',#936,1.10710668108713);
#54=CIRCLE('',#937,1.10710668108713);
#55=CIRCLE('',#938,0.70710668108713);
#56=CIRCLE('',#939,0.70710668108713);
#57=CIRCLE('',#941,0.70710668108713);
#58=CIRCLE('',#942,0.70710668108713);
#59=CIRCLE('',#944,1.10710668108713);
#60=CIRCLE('',#949,2.);
#61=CIRCLE('',#950,2.);
#62=CIRCLE('',#952,2.);
#63=CIRCLE('',#953,2.);
#64=CIRCLE('',#955,2.);
#65=CIRCLE('',#957,2.);
#66=CIRCLE('',#958,2.);
#67=CIRCLE('',#960,2.);
#68=CIRCLE('',#962,2.);
#69=CIRCLE('',#963,2.);
#70=CIRCLE('',#965,2.);
#71=CIRCLE('',#967,2.);
#72=CIRCLE('',#969,2.);
#73=CIRCLE('',#972,2.);
#74=CIRCLE('',#976,2.);
#75=CIRCLE('',#977,2.);
#76=CIRCLE('',#979,2.);
#77=CIRCLE('',#980,2.);
#78=CIRCLE('',#982,2.);
#79=CIRCLE('',#984,2.);
#80=CIRCLE('',#985,2.);
#81=CIRCLE('',#988,2.);
#82=CIRCLE('',#989,2.);
#83=CIRCLE('',#992,2.);
#84=CYLINDRICAL_SURFACE('',#891,1.1);
#85=CYLINDRICAL_SURFACE('',#894,1.5);
#86=CYLINDRICAL_SURFACE('',#903,1.1);
#87=CYLINDRICAL_SURFACE('',#906,1.5);
#88=CYLINDRICAL_SURFACE('',#916,0.707106828601106);
#89=CYLINDRICAL_SURFACE('',#920,1.10710668108713);
#90=CYLINDRICAL_SURFACE('',#929,0.707106754844114);
#91=CYLINDRICAL_SURFACE('',#932,1.10710668108713);
#92=CYLINDRICAL_SURFACE('',#940,0.70710668108713);
#93=CYLINDRICAL_SURFACE('',#943,1.10710668108713);
#94=CYLINDRICAL_SURFACE('',#948,2.);
#95=CYLINDRICAL_SURFACE('',#951,2.);
#96=CYLINDRICAL_SURFACE('',#956,2.);
#97=CYLINDRICAL_SURFACE('',#961,2.);
#98=CYLINDRICAL_SURFACE('',#968,2.);
#99=CYLINDRICAL_SURFACE('',#971,2.);
#100=CYLINDRICAL_SURFACE('',#975,2.);
#101=CYLINDRICAL_SURFACE('',#978,2.);
#102=CYLINDRICAL_SURFACE('',#983,2.);
#103=CYLINDRICAL_SURFACE('',#987,2.);
#104=CYLINDRICAL_SURFACE('',#993,2.);
#105=CYLINDRICAL_SURFACE('',#995,2.);
#106=FACE_OUTER_BOUND('',#162,.T.);
#107=FACE_OUTER_BOUND('',#163,.T.);
#108=FACE_OUTER_BOUND('',#164,.T.);
#109=FACE_OUTER_BOUND('',#165,.T.);
#110=FACE_OUTER_BOUND('',#166,.T.);
#111=FACE_OUTER_BOUND('',#167,.T.);
#112=FACE_OUTER_BOUND('',#168,.T.);
#113=FACE_OUTER_BOUND('',#169,.T.);
#114=FACE_OUTER_BOUND('',#170,.T.);
#115=FACE_OUTER_BOUND('',#172,.T.);
#116=FACE_OUTER_BOUND('',#173,.T.);
#117=FACE_OUTER_BOUND('',#174,.T.);
#118=FACE_OUTER_BOUND('',#175,.T.);
#119=FACE_OUTER_BOUND('',#176,.T.);
#120=FACE_OUTER_BOUND('',#178,.T.);
#121=FACE_OUTER_BOUND('',#179,.T.);
#122=FACE_OUTER_BOUND('',#180,.T.);
#123=FACE_OUTER_BOUND('',#181,.T.);
#124=FACE_OUTER_BOUND('',#182,.T.);
#125=FACE_OUTER_BOUND('',#183,.T.);
#126=FACE_OUTER_BOUND('',#185,.T.);
#127=FACE_OUTER_BOUND('',#187,.T.);
#128=FACE_OUTER_BOUND('',#188,.T.);
#129=FACE_OUTER_BOUND('',#189,.T.);
#130=FACE_OUTER_BOUND('',#190,.T.);
#131=FACE_OUTER_BOUND('',#192,.T.);
#132=FACE_OUTER_BOUND('',#193,.T.);
#133=FACE_OUTER_BOUND('',#194,.T.);
#134=FACE_OUTER_BOUND('',#195,.T.);
#135=FACE_OUTER_BOUND('',#197,.T.);
#136=FACE_OUTER_BOUND('',#198,.T.);
#137=FACE_OUTER_BOUND('',#199,.T.);
#138=FACE_OUTER_BOUND('',#200,.T.);
#139=FACE_OUTER_BOUND('',#201,.T.);
#140=FACE_OUTER_BOUND('',#202,.T.);
#141=FACE_OUTER_BOUND('',#203,.T.);
#142=FACE_OUTER_BOUND('',#204,.T.);
#143=FACE_OUTER_BOUND('',#205,.T.);
#144=FACE_OUTER_BOUND('',#206,.T.);
#145=FACE_OUTER_BOUND('',#207,.T.);
#146=FACE_OUTER_BOUND('',#208,.T.);
#147=FACE_OUTER_BOUND('',#209,.T.);
#148=FACE_OUTER_BOUND('',#210,.T.);
#149=FACE_OUTER_BOUND('',#211,.T.);
#150=FACE_OUTER_BOUND('',#212,.T.);
#151=FACE_OUTER_BOUND('',#213,.T.);
#152=FACE_OUTER_BOUND('',#214,.T.);
#153=FACE_OUTER_BOUND('',#215,.T.);
#154=FACE_OUTER_BOUND('',#216,.T.);
#155=FACE_OUTER_BOUND('',#217,.T.);
#156=FACE_OUTER_BOUND('',#218,.T.);
#157=FACE_OUTER_BOUND('',#219,.T.);
#158=FACE_OUTER_BOUND('',#220,.T.);
#159=FACE_OUTER_BOUND('',#221,.T.);
#160=FACE_OUTER_BOUND('',#222,.T.);
#161=FACE_OUTER_BOUND('',#223,.T.);
#162=EDGE_LOOP('',(#532,#533,#534,#535));
#163=EDGE_LOOP('',(#536,#537,#538,#539,#540));
#164=EDGE_LOOP('',(#541,#542,#543,#544));
#165=EDGE_LOOP('',(#545,#546,#547,#548,#549));
#166=EDGE_LOOP('',(#550,#551,#552,#553));
#167=EDGE_LOOP('',(#554,#555,#556,#557));
#168=EDGE_LOOP('',(#558,#559,#560,#561));
#169=EDGE_LOOP('',(#562,#563,#564,#565,#566,#567));
#170=EDGE_LOOP('',(#568));
#171=EDGE_LOOP('',(#569));
#172=EDGE_LOOP('',(#570,#571,#572,#573,#574,#575,#576,#577));
#173=EDGE_LOOP('',(#578,#579,#580,#581,#582));
#174=EDGE_LOOP('',(#583,#584,#585,#586));
#175=EDGE_LOOP('',(#587,#588,#589,#590,#591,#592));
#176=EDGE_LOOP('',(#593));
#177=EDGE_LOOP('',(#594));
#178=EDGE_LOOP('',(#595));
#179=EDGE_LOOP('',(#596,#597,#598,#599,#600));
#180=EDGE_LOOP('',(#601,#602,#603,#604));
#181=EDGE_LOOP('',(#605,#606,#607,#608,#609,#610));
#182=EDGE_LOOP('',(#611,#612,#613,#614,#615,#616));
#183=EDGE_LOOP('',(#617));
#184=EDGE_LOOP('',(#618));
#185=EDGE_LOOP('',(#619,#620,#621,#622,#623,#624,#625,#626,#627));
#186=EDGE_LOOP('',(#628));
#187=EDGE_LOOP('',(#629,#630,#631));
#188=EDGE_LOOP('',(#632,#633,#634,#635));
#189=EDGE_LOOP('',(#636,#637,#638,#639));
#190=EDGE_LOOP('',(#640));
#191=EDGE_LOOP('',(#641));
#192=EDGE_LOOP('',(#642,#643,#644,#645,#646,#647));
#193=EDGE_LOOP('',(#648,#649,#650,#651,#652,#653));
#194=EDGE_LOOP('',(#654,#655,#656,#657,#658,#659));
#195=EDGE_LOOP('',(#660));
#196=EDGE_LOOP('',(#661));
#197=EDGE_LOOP('',(#662));
#198=EDGE_LOOP('',(#663,#664));
#199=EDGE_LOOP('',(#665,#666,#667,#668));
#200=EDGE_LOOP('',(#669,#670,#671,#672));
#201=EDGE_LOOP('',(#673,#674,#675));
#202=EDGE_LOOP('',(#676,#677,#678,#679));
#203=EDGE_LOOP('',(#680,#681,#682));
#204=EDGE_LOOP('',(#683,#684,#685,#686,#687,#688));
#205=EDGE_LOOP('',(#689,#690,#691));
#206=EDGE_LOOP('',(#692,#693,#694));
#207=EDGE_LOOP('',(#695,#696,#697,#698,#699,#700,#701,#702));
#208=EDGE_LOOP('',(#703,#704,#705,#706));
#209=EDGE_LOOP('',(#707,#708,#709,#710));
#210=EDGE_LOOP('',(#711));
#211=EDGE_LOOP('',(#712,#713,#714,#715));
#212=EDGE_LOOP('',(#716,#717,#718,#719));
#213=EDGE_LOOP('',(#720,#721,#722,#723));
#214=EDGE_LOOP('',(#724,#725,#726));
#215=EDGE_LOOP('',(#727,#728,#729,#730));
#216=EDGE_LOOP('',(#731,#732,#733));
#217=EDGE_LOOP('',(#734,#735,#736,#737,#738,#739));
#218=EDGE_LOOP('',(#740,#741,#742));
#219=EDGE_LOOP('',(#743,#744,#745));
#220=EDGE_LOOP('',(#746,#747,#748,#749,#750,#751,#752,#753));
#221=EDGE_LOOP('',(#754,#755,#756,#757));
#222=EDGE_LOOP('',(#758,#759,#760,#761,#762,#763));
#223=EDGE_LOOP('',(#764,#765,#766,#767));
#224=LINE('',#1289,#286);
#225=LINE('',#1291,#287);
#226=LINE('',#1293,#288);
#227=LINE('',#1294,#289);
#228=LINE('',#1297,#290);
#229=LINE('',#1299,#291);
#230=LINE('',#1301,#292);
#231=LINE('',#1302,#293);
#232=LINE('',#1305,#294);
#233=LINE('',#1307,#295);
#234=LINE('',#1308,#296);
#235=LINE('',#1311,#297);
#236=LINE('',#1312,#298);
#237=LINE('',#1313,#299);
#238=LINE('',#1316,#300);
#239=LINE('',#1321,#301);
#240=LINE('',#1327,#302);
#241=LINE('',#1336,#303);
#242=LINE('',#1337,#304);
#243=LINE('',#1339,#305);
#244=LINE('',#1340,#306);
#245=LINE('',#1343,#307);
#246=LINE('',#1346,#308);
#247=LINE('',#1351,#309);
#248=LINE('',#1357,#310);
#249=LINE('',#1364,#311);
#250=LINE('',#1366,#312);
#251=LINE('',#1367,#313);
#252=LINE('',#1371,#314);
#253=LINE('',#1375,#315);
#254=LINE('',#1381,#316);
#255=LINE('',#1388,#317);
#256=LINE('',#1394,#318);
#257=LINE('',#1396,#319);
#258=LINE('',#1398,#320);
#259=LINE('',#1402,#321);
#260=LINE('',#1404,#322);
#261=LINE('',#1405,#323);
#262=LINE('',#1409,#324);
#263=LINE('',#1414,#325);
#264=LINE('',#1419,#326);
#265=LINE('',#1423,#327);
#266=LINE('',#1428,#328);
#267=LINE('',#1435,#329);
#268=LINE('',#1440,#330);
#269=LINE('',#1444,#331);
#270=LINE('',#1450,#332);
#271=LINE('',#1453,#333);
#272=LINE('',#1458,#334);
#273=LINE('',#1466,#335);
#274=LINE('',#1468,#336);
#275=LINE('',#1474,#337);
#276=LINE('',#1481,#338);
#277=LINE('',#1485,#339);
#278=LINE('',#1486,#340);
#279=LINE('',#1496,#341);
#280=LINE('',#1499,#342);
#281=LINE('',#1504,#343);
#282=LINE('',#1511,#344);
#283=LINE('',#1516,#345);
#284=LINE('',#1521,#346);
#285=LINE('',#1523,#347);
#286=VECTOR('',#1001,10.);
#287=VECTOR('',#1002,10.);
#288=VECTOR('',#1003,10.);
#289=VECTOR('',#1004,10.);
#290=VECTOR('',#1007,10.);
#291=VECTOR('',#1008,10.);
#292=VECTOR('',#1009,10.);
#293=VECTOR('',#1010,10.);
#294=VECTOR('',#1013,10.);
#295=VECTOR('',#1014,10.);
#296=VECTOR('',#1015,10.);
#297=VECTOR('',#1018,10.);
#298=VECTOR('',#1019,10.);
#299=VECTOR('',#1020,10.);
#300=VECTOR('',#1025,10.);
#301=VECTOR('',#1030,1.1);
#302=VECTOR('',#1037,1.5);
#303=VECTOR('',#1048,10.);
#304=VECTOR('',#1049,10.);
#305=VECTOR('',#1050,10.);
#306=VECTOR('',#1051,10.);
#307=VECTOR('',#1054,10.);
#308=VECTOR('',#1057,10.);
#309=VECTOR('',#1062,1.1);
#310=VECTOR('',#1069,1.5);
#311=VECTOR('',#1080,10.);
#312=VECTOR('',#1081,10.);
#313=VECTOR('',#1082,10.);
#314=VECTOR('',#1085,10.);
#315=VECTOR('',#1088,10.);
#316=VECTOR('',#1095,0.707106828601106);
#317=VECTOR('',#1104,1.10710668108713);
#318=VECTOR('',#1113,10.);
#319=VECTOR('',#1114,10.);
#320=VECTOR('',#1115,10.);
#321=VECTOR('',#1118,10.);
#322=VECTOR('',#1119,10.);
#323=VECTOR('',#1120,10.);
#324=VECTOR('',#1125,10.);
#325=VECTOR('',#1130,0.707106754844114);
#326=VECTOR('',#1137,1.10710668108713);
#327=VECTOR('',#1142,10.);
#328=VECTOR('',#1147,10.);
#329=VECTOR('',#1156,0.70710668108713);
#330=VECTOR('',#1163,1.10710668108713);
#331=VECTOR('',#1170,10.);
#332=VECTOR('',#1175,10.);
#333=VECTOR('',#1178,10.);
#334=VECTOR('',#1185,10.);
#335=VECTOR('',#1194,10.);
#336=VECTOR('',#1197,10.);
#337=VECTOR('',#1208,10.);
#338=VECTOR('',#1219,10.);
#339=VECTOR('',#1224,10.);
#340=VECTOR('',#1225,10.);
#341=VECTOR('',#1238,10.);
#342=VECTOR('',#1241,10.);
#343=VECTOR('',#1248,10.);
#344=VECTOR('',#1259,10.);
#345=VECTOR('',#1268,10.);
#346=VECTOR('',#1277,10.);
#347=VECTOR('',#1280,10.);
#348=VERTEX_POINT('',#1287);
#349=VERTEX_POINT('',#1288);
#350=VERTEX_POINT('',#1290);
#351=VERTEX_POINT('',#1292);
#352=VERTEX_POINT('',#1296);
#353=VERTEX_POINT('',#1298);
#354=VERTEX_POINT('',#1300);
#355=VERTEX_POINT('',#1304);
#356=VERTEX_POINT('',#1306);
#357=VERTEX_POINT('',#1310);
#358=VERTEX_POINT('',#1318);
#359=VERTEX_POINT('',#1320);
#360=VERTEX_POINT('',#1324);
#361=VERTEX_POINT('',#1326);
#362=VERTEX_POINT('',#1328);
#363=VERTEX_POINT('',#1330);
#364=VERTEX_POINT('',#1335);
#365=VERTEX_POINT('',#1338);
#366=VERTEX_POINT('',#1342);
#367=VERTEX_POINT('',#1344);
#368=VERTEX_POINT('',#1348);
#369=VERTEX_POINT('',#1350);
#370=VERTEX_POINT('',#1354);
#371=VERTEX_POINT('',#1356);
#372=VERTEX_POINT('',#1363);
#373=VERTEX_POINT('',#1365);
#374=VERTEX_POINT('',#1369);
#375=VERTEX_POINT('',#1370);
#376=VERTEX_POINT('',#1372);
#377=VERTEX_POINT('',#1374);
#378=VERTEX_POINT('',#1378);
#379=VERTEX_POINT('',#1380);
#380=VERTEX_POINT('',#1385);
#381=VERTEX_POINT('',#1387);
#382=VERTEX_POINT('',#1393);
#383=VERTEX_POINT('',#1395);
#384=VERTEX_POINT('',#1397);
#385=VERTEX_POINT('',#1399);
#386=VERTEX_POINT('',#1401);
#387=VERTEX_POINT('',#1403);
#388=VERTEX_POINT('',#1406);
#389=VERTEX_POINT('',#1411);
#390=VERTEX_POINT('',#1413);
#391=VERTEX_POINT('',#1417);
#392=VERTEX_POINT('',#1422);
#393=VERTEX_POINT('',#1424);
#394=VERTEX_POINT('',#1427);
#395=VERTEX_POINT('',#1429);
#396=VERTEX_POINT('',#1433);
#397=VERTEX_POINT('',#1438);
#398=VERTEX_POINT('',#1446);
#399=VERTEX_POINT('',#1447);
#400=VERTEX_POINT('',#1449);
#401=VERTEX_POINT('',#1451);
#402=VERTEX_POINT('',#1455);
#403=VERTEX_POINT('',#1462);
#404=VERTEX_POINT('',#1463);
#405=VERTEX_POINT('',#1465);
#406=VERTEX_POINT('',#1480);
#407=VERTEX_POINT('',#1484);
#408=VERTEX_POINT('',#1492);
#409=VERTEX_POINT('',#1493);
#410=VERTEX_POINT('',#1495);
#411=VERTEX_POINT('',#1497);
#412=VERTEX_POINT('',#1502);
#413=VERTEX_POINT('',#1509);
#414=EDGE_CURVE('',#348,#349,#224,.T.);
#415=EDGE_CURVE('',#348,#350,#225,.T.);
#416=EDGE_CURVE('',#351,#350,#226,.T.);
#417=EDGE_CURVE('',#349,#351,#227,.T.);
#418=EDGE_CURVE('',#349,#352,#228,.T.);
#419=EDGE_CURVE('',#353,#351,#229,.T.);
#420=EDGE_CURVE('',#354,#353,#230,.T.);
#421=EDGE_CURVE('',#352,#354,#231,.T.);
#422=EDGE_CURVE('',#354,#355,#232,.T.);
#423=EDGE_CURVE('',#356,#353,#233,.T.);
#424=EDGE_CURVE('',#355,#356,#234,.T.);
#425=EDGE_CURVE('',#355,#357,#235,.T.);
#426=EDGE_CURVE('',#350,#356,#236,.T.);
#427=EDGE_CURVE('',#357,#348,#237,.T.);
#428=EDGE_CURVE('',#357,#352,#238,.T.);
#429=EDGE_CURVE('',#358,#358,#28,.T.);
#430=EDGE_CURVE('',#358,#359,#239,.T.);
#431=EDGE_CURVE('',#359,#359,#29,.T.);
#432=EDGE_CURVE('',#360,#360,#30,.T.);
#433=EDGE_CURVE('',#360,#361,#240,.T.);
#434=EDGE_CURVE('',#362,#361,#31,.T.);
#435=EDGE_CURVE('',#363,#362,#32,.T.);
#436=EDGE_CURVE('',#361,#363,#33,.T.);
#437=EDGE_CURVE('',#352,#364,#241,.T.);
#438=EDGE_CURVE('',#363,#364,#242,.T.);
#439=EDGE_CURVE('',#365,#362,#243,.T.);
#440=EDGE_CURVE('',#365,#357,#244,.T.);
#441=EDGE_CURVE('',#366,#363,#245,.T.);
#442=EDGE_CURVE('',#366,#367,#34,.T.);
#443=EDGE_CURVE('',#362,#367,#246,.T.);
#444=EDGE_CURVE('',#368,#368,#35,.T.);
#445=EDGE_CURVE('',#368,#369,#247,.T.);
#446=EDGE_CURVE('',#369,#369,#36,.T.);
#447=EDGE_CURVE('',#370,#370,#37,.T.);
#448=EDGE_CURVE('',#370,#371,#248,.T.);
#449=EDGE_CURVE('',#367,#371,#38,.T.);
#450=EDGE_CURVE('',#371,#366,#39,.T.);
#451=EDGE_CURVE('',#372,#366,#249,.T.);
#452=EDGE_CURVE('',#373,#372,#250,.T.);
#453=EDGE_CURVE('',#367,#373,#251,.T.);
#454=EDGE_CURVE('',#374,#375,#252,.T.);
#455=EDGE_CURVE('',#376,#375,#40,.T.);
#456=EDGE_CURVE('',#376,#377,#253,.T.);
#457=EDGE_CURVE('',#374,#377,#41,.T.);
#458=EDGE_CURVE('',#378,#378,#42,.T.);
#459=EDGE_CURVE('',#378,#379,#254,.T.);
#460=EDGE_CURVE('',#374,#379,#43,.T.);
#461=EDGE_CURVE('',#379,#377,#44,.T.);
#462=EDGE_CURVE('',#380,#380,#45,.T.);
#463=EDGE_CURVE('',#380,#381,#255,.T.);
#464=EDGE_CURVE('',#376,#381,#46,.T.);
#465=EDGE_CURVE('',#381,#375,#47,.T.);
#466=EDGE_CURVE('',#375,#382,#256,.T.);
#467=EDGE_CURVE('',#383,#382,#257,.T.);
#468=EDGE_CURVE('',#384,#383,#258,.T.);
#469=EDGE_CURVE('',#384,#385,#48,.T.);
#470=EDGE_CURVE('',#386,#385,#259,.T.);
#471=EDGE_CURVE('',#387,#386,#260,.T.);
#472=EDGE_CURVE('',#387,#376,#261,.T.);
#473=EDGE_CURVE('',#388,#388,#49,.T.);
#474=EDGE_CURVE('',#377,#374,#262,.T.);
#475=EDGE_CURVE('',#389,#389,#50,.T.);
#476=EDGE_CURVE('',#389,#390,#263,.T.);
#477=EDGE_CURVE('',#390,#390,#51,.T.);
#478=EDGE_CURVE('',#391,#391,#52,.T.);
#479=EDGE_CURVE('',#391,#388,#264,.T.);
#480=EDGE_CURVE('',#385,#392,#265,.T.);
#481=EDGE_CURVE('',#393,#385,#53,.T.);
#482=EDGE_CURVE('',#384,#393,#54,.T.);
#483=EDGE_CURVE('',#394,#384,#266,.T.);
#484=EDGE_CURVE('',#395,#394,#55,.T.);
#485=EDGE_CURVE('',#392,#395,#56,.T.);
#486=EDGE_CURVE('',#396,#396,#57,.T.);
#487=EDGE_CURVE('',#396,#395,#267,.T.);
#488=EDGE_CURVE('',#392,#394,#58,.T.);
#489=EDGE_CURVE('',#397,#397,#59,.T.);
#490=EDGE_CURVE('',#397,#393,#268,.T.);
#491=EDGE_CURVE('',#392,#394,#269,.T.);
#492=EDGE_CURVE('',#398,#399,#60,.T.);
#493=EDGE_CURVE('',#399,#400,#270,.T.);
#494=EDGE_CURVE('',#400,#401,#61,.T.);
#495=EDGE_CURVE('',#401,#398,#271,.T.);
#496=EDGE_CURVE('',#402,#387,#62,.T.);
#497=EDGE_CURVE('',#386,#398,#63,.T.);
#498=EDGE_CURVE('',#398,#402,#272,.T.);
#499=EDGE_CURVE('',#386,#399,#64,.T.);
#500=EDGE_CURVE('',#403,#404,#65,.T.);
#501=EDGE_CURVE('',#404,#405,#273,.T.);
#502=EDGE_CURVE('',#405,#402,#66,.T.);
#503=EDGE_CURVE('',#402,#403,#274,.T.);
#504=EDGE_CURVE('',#405,#387,#67,.T.);
#505=EDGE_CURVE('',#401,#365,#68,.T.);
#506=EDGE_CURVE('',#373,#403,#69,.T.);
#507=EDGE_CURVE('',#403,#401,#275,.T.);
#508=EDGE_CURVE('',#373,#404,#70,.T.);
#509=EDGE_CURVE('',#400,#365,#71,.T.);
#510=EDGE_CURVE('',#405,#406,#276,.T.);
#511=EDGE_CURVE('',#382,#406,#72,.T.);
#512=EDGE_CURVE('',#404,#407,#277,.T.);
#513=EDGE_CURVE('',#406,#407,#278,.T.);
#514=EDGE_CURVE('',#407,#372,#73,.T.);
#515=EDGE_CURVE('',#408,#409,#74,.T.);
#516=EDGE_CURVE('',#409,#410,#279,.T.);
#517=EDGE_CURVE('',#410,#411,#75,.T.);
#518=EDGE_CURVE('',#411,#408,#280,.T.);
#519=EDGE_CURVE('',#411,#383,#76,.T.);
#520=EDGE_CURVE('',#382,#412,#77,.T.);
#521=EDGE_CURVE('',#412,#411,#281,.T.);
#522=EDGE_CURVE('',#410,#383,#78,.T.);
#523=EDGE_CURVE('',#412,#406,#79,.T.);
#524=EDGE_CURVE('',#407,#413,#80,.T.);
#525=EDGE_CURVE('',#413,#412,#282,.T.);
#526=EDGE_CURVE('',#413,#372,#81,.T.);
#527=EDGE_CURVE('',#364,#408,#82,.T.);
#528=EDGE_CURVE('',#408,#413,#283,.T.);
#529=EDGE_CURVE('',#364,#409,#83,.T.);
#530=EDGE_CURVE('',#399,#410,#284,.T.);
#531=EDGE_CURVE('',#400,#409,#285,.T.);
#532=ORIENTED_EDGE('',*,*,#414,.F.);
#533=ORIENTED_EDGE('',*,*,#415,.T.);
#534=ORIENTED_EDGE('',*,*,#416,.F.);
#535=ORIENTED_EDGE('',*,*,#417,.F.);
#536=ORIENTED_EDGE('',*,*,#418,.F.);
#537=ORIENTED_EDGE('',*,*,#417,.T.);
#538=ORIENTED_EDGE('',*,*,#419,.F.);
#539=ORIENTED_EDGE('',*,*,#420,.F.);
#540=ORIENTED_EDGE('',*,*,#421,.F.);
#541=ORIENTED_EDGE('',*,*,#422,.F.);
#542=ORIENTED_EDGE('',*,*,#420,.T.);
#543=ORIENTED_EDGE('',*,*,#423,.F.);
#544=ORIENTED_EDGE('',*,*,#424,.F.);
#545=ORIENTED_EDGE('',*,*,#425,.F.);
#546=ORIENTED_EDGE('',*,*,#424,.T.);
#547=ORIENTED_EDGE('',*,*,#426,.F.);
#548=ORIENTED_EDGE('',*,*,#415,.F.);
#549=ORIENTED_EDGE('',*,*,#427,.F.);
#550=ORIENTED_EDGE('',*,*,#426,.T.);
#551=ORIENTED_EDGE('',*,*,#423,.T.);
#552=ORIENTED_EDGE('',*,*,#419,.T.);
#553=ORIENTED_EDGE('',*,*,#416,.T.);
#554=ORIENTED_EDGE('',*,*,#428,.T.);
#555=ORIENTED_EDGE('',*,*,#421,.T.);
#556=ORIENTED_EDGE('',*,*,#422,.T.);
#557=ORIENTED_EDGE('',*,*,#425,.T.);
#558=ORIENTED_EDGE('',*,*,#429,.F.);
#559=ORIENTED_EDGE('',*,*,#430,.T.);
#560=ORIENTED_EDGE('',*,*,#431,.F.);
#561=ORIENTED_EDGE('',*,*,#430,.F.);
#562=ORIENTED_EDGE('',*,*,#432,.F.);
#563=ORIENTED_EDGE('',*,*,#433,.T.);
#564=ORIENTED_EDGE('',*,*,#434,.F.);
#565=ORIENTED_EDGE('',*,*,#435,.F.);
#566=ORIENTED_EDGE('',*,*,#436,.F.);
#567=ORIENTED_EDGE('',*,*,#433,.F.);
#568=ORIENTED_EDGE('',*,*,#432,.T.);
#569=ORIENTED_EDGE('',*,*,#429,.T.);
#570=ORIENTED_EDGE('',*,*,#418,.T.);
#571=ORIENTED_EDGE('',*,*,#437,.T.);
#572=ORIENTED_EDGE('',*,*,#438,.F.);
#573=ORIENTED_EDGE('',*,*,#435,.T.);
#574=ORIENTED_EDGE('',*,*,#439,.F.);
#575=ORIENTED_EDGE('',*,*,#440,.T.);
#576=ORIENTED_EDGE('',*,*,#427,.T.);
#577=ORIENTED_EDGE('',*,*,#414,.T.);
#578=ORIENTED_EDGE('',*,*,#434,.T.);
#579=ORIENTED_EDGE('',*,*,#436,.T.);
#580=ORIENTED_EDGE('',*,*,#441,.F.);
#581=ORIENTED_EDGE('',*,*,#442,.T.);
#582=ORIENTED_EDGE('',*,*,#443,.F.);
#583=ORIENTED_EDGE('',*,*,#444,.F.);
#584=ORIENTED_EDGE('',*,*,#445,.T.);
#585=ORIENTED_EDGE('',*,*,#446,.F.);
#586=ORIENTED_EDGE('',*,*,#445,.F.);
#587=ORIENTED_EDGE('',*,*,#447,.F.);
#588=ORIENTED_EDGE('',*,*,#448,.T.);
#589=ORIENTED_EDGE('',*,*,#449,.F.);
#590=ORIENTED_EDGE('',*,*,#442,.F.);
#591=ORIENTED_EDGE('',*,*,#450,.F.);
#592=ORIENTED_EDGE('',*,*,#448,.F.);
#593=ORIENTED_EDGE('',*,*,#447,.T.);
#594=ORIENTED_EDGE('',*,*,#444,.T.);
#595=ORIENTED_EDGE('',*,*,#431,.T.);
#596=ORIENTED_EDGE('',*,*,#449,.T.);
#597=ORIENTED_EDGE('',*,*,#450,.T.);
#598=ORIENTED_EDGE('',*,*,#451,.F.);
#599=ORIENTED_EDGE('',*,*,#452,.F.);
#600=ORIENTED_EDGE('',*,*,#453,.F.);
#601=ORIENTED_EDGE('',*,*,#454,.T.);
#602=ORIENTED_EDGE('',*,*,#455,.F.);
#603=ORIENTED_EDGE('',*,*,#456,.T.);
#604=ORIENTED_EDGE('',*,*,#457,.F.);
#605=ORIENTED_EDGE('',*,*,#458,.F.);
#606=ORIENTED_EDGE('',*,*,#459,.T.);
#607=ORIENTED_EDGE('',*,*,#460,.F.);
#608=ORIENTED_EDGE('',*,*,#457,.T.);
#609=ORIENTED_EDGE('',*,*,#461,.F.);
#610=ORIENTED_EDGE('',*,*,#459,.F.);
#611=ORIENTED_EDGE('',*,*,#462,.F.);
#612=ORIENTED_EDGE('',*,*,#463,.T.);
#613=ORIENTED_EDGE('',*,*,#464,.F.);
#614=ORIENTED_EDGE('',*,*,#455,.T.);
#615=ORIENTED_EDGE('',*,*,#465,.F.);
#616=ORIENTED_EDGE('',*,*,#463,.F.);
#617=ORIENTED_EDGE('',*,*,#462,.T.);
#618=ORIENTED_EDGE('',*,*,#458,.T.);
#619=ORIENTED_EDGE('',*,*,#464,.T.);
#620=ORIENTED_EDGE('',*,*,#465,.T.);
#621=ORIENTED_EDGE('',*,*,#466,.T.);
#622=ORIENTED_EDGE('',*,*,#467,.F.);
#623=ORIENTED_EDGE('',*,*,#468,.F.);
#624=ORIENTED_EDGE('',*,*,#469,.T.);
#625=ORIENTED_EDGE('',*,*,#470,.F.);
#626=ORIENTED_EDGE('',*,*,#471,.F.);
#627=ORIENTED_EDGE('',*,*,#472,.T.);
#628=ORIENTED_EDGE('',*,*,#473,.T.);
#629=ORIENTED_EDGE('',*,*,#460,.T.);
#630=ORIENTED_EDGE('',*,*,#461,.T.);
#631=ORIENTED_EDGE('',*,*,#474,.T.);
#632=ORIENTED_EDGE('',*,*,#475,.F.);
#633=ORIENTED_EDGE('',*,*,#476,.T.);
#634=ORIENTED_EDGE('',*,*,#477,.F.);
#635=ORIENTED_EDGE('',*,*,#476,.F.);
#636=ORIENTED_EDGE('',*,*,#478,.F.);
#637=ORIENTED_EDGE('',*,*,#479,.T.);
#638=ORIENTED_EDGE('',*,*,#473,.F.);
#639=ORIENTED_EDGE('',*,*,#479,.F.);
#640=ORIENTED_EDGE('',*,*,#478,.T.);
#641=ORIENTED_EDGE('',*,*,#475,.T.);
#642=ORIENTED_EDGE('',*,*,#480,.F.);
#643=ORIENTED_EDGE('',*,*,#481,.F.);
#644=ORIENTED_EDGE('',*,*,#482,.F.);
#645=ORIENTED_EDGE('',*,*,#483,.F.);
#646=ORIENTED_EDGE('',*,*,#484,.F.);
#647=ORIENTED_EDGE('',*,*,#485,.F.);
#648=ORIENTED_EDGE('',*,*,#486,.F.);
#649=ORIENTED_EDGE('',*,*,#487,.T.);
#650=ORIENTED_EDGE('',*,*,#484,.T.);
#651=ORIENTED_EDGE('',*,*,#488,.F.);
#652=ORIENTED_EDGE('',*,*,#485,.T.);
#653=ORIENTED_EDGE('',*,*,#487,.F.);
#654=ORIENTED_EDGE('',*,*,#489,.F.);
#655=ORIENTED_EDGE('',*,*,#490,.T.);
#656=ORIENTED_EDGE('',*,*,#481,.T.);
#657=ORIENTED_EDGE('',*,*,#469,.F.);
#658=ORIENTED_EDGE('',*,*,#482,.T.);
#659=ORIENTED_EDGE('',*,*,#490,.F.);
#660=ORIENTED_EDGE('',*,*,#489,.T.);
#661=ORIENTED_EDGE('',*,*,#486,.T.);
#662=ORIENTED_EDGE('',*,*,#477,.T.);
#663=ORIENTED_EDGE('',*,*,#488,.T.);
#664=ORIENTED_EDGE('',*,*,#491,.F.);
#665=ORIENTED_EDGE('',*,*,#492,.T.);
#666=ORIENTED_EDGE('',*,*,#493,.T.);
#667=ORIENTED_EDGE('',*,*,#494,.T.);
#668=ORIENTED_EDGE('',*,*,#495,.T.);
#669=ORIENTED_EDGE('',*,*,#496,.T.);
#670=ORIENTED_EDGE('',*,*,#471,.T.);
#671=ORIENTED_EDGE('',*,*,#497,.T.);
#672=ORIENTED_EDGE('',*,*,#498,.T.);
#673=ORIENTED_EDGE('',*,*,#497,.F.);
#674=ORIENTED_EDGE('',*,*,#499,.T.);
#675=ORIENTED_EDGE('',*,*,#492,.F.);
#676=ORIENTED_EDGE('',*,*,#500,.T.);
#677=ORIENTED_EDGE('',*,*,#501,.T.);
#678=ORIENTED_EDGE('',*,*,#502,.T.);
#679=ORIENTED_EDGE('',*,*,#503,.T.);
#680=ORIENTED_EDGE('',*,*,#502,.F.);
#681=ORIENTED_EDGE('',*,*,#504,.T.);
#682=ORIENTED_EDGE('',*,*,#496,.F.);
#683=ORIENTED_EDGE('',*,*,#505,.T.);
#684=ORIENTED_EDGE('',*,*,#439,.T.);
#685=ORIENTED_EDGE('',*,*,#443,.T.);
#686=ORIENTED_EDGE('',*,*,#453,.T.);
#687=ORIENTED_EDGE('',*,*,#506,.T.);
#688=ORIENTED_EDGE('',*,*,#507,.T.);
#689=ORIENTED_EDGE('',*,*,#506,.F.);
#690=ORIENTED_EDGE('',*,*,#508,.T.);
#691=ORIENTED_EDGE('',*,*,#500,.F.);
#692=ORIENTED_EDGE('',*,*,#494,.F.);
#693=ORIENTED_EDGE('',*,*,#509,.T.);
#694=ORIENTED_EDGE('',*,*,#505,.F.);
#695=ORIENTED_EDGE('',*,*,#504,.F.);
#696=ORIENTED_EDGE('',*,*,#510,.T.);
#697=ORIENTED_EDGE('',*,*,#511,.F.);
#698=ORIENTED_EDGE('',*,*,#466,.F.);
#699=ORIENTED_EDGE('',*,*,#454,.F.);
#700=ORIENTED_EDGE('',*,*,#474,.F.);
#701=ORIENTED_EDGE('',*,*,#456,.F.);
#702=ORIENTED_EDGE('',*,*,#472,.F.);
#703=ORIENTED_EDGE('',*,*,#501,.F.);
#704=ORIENTED_EDGE('',*,*,#512,.T.);
#705=ORIENTED_EDGE('',*,*,#513,.F.);
#706=ORIENTED_EDGE('',*,*,#510,.F.);
#707=ORIENTED_EDGE('',*,*,#508,.F.);
#708=ORIENTED_EDGE('',*,*,#452,.T.);
#709=ORIENTED_EDGE('',*,*,#514,.F.);
#710=ORIENTED_EDGE('',*,*,#512,.F.);
#711=ORIENTED_EDGE('',*,*,#446,.T.);
#712=ORIENTED_EDGE('',*,*,#495,.F.);
#713=ORIENTED_EDGE('',*,*,#507,.F.);
#714=ORIENTED_EDGE('',*,*,#503,.F.);
#715=ORIENTED_EDGE('',*,*,#498,.F.);
#716=ORIENTED_EDGE('',*,*,#515,.T.);
#717=ORIENTED_EDGE('',*,*,#516,.T.);
#718=ORIENTED_EDGE('',*,*,#517,.T.);
#719=ORIENTED_EDGE('',*,*,#518,.T.);
#720=ORIENTED_EDGE('',*,*,#519,.T.);
#721=ORIENTED_EDGE('',*,*,#467,.T.);
#722=ORIENTED_EDGE('',*,*,#520,.T.);
#723=ORIENTED_EDGE('',*,*,#521,.T.);
#724=ORIENTED_EDGE('',*,*,#519,.F.);
#725=ORIENTED_EDGE('',*,*,#517,.F.);
#726=ORIENTED_EDGE('',*,*,#522,.T.);
#727=ORIENTED_EDGE('',*,*,#523,.T.);
#728=ORIENTED_EDGE('',*,*,#513,.T.);
#729=ORIENTED_EDGE('',*,*,#524,.T.);
#730=ORIENTED_EDGE('',*,*,#525,.T.);
#731=ORIENTED_EDGE('',*,*,#523,.F.);
#732=ORIENTED_EDGE('',*,*,#520,.F.);
#733=ORIENTED_EDGE('',*,*,#511,.T.);
#734=ORIENTED_EDGE('',*,*,#526,.T.);
#735=ORIENTED_EDGE('',*,*,#451,.T.);
#736=ORIENTED_EDGE('',*,*,#441,.T.);
#737=ORIENTED_EDGE('',*,*,#438,.T.);
#738=ORIENTED_EDGE('',*,*,#527,.T.);
#739=ORIENTED_EDGE('',*,*,#528,.T.);
#740=ORIENTED_EDGE('',*,*,#526,.F.);
#741=ORIENTED_EDGE('',*,*,#524,.F.);
#742=ORIENTED_EDGE('',*,*,#514,.T.);
#743=ORIENTED_EDGE('',*,*,#515,.F.);
#744=ORIENTED_EDGE('',*,*,#527,.F.);
#745=ORIENTED_EDGE('',*,*,#529,.T.);
#746=ORIENTED_EDGE('',*,*,#499,.F.);
#747=ORIENTED_EDGE('',*,*,#470,.T.);
#748=ORIENTED_EDGE('',*,*,#480,.T.);
#749=ORIENTED_EDGE('',*,*,#491,.T.);
#750=ORIENTED_EDGE('',*,*,#483,.T.);
#751=ORIENTED_EDGE('',*,*,#468,.T.);
#752=ORIENTED_EDGE('',*,*,#522,.F.);
#753=ORIENTED_EDGE('',*,*,#530,.F.);
#754=ORIENTED_EDGE('',*,*,#493,.F.);
#755=ORIENTED_EDGE('',*,*,#530,.T.);
#756=ORIENTED_EDGE('',*,*,#516,.F.);
#757=ORIENTED_EDGE('',*,*,#531,.F.);
#758=ORIENTED_EDGE('',*,*,#509,.F.);
#759=ORIENTED_EDGE('',*,*,#531,.T.);
#760=ORIENTED_EDGE('',*,*,#529,.F.);
#761=ORIENTED_EDGE('',*,*,#437,.F.);
#762=ORIENTED_EDGE('',*,*,#428,.F.);
#763=ORIENTED_EDGE('',*,*,#440,.F.);
#764=ORIENTED_EDGE('',*,*,#518,.F.);
#765=ORIENTED_EDGE('',*,*,#521,.F.);
#766=ORIENTED_EDGE('',*,*,#525,.F.);
#767=ORIENTED_EDGE('',*,*,#528,.F.);
#768=PLANE('',#885);
#769=PLANE('',#886);
#770=PLANE('',#887);
#771=PLANE('',#888);
#772=PLANE('',#889);
#773=PLANE('',#890);
#774=PLANE('',#899);
#775=PLANE('',#900);
#776=PLANE('',#901);
#777=PLANE('',#910);
#778=PLANE('',#911);
#779=PLANE('',#912);
#780=PLANE('',#913);
#781=PLANE('',#924);
#782=PLANE('',#925);
#783=PLANE('',#928);
#784=PLANE('',#934);
#785=PLANE('',#935);
#786=PLANE('',#945);
#787=PLANE('',#946);
#788=PLANE('',#947);
#789=PLANE('',#970);
#790=PLANE('',#973);
#791=PLANE('',#974);
#792=PLANE('',#994);
#793=PLANE('',#996);
#794=STYLED_ITEM('',(#1547),#815);
#795=STYLED_ITEM('',(#1547),#816);
#796=STYLED_ITEM('',(#1547),#817);
#797=STYLED_ITEM('',(#1547),#818);
#798=STYLED_ITEM('',(#1547),#819);
#799=STYLED_ITEM('',(#1548),#821);
#800=STYLED_ITEM('',(#1547),#822);
#801=STYLED_ITEM('',(#1547),#823);
#802=STYLED_ITEM('',(#1548),#826);
#803=STYLED_ITEM('',(#1547),#827);
#804=STYLED_ITEM('',(#1547),#828);
#805=STYLED_ITEM('',(#1548),#832);
#806=STYLED_ITEM('',(#1547),#833);
#807=STYLED_ITEM('',(#1547),#834);
#808=STYLED_ITEM('',(#1548),#837);
#809=STYLED_ITEM('',(#1547),#838);
#810=STYLED_ITEM('',(#1547),#839);
#811=STYLED_ITEM('',(#1548),#841);
#812=STYLED_ITEM('',(#1547),#842);
#813=STYLED_ITEM('',(#1547),#843);
#814=STYLED_ITEM('',(#1546),#13);
#815=ADVANCED_FACE('',(#106),#768,.T.);
#816=ADVANCED_FACE('',(#107),#769,.T.);
#817=ADVANCED_FACE('',(#108),#770,.T.);
#818=ADVANCED_FACE('',(#109),#771,.T.);
#819=ADVANCED_FACE('',(#110),#772,.T.);
#820=ADVANCED_FACE('',(#111),#773,.F.);
#821=ADVANCED_FACE('',(#112),#84,.F.);
#822=ADVANCED_FACE('',(#113),#85,.T.);
#823=ADVANCED_FACE('',(#114,#22),#774,.T.);
#824=ADVANCED_FACE('',(#115),#775,.T.);
#825=ADVANCED_FACE('',(#116),#776,.T.);
#826=ADVANCED_FACE('',(#117),#86,.F.);
#827=ADVANCED_FACE('',(#118),#87,.T.);
#828=ADVANCED_FACE('',(#119,#23),#777,.T.);
#829=ADVANCED_FACE('',(#120),#778,.T.);
#830=ADVANCED_FACE('',(#121),#779,.T.);
#831=ADVANCED_FACE('',(#122),#780,.F.);
#832=ADVANCED_FACE('',(#123),#88,.F.);
#833=ADVANCED_FACE('',(#124),#89,.T.);
#834=ADVANCED_FACE('',(#125,#24),#781,.T.);
#835=ADVANCED_FACE('',(#126,#25),#782,.T.);
#836=ADVANCED_FACE('',(#127),#783,.T.);
#837=ADVANCED_FACE('',(#128),#90,.F.);
#838=ADVANCED_FACE('',(#129),#91,.T.);
#839=ADVANCED_FACE('',(#130,#26),#784,.T.);
#840=ADVANCED_FACE('',(#131),#785,.F.);
#841=ADVANCED_FACE('',(#132),#92,.F.);
#842=ADVANCED_FACE('',(#133),#93,.T.);
#843=ADVANCED_FACE('',(#134,#27),#786,.T.);
#844=ADVANCED_FACE('',(#135),#787,.T.);
#845=ADVANCED_FACE('',(#136),#788,.T.);
#846=ADVANCED_FACE('',(#137),#94,.T.);
#847=ADVANCED_FACE('',(#138),#95,.T.);
#848=ADVANCED_FACE('',(#139),#14,.T.);
#849=ADVANCED_FACE('',(#140),#96,.T.);
#850=ADVANCED_FACE('',(#141),#15,.T.);
#851=ADVANCED_FACE('',(#142),#97,.T.);
#852=ADVANCED_FACE('',(#143),#16,.T.);
#853=ADVANCED_FACE('',(#144),#17,.T.);
#854=ADVANCED_FACE('',(#145),#98,.T.);
#855=ADVANCED_FACE('',(#146),#789,.T.);
#856=ADVANCED_FACE('',(#147),#99,.T.);
#857=ADVANCED_FACE('',(#148),#790,.T.);
#858=ADVANCED_FACE('',(#149),#791,.F.);
#859=ADVANCED_FACE('',(#150),#100,.T.);
#860=ADVANCED_FACE('',(#151),#101,.T.);
#861=ADVANCED_FACE('',(#152),#18,.T.);
#862=ADVANCED_FACE('',(#153),#102,.T.);
#863=ADVANCED_FACE('',(#154),#19,.T.);
#864=ADVANCED_FACE('',(#155),#103,.T.);
#865=ADVANCED_FACE('',(#156),#20,.T.);
#866=ADVANCED_FACE('',(#157),#21,.T.);
#867=ADVANCED_FACE('',(#158),#104,.T.);
#868=ADVANCED_FACE('',(#159),#792,.T.);
#869=ADVANCED_FACE('',(#160),#105,.T.);
#870=ADVANCED_FACE('',(#161),#793,.T.);
#871=CLOSED_SHELL('',(#815,#816,#817,#818,#819,#820,#821,#822,#823,#824,
#825,#826,#827,#828,#829,#830,#831,#832,#833,#834,#835,#836,#837,#838,#839,
#840,#841,#842,#843,#844,#845,#846,#847,#848,#849,#850,#851,#852,#853,#854,
#855,#856,#857,#858,#859,#860,#861,#862,#863,#864,#865,#866,#867,#868,#869,
#870));
#872=DERIVED_UNIT_ELEMENT(#874,1.);
#873=DERIVED_UNIT_ELEMENT(#1531,-3.);
#874=(
MASS_UNIT()
NAMED_UNIT(*)
SI_UNIT(.KILO.,.GRAM.)
);
#875=DERIVED_UNIT((#872,#873));
#876=MEASURE_REPRESENTATION_ITEM('density measure',
POSITIVE_RATIO_MEASURE(7850.),#875);
#877=PROPERTY_DEFINITION_REPRESENTATION(#882,#879);
#878=PROPERTY_DEFINITION_REPRESENTATION(#883,#880);
#879=REPRESENTATION('material name',(#881),#1528);
#880=REPRESENTATION('density',(#876),#1528);
#881=DESCRIPTIVE_REPRESENTATION_ITEM('Steel','Steel');
#882=PROPERTY_DEFINITION('material property','material name',#1538);
#883=PROPERTY_DEFINITION('material property','density of part',#1538);
#884=AXIS2_PLACEMENT_3D('',#1285,#997,#998);
#885=AXIS2_PLACEMENT_3D('',#1286,#999,#1000);
#886=AXIS2_PLACEMENT_3D('',#1295,#1005,#1006);
#887=AXIS2_PLACEMENT_3D('',#1303,#1011,#1012);
#888=AXIS2_PLACEMENT_3D('',#1309,#1016,#1017);
#889=AXIS2_PLACEMENT_3D('',#1314,#1021,#1022);
#890=AXIS2_PLACEMENT_3D('',#1315,#1023,#1024);
#891=AXIS2_PLACEMENT_3D('',#1317,#1026,#1027);
#892=AXIS2_PLACEMENT_3D('',#1319,#1028,#1029);
#893=AXIS2_PLACEMENT_3D('',#1322,#1031,#1032);
#894=AXIS2_PLACEMENT_3D('',#1323,#1033,#1034);
#895=AXIS2_PLACEMENT_3D('',#1325,#1035,#1036);
#896=AXIS2_PLACEMENT_3D('',#1329,#1038,#1039);
#897=AXIS2_PLACEMENT_3D('',#1331,#1040,#1041);
#898=AXIS2_PLACEMENT_3D('',#1332,#1042,#1043);
#899=AXIS2_PLACEMENT_3D('',#1333,#1044,#1045);
#900=AXIS2_PLACEMENT_3D('',#1334,#1046,#1047);
#901=AXIS2_PLACEMENT_3D('',#1341,#1052,#1053);
#902=AXIS2_PLACEMENT_3D('',#1345,#1055,#1056);
#903=AXIS2_PLACEMENT_3D('',#1347,#1058,#1059);
#904=AXIS2_PLACEMENT_3D('',#1349,#1060,#1061);
#905=AXIS2_PLACEMENT_3D('',#1352,#1063,#1064);
#906=AXIS2_PLACEMENT_3D('',#1353,#1065,#1066);
#907=AXIS2_PLACEMENT_3D('',#1355,#1067,#1068);
#908=AXIS2_PLACEMENT_3D('',#1358,#1070,#1071);
#909=AXIS2_PLACEMENT_3D('',#1359,#1072,#1073);
#910=AXIS2_PLACEMENT_3D('',#1360,#1074,#1075);
#911=AXIS2_PLACEMENT_3D('',#1361,#1076,#1077);
#912=AXIS2_PLACEMENT_3D('',#1362,#1078,#1079);
#913=AXIS2_PLACEMENT_3D('',#1368,#1083,#1084);
#914=AXIS2_PLACEMENT_3D('',#1373,#1086,#1087);
#915=AXIS2_PLACEMENT_3D('',#1376,#1089,#1090);
#916=AXIS2_PLACEMENT_3D('',#1377,#1091,#1092);
#917=AXIS2_PLACEMENT_3D('',#1379,#1093,#1094);
#918=AXIS2_PLACEMENT_3D('',#1382,#1096,#1097);
#919=AXIS2_PLACEMENT_3D('',#1383,#1098,#1099);
#920=AXIS2_PLACEMENT_3D('',#1384,#1100,#1101);
#921=AXIS2_PLACEMENT_3D('',#1386,#1102,#1103);
#922=AXIS2_PLACEMENT_3D('',#1389,#1105,#1106);
#923=AXIS2_PLACEMENT_3D('',#1390,#1107,#1108);
#924=AXIS2_PLACEMENT_3D('',#1391,#1109,#1110);
#925=AXIS2_PLACEMENT_3D('',#1392,#1111,#1112);
#926=AXIS2_PLACEMENT_3D('',#1400,#1116,#1117);
#927=AXIS2_PLACEMENT_3D('',#1407,#1121,#1122);
#928=AXIS2_PLACEMENT_3D('',#1408,#1123,#1124);
#929=AXIS2_PLACEMENT_3D('',#1410,#1126,#1127);
#930=AXIS2_PLACEMENT_3D('',#1412,#1128,#1129);
#931=AXIS2_PLACEMENT_3D('',#1415,#1131,#1132);
#932=AXIS2_PLACEMENT_3D('',#1416,#1133,#1134);
#933=AXIS2_PLACEMENT_3D('',#1418,#1135,#1136);
#934=AXIS2_PLACEMENT_3D('',#1420,#1138,#1139);
#935=AXIS2_PLACEMENT_3D('',#1421,#1140,#1141);
#936=AXIS2_PLACEMENT_3D('',#1425,#1143,#1144);
#937=AXIS2_PLACEMENT_3D('',#1426,#1145,#1146);
#938=AXIS2_PLACEMENT_3D('',#1430,#1148,#1149);
#939=AXIS2_PLACEMENT_3D('',#1431,#1150,#1151);
#940=AXIS2_PLACEMENT_3D('',#1432,#1152,#1153);
#941=AXIS2_PLACEMENT_3D('',#1434,#1154,#1155);
#942=AXIS2_PLACEMENT_3D('',#1436,#1157,#1158);
#943=AXIS2_PLACEMENT_3D('',#1437,#1159,#1160);
#944=AXIS2_PLACEMENT_3D('',#1439,#1161,#1162);
#945=AXIS2_PLACEMENT_3D('',#1441,#1164,#1165);
#946=AXIS2_PLACEMENT_3D('',#1442,#1166,#1167);
#947=AXIS2_PLACEMENT_3D('',#1443,#1168,#1169);
#948=AXIS2_PLACEMENT_3D('',#1445,#1171,#1172);
#949=AXIS2_PLACEMENT_3D('',#1448,#1173,#1174);
#950=AXIS2_PLACEMENT_3D('',#1452,#1176,#1177);
#951=AXIS2_PLACEMENT_3D('',#1454,#1179,#1180);
#952=AXIS2_PLACEMENT_3D('',#1456,#1181,#1182);
#953=AXIS2_PLACEMENT_3D('',#1457,#1183,#1184);
#954=AXIS2_PLACEMENT_3D('',#1459,#1186,#1187);
#955=AXIS2_PLACEMENT_3D('',#1460,#1188,#1189);
#956=AXIS2_PLACEMENT_3D('',#1461,#1190,#1191);
#957=AXIS2_PLACEMENT_3D('',#1464,#1192,#1193);
#958=AXIS2_PLACEMENT_3D('',#1467,#1195,#1196);
#959=AXIS2_PLACEMENT_3D('',#1469,#1198,#1199);
#960=AXIS2_PLACEMENT_3D('',#1470,#1200,#1201);
#961=AXIS2_PLACEMENT_3D('',#1471,#1202,#1203);
#962=AXIS2_PLACEMENT_3D('',#1472,#1204,#1205);
#963=AXIS2_PLACEMENT_3D('',#1473,#1206,#1207);
#964=AXIS2_PLACEMENT_3D('',#1475,#1209,#1210);
#965=AXIS2_PLACEMENT_3D('',#1476,#1211,#1212);
#966=AXIS2_PLACEMENT_3D('',#1477,#1213,#1214);
#967=AXIS2_PLACEMENT_3D('',#1478,#1215,#1216);
#968=AXIS2_PLACEMENT_3D('',#1479,#1217,#1218);
#969=AXIS2_PLACEMENT_3D('',#1482,#1220,#1221);
#970=AXIS2_PLACEMENT_3D('',#1483,#1222,#1223);
#971=AXIS2_PLACEMENT_3D('',#1487,#1226,#1227);
#972=AXIS2_PLACEMENT_3D('',#1488,#1228,#1229);
#973=AXIS2_PLACEMENT_3D('',#1489,#1230,#1231);
#974=AXIS2_PLACEMENT_3D('',#1490,#1232,#1233);
#975=AXIS2_PLACEMENT_3D('',#1491,#1234,#1235);
#976=AXIS2_PLACEMENT_3D('',#1494,#1236,#1237);
#977=AXIS2_PLACEMENT_3D('',#1498,#1239,#1240);
#978=AXIS2_PLACEMENT_3D('',#1500,#1242,#1243);
#979=AXIS2_PLACEMENT_3D('',#1501,#1244,#1245);
#980=AXIS2_PLACEMENT_3D('',#1503,#1246,#1247);
#981=AXIS2_PLACEMENT_3D('',#1505,#1249,#1250);
#982=AXIS2_PLACEMENT_3D('',#1506,#1251,#1252);
#983=AXIS2_PLACEMENT_3D('',#1507,#1253,#1254);
#984=AXIS2_PLACEMENT_3D('',#1508,#1255,#1256);
#985=AXIS2_PLACEMENT_3D('',#1510,#1257,#1258);
#986=AXIS2_PLACEMENT_3D('',#1512,#1260,#1261);
#987=AXIS2_PLACEMENT_3D('',#1513,#1262,#1263);
#988=AXIS2_PLACEMENT_3D('',#1514,#1264,#1265);
#989=AXIS2_PLACEMENT_3D('',#1515,#1266,#1267);
#990=AXIS2_PLACEMENT_3D('',#1517,#1269,#1270);
#991=AXIS2_PLACEMENT_3D('',#1518,#1271,#1272);
#992=AXIS2_PLACEMENT_3D('',#1519,#1273,#1274);
#993=AXIS2_PLACEMENT_3D('',#1520,#1275,#1276);
#994=AXIS2_PLACEMENT_3D('',#1522,#1278,#1279);
#995=AXIS2_PLACEMENT_3D('',#1524,#1281,#1282);
#996=AXIS2_PLACEMENT_3D('',#1525,#1283,#1284);
#997=DIRECTION('axis',(0.,0.,1.));
#998=DIRECTION('refdir',(1.,0.,0.));
#999=DIRECTION('center_axis',(0.,1.,0.));
#1000=DIRECTION('ref_axis',(0.,0.,-1.));
#1001=DIRECTION('',(0.,0.,1.));
#1002=DIRECTION('',(-1.,0.,0.));
#1003=DIRECTION('',(0.,0.,-1.));
#1004=DIRECTION('',(-1.,0.,0.));
#1005=DIRECTION('center_axis',(0.,0.,1.));
#1006=DIRECTION('ref_axis',(0.,1.,0.));
#1007=DIRECTION('',(1.58603289232165E-16,-1.,0.));
#1008=DIRECTION('',(0.,1.,0.));
#1009=DIRECTION('',(-1.,0.,0.));
#1010=DIRECTION('',(0.,-1.,0.));
#1011=DIRECTION('center_axis',(0.,-1.,0.));
#1012=DIRECTION('ref_axis',(0.,0.,1.));
#1013=DIRECTION('',(0.,0.,-1.));
#1014=DIRECTION('',(0.,0.,1.));
#1015=DIRECTION('',(-1.,0.,0.));
#1016=DIRECTION('center_axis',(0.,0.,-1.));
#1017=DIRECTION('ref_axis',(0.,-1.,0.));
#1018=DIRECTION('',(0.,1.,0.));
#1019=DIRECTION('',(0.,-1.,0.));
#1020=DIRECTION('',(-1.58603289232165E-16,1.,0.));
#1021=DIRECTION('center_axis',(-1.,0.,0.));
#1022=DIRECTION('ref_axis',(0.,0.,1.));
#1023=DIRECTION('center_axis',(-1.,0.,0.));
#1024=DIRECTION('ref_axis',(0.,-1.,0.));
#1025=DIRECTION('',(0.,0.,1.));
#1026=DIRECTION('center_axis',(-1.,0.,0.));
#1027=DIRECTION('ref_axis',(0.,-1.,0.));
#1028=DIRECTION('center_axis',(1.,0.,0.));
#1029=DIRECTION('ref_axis',(0.,-1.,0.));
#1030=DIRECTION('',(1.,0.,0.));
#1031=DIRECTION('center_axis',(-1.,-1.58603289232165E-16,0.));
#1032=DIRECTION('ref_axis',(0.,-1.,0.));
#1033=DIRECTION('center_axis',(-1.,0.,0.));
#1034=DIRECTION('ref_axis',(0.,-1.,0.));
#1035=DIRECTION('center_axis',(-1.,0.,0.));
#1036=DIRECTION('ref_axis',(0.,-1.,0.));
#1037=DIRECTION('',(1.,0.,0.));
#1038=DIRECTION('center_axis',(1.,1.58603289232165E-16,0.));
#1039=DIRECTION('ref_axis',(0.,-1.,0.));
#1040=DIRECTION('center_axis',(1.,1.58603289232165E-16,0.));
#1041=DIRECTION('ref_axis',(0.,-1.,0.));
#1042=DIRECTION('center_axis',(1.,1.58603289232165E-16,0.));
#1043=DIRECTION('ref_axis',(0.,-1.,0.));
#1044=DIRECTION('center_axis',(-1.,0.,0.));
#1045=DIRECTION('ref_axis',(0.,-1.,0.));
#1046=DIRECTION('center_axis',(-1.,-1.58603289232165E-16,0.));
#1047=DIRECTION('ref_axis',(1.58603289232165E-16,-1.,0.));
#1048=DIRECTION('',(0.,0.,1.));
#1049=DIRECTION('',(1.58603289232165E-16,-1.,0.));
#1050=DIRECTION('',(-1.58603289232165E-16,1.,0.));
#1051=DIRECTION('',(0.,0.,1.));
#1052=DIRECTION('center_axis',(-1.,-1.58603289232165E-16,0.));
#1053=DIRECTION('ref_axis',(1.58603289232165E-16,-1.,0.));
#1054=DIRECTION('',(1.58603289232165E-16,-1.,0.));
#1055=DIRECTION('center_axis',(1.,1.58603289232165E-16,0.));
#1056=DIRECTION('ref_axis',(0.,-1.,0.));
#1057=DIRECTION('',(-1.58603289232165E-16,1.,0.));
#1058=DIRECTION('center_axis',(-1.,0.,0.));
#1059=DIRECTION('ref_axis',(0.,-1.,0.));
#1060=DIRECTION('center_axis',(1.,0.,0.));
#1061=DIRECTION('ref_axis',(0.,-1.,0.));
#1062=DIRECTION('',(1.,0.,0.));
#1063=DIRECTION('center_axis',(-1.,-1.58603289232165E-16,0.));
#1064=DIRECTION('ref_axis',(0.,-1.,0.));
#1065=DIRECTION('center_axis',(-1.,0.,0.));
#1066=DIRECTION('ref_axis',(0.,-1.,0.));
#1067=DIRECTION('center_axis',(-1.,0.,0.));
#1068=DIRECTION('ref_axis',(0.,-1.,0.));
#1069=DIRECTION('',(1.,0.,0.));
#1070=DIRECTION('center_axis',(1.,1.58603289232165E-16,0.));
#1071=DIRECTION('ref_axis',(0.,-1.,0.));
#1072=DIRECTION('center_axis',(1.,1.58603289232165E-16,0.));
#1073=DIRECTION('ref_axis',(0.,-1.,0.));
#1074=DIRECTION('center_axis',(-1.,0.,0.));
#1075=DIRECTION('ref_axis',(0.,-1.,0.));
#1076=DIRECTION('center_axis',(-1.,-1.58603289232165E-16,0.));
#1077=DIRECTION('ref_axis',(1.58603289232165E-16,-1.,0.));
#1078=DIRECTION('center_axis',(-1.,-1.58603289232165E-16,0.));
#1079=DIRECTION('ref_axis',(1.58603289232165E-16,-1.,0.));
#1080=DIRECTION('',(1.58603289232165E-16,-1.,0.));
#1081=DIRECTION('',(0.,0.,1.));
#1082=DIRECTION('',(-1.58603289232165E-16,1.,0.));
#1083=DIRECTION('center_axis',(1.,0.,0.));
#1084=DIRECTION('ref_axis',(0.,1.,0.));
#1085=DIRECTION('',(0.,0.,1.));
#1086=DIRECTION('center_axis',(1.,0.,0.));
#1087=DIRECTION('ref_axis',(0.,1.,0.));
#1088=DIRECTION('',(0.,0.,1.));
#1089=DIRECTION('center_axis',(-1.,0.,0.));
#1090=DIRECTION('ref_axis',(0.,1.,0.));
#1091=DIRECTION('center_axis',(1.,0.,0.));
#1092=DIRECTION('ref_axis',(0.,1.,0.));
#1093=DIRECTION('center_axis',(-1.,0.,0.));
#1094=DIRECTION('ref_axis',(0.,1.,0.));
#1095=DIRECTION('',(-1.,0.,0.));
#1096=DIRECTION('center_axis',(1.,-1.58603289232165E-16,0.));
#1097=DIRECTION('ref_axis',(0.,1.,0.));
#1098=DIRECTION('center_axis',(1.,-1.58603289232165E-16,0.));
#1099=DIRECTION('ref_axis',(0.,1.,0.));
#1100=DIRECTION('center_axis',(1.,0.,0.));
#1101=DIRECTION('ref_axis',(0.,1.,0.));
#1102=DIRECTION('center_axis',(1.,0.,0.));
#1103=DIRECTION('ref_axis',(0.,1.,0.));
#1104=DIRECTION('',(-1.,0.,0.));
#1105=DIRECTION('center_axis',(-1.,1.58603289232165E-16,0.));
#1106=DIRECTION('ref_axis',(0.,1.,0.));
#1107=DIRECTION('center_axis',(-1.,1.58603289232165E-16,0.));
#1108=DIRECTION('ref_axis',(0.,1.,0.));
#1109=DIRECTION('center_axis',(1.,0.,0.));
#1110=DIRECTION('ref_axis',(0.,1.,0.));
#1111=DIRECTION('center_axis',(1.,-1.58603289232165E-16,0.));
#1112=DIRECTION('ref_axis',(1.58603289232165E-16,1.,0.));
#1113=DIRECTION('',(0.,0.,1.));
#1114=DIRECTION('',(1.58603289232165E-16,1.,0.));
#1115=DIRECTION('',(0.,0.,1.));
#1116=DIRECTION('center_axis',(-1.,1.58603289232165E-16,0.));
#1117=DIRECTION('ref_axis',(0.,1.,0.));
#1118=DIRECTION('',(0.,0.,1.));
#1119=DIRECTION('',(-1.58603289232165E-16,-1.,0.));
#1120=DIRECTION('',(0.,0.,1.));
#1121=DIRECTION('center_axis',(-1.,1.58603289232165E-16,0.));
#1122=DIRECTION('ref_axis',(0.,1.,0.));
#1123=DIRECTION('center_axis',(1.,-1.58603289232165E-16,0.));
#1124=DIRECTION('ref_axis',(1.58603289232165E-16,1.,0.));
#1125=DIRECTION('',(0.,0.,1.));
#1126=DIRECTION('center_axis',(1.,0.,0.));
#1127=DIRECTION('ref_axis',(0.,1.,0.));
#1128=DIRECTION('center_axis',(-1.,0.,0.));
#1129=DIRECTION('ref_axis',(0.,1.,0.));
#1130=DIRECTION('',(-1.,0.,0.));
#1131=DIRECTION('center_axis',(1.,-1.58603289232165E-16,0.));
#1132=DIRECTION('ref_axis',(0.,1.,0.));
#1133=DIRECTION('center_axis',(1.,0.,0.));
#1134=DIRECTION('ref_axis',(0.,1.,0.));
#1135=DIRECTION('center_axis',(1.,0.,0.));
#1136=DIRECTION('ref_axis',(0.,1.,0.));
#1137=DIRECTION('',(-1.,0.,0.));
#1138=DIRECTION('center_axis',(1.,0.,0.));
#1139=DIRECTION('ref_axis',(0.,1.,0.));
#1140=DIRECTION('center_axis',(1.,0.,0.));
#1141=DIRECTION('ref_axis',(0.,1.,0.));
#1142=DIRECTION('',(0.,0.,1.));
#1143=DIRECTION('center_axis',(1.,0.,0.));
#1144=DIRECTION('ref_axis',(0.,1.,0.));
#1145=DIRECTION('center_axis',(1.,0.,0.));
#1146=DIRECTION('ref_axis',(0.,1.,0.));
#1147=DIRECTION('',(0.,0.,1.));
#1148=DIRECTION('center_axis',(-1.,0.,0.));
#1149=DIRECTION('ref_axis',(0.,1.,0.));
#1150=DIRECTION('center_axis',(-1.,0.,0.));
#1151=DIRECTION('ref_axis',(0.,1.,0.));
#1152=DIRECTION('center_axis',(1.,0.,0.));
#1153=DIRECTION('ref_axis',(0.,1.,0.));
#1154=DIRECTION('center_axis',(-1.,0.,0.));
#1155=DIRECTION('ref_axis',(0.,1.,0.));
#1156=DIRECTION('',(-1.,0.,0.));
#1157=DIRECTION('center_axis',(1.,-1.58603289232165E-16,0.));
#1158=DIRECTION('ref_axis',(0.,1.,0.));
#1159=DIRECTION('center_axis',(1.,0.,0.));
#1160=DIRECTION('ref_axis',(0.,1.,0.));
#1161=DIRECTION('center_axis',(1.,0.,0.));
#1162=DIRECTION('ref_axis',(0.,1.,0.));
#1163=DIRECTION('',(-1.,0.,0.));
#1164=DIRECTION('center_axis',(1.,0.,0.));
#1165=DIRECTION('ref_axis',(0.,1.,0.));
#1166=DIRECTION('center_axis',(1.,-1.58603289232165E-16,0.));
#1167=DIRECTION('ref_axis',(1.58603289232165E-16,1.,0.));
#1168=DIRECTION('center_axis',(1.,-1.58603289232165E-16,0.));
#1169=DIRECTION('ref_axis',(1.58603289232165E-16,1.,0.));
#1170=DIRECTION('',(0.,0.,1.));
#1171=DIRECTION('center_axis',(-1.,5.55111512312578E-17,0.));
#1172=DIRECTION('ref_axis',(0.,-0.707106781186547,-0.707106781186548));
#1173=DIRECTION('center_axis',(-1.,5.55111512312578E-16,0.));
#1174=DIRECTION('ref_axis',(0.,0.,-1.));
#1175=DIRECTION('',(-1.,5.55111512312578E-17,0.));
#1176=DIRECTION('center_axis',(1.,0.,0.));
#1177=DIRECTION('ref_axis',(0.,-1.,0.));
#1178=DIRECTION('',(1.,-5.55111512312578E-17,0.));
#1179=DIRECTION('center_axis',(-1.58603289232165E-16,-1.,0.));
#1180=DIRECTION('ref_axis',(0.707106781186547,0.,-0.707106781186548));
#1181=DIRECTION('center_axis',(-5.55111512312579E-16,-1.,0.));
#1182=DIRECTION('ref_axis',(0.,0.,-1.));
#1183=DIRECTION('center_axis',(0.,1.,0.));
#1184=DIRECTION('ref_axis',(1.,0.,0.));
#1185=DIRECTION('',(1.58603289232165E-16,1.,0.));
#1186=DIRECTION('center_axis',(-0.408248290463862,0.408248290463862,-0.816496580927727));
#1187=DIRECTION('ref_axis',(0.577350269189627,-0.577350269189626,-0.577350269189625));
#1188=DIRECTION('center_axis',(0.,0.,-1.));
#1189=DIRECTION('ref_axis',(1.11022302462516E-15,-1.,0.));
#1190=DIRECTION('center_axis',(1.,-5.55111512312578E-17,0.));
#1191=DIRECTION('ref_axis',(0.,0.707106781186547,-0.707106781186548));
#1192=DIRECTION('center_axis',(1.,0.,0.));
#1193=DIRECTION('ref_axis',(0.,0.,-1.));
#1194=DIRECTION('',(1.,-5.55111512312578E-17,0.));
#1195=DIRECTION('center_axis',(-1.,0.,0.));
#1196=DIRECTION('ref_axis',(0.,1.,0.));
#1197=DIRECTION('',(-1.,5.55111512312578E-17,0.));
#1198=DIRECTION('center_axis',(-0.408248290463862,-0.408248290463862,-0.816496580927727));
#1199=DIRECTION('ref_axis',(0.577350269189627,0.577350269189626,-0.577350269189625));
#1200=DIRECTION('center_axis',(0.,0.,-1.));
#1201=DIRECTION('ref_axis',(1.,5.55111512312578E-16,0.));
#1202=DIRECTION('center_axis',(-1.58603289232165E-16,1.,0.));
#1203=DIRECTION('ref_axis',(-0.707106781186548,0.,-0.707106781186547));
#1204=DIRECTION('center_axis',(-5.55111512312578E-16,1.,0.));
#1205=DIRECTION('ref_axis',(0.,0.,-1.));
#1206=DIRECTION('center_axis',(0.,-1.,0.));
#1207=DIRECTION('ref_axis',(-1.,0.,0.));
#1208=DIRECTION('',(1.58603289232165E-16,-1.,0.));
#1209=DIRECTION('center_axis',(0.408248290463863,-0.408248290463862,-0.816496580927726));
#1210=DIRECTION('ref_axis',(-0.577350269189627,0.577350269189625,-0.577350269189625));
#1211=DIRECTION('center_axis',(0.,0.,-1.));
#1212=DIRECTION('ref_axis',(-1.11022302462516E-15,1.,0.));
#1213=DIRECTION('center_axis',(0.408248290463863,0.408248290463863,-0.816496580927726));
#1214=DIRECTION('ref_axis',(-0.577350269189626,-0.577350269189626,-0.577350269189626));
#1215=DIRECTION('center_axis',(0.,0.,-1.));
#1216=DIRECTION('ref_axis',(-1.,-5.55111512312578E-16,0.));
#1217=DIRECTION('center_axis',(0.,0.,1.));
#1218=DIRECTION('ref_axis',(1.,5.55111512312578E-16,0.));
#1219=DIRECTION('',(0.,0.,1.));
#1220=DIRECTION('center_axis',(0.,0.,1.));
#1221=DIRECTION('ref_axis',(1.,5.55111512312578E-16,0.));
#1222=DIRECTION('center_axis',(5.55111512312578E-17,1.,0.));
#1223=DIRECTION('ref_axis',(-1.,5.55111512312578E-17,0.));
#1224=DIRECTION('',(0.,0.,1.));
#1225=DIRECTION('',(-1.,5.55111512312578E-17,0.));
#1226=DIRECTION('center_axis',(0.,0.,1.));
#1227=DIRECTION('ref_axis',(-1.11022302462516E-15,1.,0.));
#1228=DIRECTION('center_axis',(0.,0.,1.));
#1229=DIRECTION('ref_axis',(-1.11022302462516E-15,1.,0.));
#1230=DIRECTION('center_axis',(-1.,-1.58603289232165E-16,0.));
#1231=DIRECTION('ref_axis',(1.58603289232165E-16,-1.,0.));
#1232=DIRECTION('center_axis',(0.,0.,1.));
#1233=DIRECTION('ref_axis',(1.,0.,0.));
#1234=DIRECTION('center_axis',(1.,-5.55111512312578E-17,0.));
#1235=DIRECTION('ref_axis',(0.,-0.707106781186547,0.707106781186548));
#1236=DIRECTION('center_axis',(1.,0.,0.));
#1237=DIRECTION('ref_axis',(0.,0.,1.));
#1238=DIRECTION('',(1.,-5.55111512312578E-17,0.));
#1239=DIRECTION('center_axis',(-1.,5.55111512312578E-16,0.));
#1240=DIRECTION('ref_axis',(-5.55111512312578E-16,-1.,0.));
#1241=DIRECTION('',(-1.,5.55111512312578E-17,0.));
#1242=DIRECTION('center_axis',(1.58603289232165E-16,1.,0.));
#1243=DIRECTION('ref_axis',(0.707106781186547,0.,0.707106781186548));
#1244=DIRECTION('center_axis',(0.,1.,0.));
#1245=DIRECTION('ref_axis',(0.,0.,1.));
#1246=DIRECTION('center_axis',(-5.55111512312579E-16,-1.,0.));
#1247=DIRECTION('ref_axis',(1.,-5.55111512312579E-16,0.));
#1248=DIRECTION('',(-1.58603289232165E-16,-1.,0.));
#1249=DIRECTION('center_axis',(0.408248290463862,-0.408248290463862,-0.816496580927727));
#1250=DIRECTION('ref_axis',(0.577350269189627,-0.577350269189626,0.577350269189625));
#1251=DIRECTION('center_axis',(0.,0.,1.));
#1252=DIRECTION('ref_axis',(1.11022302462516E-15,-1.,0.));
#1253=DIRECTION('center_axis',(-1.,5.55111512312578E-17,0.));
#1254=DIRECTION('ref_axis',(0.,0.707106781186547,0.707106781186548));
#1255=DIRECTION('center_axis',(-1.,0.,0.));
#1256=DIRECTION('ref_axis',(0.,0.,1.));
#1257=DIRECTION('center_axis',(1.,0.,0.));
#1258=DIRECTION('ref_axis',(0.,1.,0.));
#1259=DIRECTION('',(1.,-5.55111512312578E-17,0.));
#1260=DIRECTION('center_axis',(0.408248290463863,0.408248290463862,-0.816496580927726));
#1261=DIRECTION('ref_axis',(0.577350269189626,0.577350269189626,0.577350269189625));
#1262=DIRECTION('center_axis',(1.58603289232165E-16,-1.,0.));
#1263=DIRECTION('ref_axis',(-0.707106781186548,0.,0.707106781186548));
#1264=DIRECTION('center_axis',(0.,-1.,0.));
#1265=DIRECTION('ref_axis',(0.,0.,1.));
#1266=DIRECTION('center_axis',(-5.55111512312578E-16,1.,0.));
#1267=DIRECTION('ref_axis',(-1.,-5.55111512312578E-16,0.));
#1268=DIRECTION('',(-1.58603289232165E-16,1.,0.));
#1269=DIRECTION('center_axis',(-0.408248290463863,0.408248290463862,-0.816496580927726));
#1270=DIRECTION('ref_axis',(-0.577350269189627,0.577350269189625,0.577350269189625));
#1271=DIRECTION('center_axis',(-0.408248290463863,-0.408248290463863,-0.816496580927726));
#1272=DIRECTION('ref_axis',(-0.577350269189626,-0.577350269189626,0.577350269189626));
#1273=DIRECTION('center_axis',(0.,0.,1.));
#1274=DIRECTION('ref_axis',(-1.,-5.55111512312578E-16,0.));
#1275=DIRECTION('center_axis',(0.,0.,1.));
#1276=DIRECTION('ref_axis',(1.11022302462516E-15,-1.,0.));
#1277=DIRECTION('',(0.,0.,1.));
#1278=DIRECTION('center_axis',(-5.55111512312578E-17,-1.,0.));
#1279=DIRECTION('ref_axis',(1.,-5.55111512312578E-17,0.));
#1280=DIRECTION('',(0.,0.,1.));
#1281=DIRECTION('center_axis',(0.,0.,1.));
#1282=DIRECTION('ref_axis',(-1.,-5.55111512312578E-16,0.));
#1283=DIRECTION('center_axis',(0.,0.,1.));
#1284=DIRECTION('ref_axis',(1.,0.,0.));
#1285=CARTESIAN_POINT('',(0.,0.,0.));
#1286=CARTESIAN_POINT('Origin',(-12.0000000000008,-3.23895299886291,4.27926645774569));
#1287=CARTESIAN_POINT('',(-12.0000000000008,-3.23895299886291,2.77926645774569));
#1288=CARTESIAN_POINT('',(-12.0000000000008,-3.23895299886291,4.27926645774569));
#1289=CARTESIAN_POINT('',(-12.0000000000008,-3.23895299886291,2.13963322887284));
#1290=CARTESIAN_POINT('',(-16.0000000000008,-3.23895299886291,2.77926645774569));
#1291=CARTESIAN_POINT('',(-12.0000000000008,-3.23895299886291,2.77926645774569));
#1292=CARTESIAN_POINT('',(-16.0000000000008,-3.23895299886291,4.27926645774569));
#1293=CARTESIAN_POINT('',(-16.0000000000008,-3.23895299886291,2.77926645774569));
#1294=CARTESIAN_POINT('',(-12.0000000000008,-3.23895299886291,4.27926645774569));
#1295=CARTESIAN_POINT('Origin',(-12.0000000000008,-7.73895299886291,4.27926645774569));
#1296=CARTESIAN_POINT('',(-12.0000000000008,-6.99999999999908,4.27926645774569));
#1297=CARTESIAN_POINT('',(-12.0000000000008,-0.369476499430996,4.27926645774569));
#1298=CARTESIAN_POINT('',(-16.0000000000008,-7.73895299886291,4.27926645774569));
#1299=CARTESIAN_POINT('',(-16.0000000000008,-3.23895299886291,4.27926645774569));
#1300=CARTESIAN_POINT('',(-12.0000000000008,-7.73895299886291,4.27926645774569));
#1301=CARTESIAN_POINT('',(-12.0000000000008,-7.73895299886291,4.27926645774569));
#1302=CARTESIAN_POINT('',(-12.0000000000008,-3.23895299886291,4.27926645774569));
#1303=CARTESIAN_POINT('Origin',(-12.0000000000008,-7.73895299886291,2.77926645774569));
#1304=CARTESIAN_POINT('',(-12.0000000000008,-7.73895299886291,2.77926645774569));
#1305=CARTESIAN_POINT('',(-12.0000000000008,-7.73895299886291,4.27926645774569));
#1306=CARTESIAN_POINT('',(-16.0000000000008,-7.73895299886291,2.77926645774569));
#1307=CARTESIAN_POINT('',(-16.0000000000008,-7.73895299886291,4.27926645774569));
#1308=CARTESIAN_POINT('',(-12.0000000000008,-7.73895299886291,2.77926645774569));
#1309=CARTESIAN_POINT('Origin',(-12.0000000000008,-3.23895299886291,2.77926645774569));
#1310=CARTESIAN_POINT('',(-12.0000000000008,-6.99999999999908,2.77926645774569));
#1311=CARTESIAN_POINT('',(-12.0000000000008,-7.73895299886291,2.77926645774569));
#1312=CARTESIAN_POINT('',(-16.0000000000008,-7.73895299886291,2.77926645774569));
#1313=CARTESIAN_POINT('',(-12.0000000000008,1.880523500569,2.77926645774569));
#1314=CARTESIAN_POINT('Origin',(-16.0000000000008,-5.48895299886291,3.52926645774569));
#1315=CARTESIAN_POINT('Origin',(-12.0000000000008,-5.48895299886291,3.52926645774569));
#1316=CARTESIAN_POINT('',(-12.0000000000008,-6.99999999999908,0.));
#1317=CARTESIAN_POINT('Origin',(-12.0000000000008,0.981582079549659,3.5));
#1318=CARTESIAN_POINT('',(-16.0000000000008,2.08158207954966,3.5));
#1319=CARTESIAN_POINT('Origin',(-16.0000000000008,0.981582079549659,3.5));
#1320=CARTESIAN_POINT('',(-12.0000000000008,2.08158207954966,3.5));
#1321=CARTESIAN_POINT('',(-12.0000000000008,2.08158207954966,3.5));
#1322=CARTESIAN_POINT('Origin',(-12.0000000000008,0.981582079549659,3.5));
#1323=CARTESIAN_POINT('Origin',(-12.0000000000008,0.981582079549659,3.5));
#1324=CARTESIAN_POINT('',(-16.0000000000008,2.48158207954966,3.5));
#1325=CARTESIAN_POINT('Origin',(-16.0000000000008,0.981582079549659,3.5));
#1326=CARTESIAN_POINT('',(-12.0000000000008,2.48158207954966,3.5));
#1327=CARTESIAN_POINT('',(-12.0000000000008,2.48158207954966,3.5));
#1328=CARTESIAN_POINT('',(-12.0000000000008,0.981582079549659,2.));
#1329=CARTESIAN_POINT('Origin',(-12.0000000000008,0.981582079549659,3.5));
#1330=CARTESIAN_POINT('',(-12.0000000000008,0.981582079549659,5.));
#1331=CARTESIAN_POINT('Origin',(-12.0000000000008,0.981582079549659,3.5));
#1332=CARTESIAN_POINT('Origin',(-12.0000000000008,0.981582079549659,3.5));
#1333=CARTESIAN_POINT('Origin',(-16.0000000000008,0.981582079549659,3.5));
#1334=CARTESIAN_POINT('Origin',(-12.0000000000008,7.00000000000092,0.));
#1335=CARTESIAN_POINT('',(-12.0000000000008,-6.99999999999908,5.));
#1336=CARTESIAN_POINT('',(-12.0000000000008,-6.99999999999908,0.));
#1337=CARTESIAN_POINT('',(-12.0000000000008,3.50000000000092,5.));
#1338=CARTESIAN_POINT('',(-12.0000000000008,-6.99999999999908,2.));
#1339=CARTESIAN_POINT('',(-12.0000000000008,3.50000000000092,2.));
#1340=CARTESIAN_POINT('',(-12.0000000000008,-6.99999999999908,0.));
#1341=CARTESIAN_POINT('Origin',(-12.0000000000008,7.00000000000092,0.));
#1342=CARTESIAN_POINT('',(-12.0000000000008,5.38158207954966,5.));
#1343=CARTESIAN_POINT('',(-12.0000000000008,3.50000000000092,5.));
#1344=CARTESIAN_POINT('',(-12.0000000000008,5.38158207954966,2.));
#1345=CARTESIAN_POINT('Origin',(-12.0000000000008,5.38158207954966,3.5));
#1346=CARTESIAN_POINT('',(-12.0000000000008,3.50000000000092,2.));
#1347=CARTESIAN_POINT('Origin',(-12.0000000000008,5.38158207954966,3.5));
#1348=CARTESIAN_POINT('',(-16.0000000000008,6.48158207954966,3.5));
#1349=CARTESIAN_POINT('Origin',(-16.0000000000008,5.38158207954966,3.5));
#1350=CARTESIAN_POINT('',(-12.0000000000008,6.48158207954966,3.5));
#1351=CARTESIAN_POINT('',(-12.0000000000008,6.48158207954966,3.5));
#1352=CARTESIAN_POINT('Origin',(-12.0000000000008,5.38158207954966,3.5));
#1353=CARTESIAN_POINT('Origin',(-12.0000000000008,5.38158207954966,3.5));
#1354=CARTESIAN_POINT('',(-16.0000000000008,6.88158207954966,3.5));
#1355=CARTESIAN_POINT('Origin',(-16.0000000000008,5.38158207954966,3.5));
#1356=CARTESIAN_POINT('',(-12.0000000000008,6.88158207954966,3.5));
#1357=CARTESIAN_POINT('',(-12.0000000000008,6.88158207954966,3.5));
#1358=CARTESIAN_POINT('Origin',(-12.0000000000008,5.38158207954966,3.5));
#1359=CARTESIAN_POINT('Origin',(-12.0000000000008,5.38158207954966,3.5));
#1360=CARTESIAN_POINT('Origin',(-16.0000000000008,5.38158207954966,3.5));
#1361=CARTESIAN_POINT('Origin',(-12.0000000000008,7.00000000000092,0.));
#1362=CARTESIAN_POINT('Origin',(-12.0000000000008,7.00000000000092,0.));
#1363=CARTESIAN_POINT('',(-12.0000000000008,7.00000000000092,5.));
#1364=CARTESIAN_POINT('',(-12.0000000000008,3.50000000000092,5.));
#1365=CARTESIAN_POINT('',(-12.0000000000008,7.00000000000092,2.));
#1366=CARTESIAN_POINT('',(-12.0000000000008,7.00000000000092,0.));
#1367=CARTESIAN_POINT('',(-12.0000000000008,3.50000000000092,2.));
#1368=CARTESIAN_POINT('Origin',(11.9999999999992,7.00000000000093,3.5));
#1369=CARTESIAN_POINT('',(11.9999999999992,7.00000000000092,4.20710682860111));
#1370=CARTESIAN_POINT('',(11.9999999999992,7.00000000000092,4.60710668108713));
#1371=CARTESIAN_POINT('',(11.9999999999992,7.00000000000092,0.));
#1372=CARTESIAN_POINT('',(11.9999999999992,7.00000000000092,2.39289331891287));
#1373=CARTESIAN_POINT('Origin',(11.9999999999992,7.00000000000093,3.5));
#1374=CARTESIAN_POINT('',(11.9999999999992,7.00000000000092,2.79289317139889));
#1375=CARTESIAN_POINT('',(11.9999999999992,7.00000000000092,0.));
#1376=CARTESIAN_POINT('Origin',(11.9999999999992,7.00000000000093,3.5));
#1377=CARTESIAN_POINT('Origin',(11.9999999999992,7.00000000000093,3.5));
#1378=CARTESIAN_POINT('',(15.9999999999992,6.29289317139982,3.5));
#1379=CARTESIAN_POINT('Origin',(15.9999999999992,7.00000000000093,3.5));
#1380=CARTESIAN_POINT('',(11.9999999999992,6.29289317139982,3.5));
#1381=CARTESIAN_POINT('',(11.9999999999992,6.29289317139982,3.5));
#1382=CARTESIAN_POINT('Origin',(11.9999999999992,7.00000000000093,3.5));
#1383=CARTESIAN_POINT('Origin',(11.9999999999992,7.00000000000093,3.5));
#1384=CARTESIAN_POINT('Origin',(11.9999999999992,7.00000000000093,3.5));
#1385=CARTESIAN_POINT('',(15.9999999999992,5.8928933189138,3.5));
#1386=CARTESIAN_POINT('Origin',(15.9999999999992,7.00000000000093,3.5));
#1387=CARTESIAN_POINT('',(11.9999999999992,5.8928933189138,3.5));
#1388=CARTESIAN_POINT('',(11.9999999999992,5.8928933189138,3.5));
#1389=CARTESIAN_POINT('Origin',(11.9999999999992,7.00000000000093,3.5));
#1390=CARTESIAN_POINT('Origin',(11.9999999999992,7.00000000000093,3.5));
#1391=CARTESIAN_POINT('Origin',(15.9999999999992,7.00000000000093,3.5));
#1392=CARTESIAN_POINT('Origin',(11.9999999999992,-6.99999999999908,0.));
#1393=CARTESIAN_POINT('',(11.9999999999992,7.00000000000092,5.));
#1394=CARTESIAN_POINT('',(11.9999999999992,7.00000000000092,0.));
#1395=CARTESIAN_POINT('',(11.9999999999992,-6.99999999999908,5.));
#1396=CARTESIAN_POINT('',(11.9999999999992,-3.49999999999908,5.));
#1397=CARTESIAN_POINT('',(11.9999999999992,-6.99999999999908,4.60710668108713));
#1398=CARTESIAN_POINT('',(11.9999999999992,-6.99999999999908,0.));
#1399=CARTESIAN_POINT('',(11.9999999999992,-6.99999999999908,2.39289331891287));
#1400=CARTESIAN_POINT('Origin',(11.9999999999992,-6.99999999999908,3.5));
#1401=CARTESIAN_POINT('',(11.9999999999992,-6.99999999999908,2.));
#1402=CARTESIAN_POINT('',(11.9999999999992,-6.99999999999908,0.));
#1403=CARTESIAN_POINT('',(11.9999999999992,7.00000000000092,2.));
#1404=CARTESIAN_POINT('',(11.9999999999992,-3.49999999999908,2.));
#1405=CARTESIAN_POINT('',(11.9999999999992,7.00000000000092,0.));
#1406=CARTESIAN_POINT('',(11.9999999999992,-1.1071066810862,3.5));
#1407=CARTESIAN_POINT('Origin',(11.9999999999992,9.24815779512755E-13,3.5));
#1408=CARTESIAN_POINT('Origin',(11.9999999999992,-6.99999999999908,0.));
#1409=CARTESIAN_POINT('',(11.9999999999992,7.00000000000092,0.));
#1410=CARTESIAN_POINT('Origin',(11.9999999999992,9.24815779512755E-13,3.5));
#1411=CARTESIAN_POINT('',(15.9999999999992,-0.707106754843189,3.5));
#1412=CARTESIAN_POINT('Origin',(15.9999999999992,9.24815779512755E-13,3.5));
#1413=CARTESIAN_POINT('',(11.9999999999992,-0.707106754843189,3.5));
#1414=CARTESIAN_POINT('',(11.9999999999992,-0.707106754843189,3.5));
#1415=CARTESIAN_POINT('Origin',(11.9999999999992,9.24815779512755E-13,3.5));
#1416=CARTESIAN_POINT('Origin',(11.9999999999992,9.24815779512755E-13,3.5));
#1417=CARTESIAN_POINT('',(15.9999999999992,-1.1071066810862,3.5));
#1418=CARTESIAN_POINT('Origin',(15.9999999999992,9.24815779512755E-13,3.5));
#1419=CARTESIAN_POINT('',(11.9999999999992,-1.1071066810862,3.5));
#1420=CARTESIAN_POINT('Origin',(15.9999999999992,9.24815779512755E-13,3.5));
#1421=CARTESIAN_POINT('Origin',(11.9999999999992,-6.99999999999908,3.5));
#1422=CARTESIAN_POINT('',(11.9999999999992,-6.99999999999908,2.79289331891287));
#1423=CARTESIAN_POINT('',(11.9999999999992,-6.99999999999908,0.));
#1424=CARTESIAN_POINT('',(11.9999999999992,-8.10710668108621,3.5));
#1425=CARTESIAN_POINT('Origin',(11.9999999999992,-6.99999999999908,3.5));
#1426=CARTESIAN_POINT('Origin',(11.9999999999992,-6.99999999999908,3.5));
#1427=CARTESIAN_POINT('',(11.9999999999992,-6.99999999999908,4.20710668108713));
#1428=CARTESIAN_POINT('',(11.9999999999992,-6.99999999999908,0.));
#1429=CARTESIAN_POINT('',(11.9999999999992,-7.70710668108621,3.5));
#1430=CARTESIAN_POINT('Origin',(11.9999999999992,-6.99999999999908,3.5));
#1431=CARTESIAN_POINT('Origin',(11.9999999999992,-6.99999999999908,3.5));
#1432=CARTESIAN_POINT('Origin',(11.9999999999992,-6.99999999999908,3.5));
#1433=CARTESIAN_POINT('',(15.9999999999992,-7.70710668108621,3.5));
#1434=CARTESIAN_POINT('Origin',(15.9999999999992,-6.99999999999908,3.5));
#1435=CARTESIAN_POINT('',(11.9999999999992,-7.70710668108621,3.5));
#1436=CARTESIAN_POINT('Origin',(11.9999999999992,-6.99999999999908,3.5));
#1437=CARTESIAN_POINT('Origin',(11.9999999999992,-6.99999999999908,3.5));
#1438=CARTESIAN_POINT('',(15.9999999999992,-8.10710668108621,3.5));
#1439=CARTESIAN_POINT('Origin',(15.9999999999992,-6.99999999999908,3.5));
#1440=CARTESIAN_POINT('',(11.9999999999992,-8.10710668108621,3.5));
#1441=CARTESIAN_POINT('Origin',(15.9999999999992,-6.99999999999908,3.5));
#1442=CARTESIAN_POINT('Origin',(11.9999999999992,-6.99999999999908,0.));
#1443=CARTESIAN_POINT('Origin',(11.9999999999992,-6.99999999999908,0.));
#1444=CARTESIAN_POINT('',(11.9999999999992,-6.99999999999908,0.));
#1445=CARTESIAN_POINT('Origin',(-5.00000000000078,-6.99999999999908,2.));
#1446=CARTESIAN_POINT('',(9.99999999999922,-6.99999999999908,0.));
#1447=CARTESIAN_POINT('',(9.99999999999922,-8.99999999999908,2.));
#1448=CARTESIAN_POINT('Origin',(9.99999999999922,-6.99999999999908,2.));
#1449=CARTESIAN_POINT('',(-10.0000000000008,-8.99999999999908,2.));
#1450=CARTESIAN_POINT('',(-5.00000000000078,-8.99999999999908,2.));
#1451=CARTESIAN_POINT('',(-10.0000000000008,-6.99999999999908,0.));
#1452=CARTESIAN_POINT('Origin',(-10.0000000000008,-6.99999999999908,2.));
#1453=CARTESIAN_POINT('',(-5.00000000000078,-6.99999999999908,0.));
#1454=CARTESIAN_POINT('Origin',(9.99999999999922,-3.49999999999908,2.));
#1455=CARTESIAN_POINT('',(9.99999999999923,7.00000000000092,0.));
#1456=CARTESIAN_POINT('Origin',(9.99999999999923,7.00000000000092,2.));
#1457=CARTESIAN_POINT('Origin',(9.99999999999922,-6.99999999999908,2.));
#1458=CARTESIAN_POINT('',(9.99999999999922,-3.49999999999908,0.));
#1459=CARTESIAN_POINT('Origin',(9.99999999999922,-6.99999999999908,2.));
#1460=CARTESIAN_POINT('Origin',(9.99999999999922,-6.99999999999908,2.));
#1461=CARTESIAN_POINT('Origin',(4.99999999999922,7.00000000000092,2.));
#1462=CARTESIAN_POINT('',(-10.0000000000008,7.00000000000092,0.));
#1463=CARTESIAN_POINT('',(-10.0000000000008,9.00000000000092,2.));
#1464=CARTESIAN_POINT('Origin',(-10.0000000000008,7.00000000000092,2.));
#1465=CARTESIAN_POINT('',(9.99999999999923,9.00000000000092,2.));
#1466=CARTESIAN_POINT('',(4.99999999999922,9.00000000000092,2.));
#1467=CARTESIAN_POINT('Origin',(9.99999999999923,7.00000000000092,2.));
#1468=CARTESIAN_POINT('',(4.99999999999922,7.00000000000092,0.));
#1469=CARTESIAN_POINT('Origin',(9.99999999999922,7.00000000000092,2.));
#1470=CARTESIAN_POINT('Origin',(9.99999999999922,7.00000000000092,2.));
#1471=CARTESIAN_POINT('Origin',(-10.0000000000008,3.50000000000092,2.));
#1472=CARTESIAN_POINT('Origin',(-10.0000000000008,-6.99999999999908,2.));
#1473=CARTESIAN_POINT('Origin',(-10.0000000000008,7.00000000000092,2.));
#1474=CARTESIAN_POINT('',(-10.0000000000008,3.50000000000092,0.));
#1475=CARTESIAN_POINT('Origin',(-10.0000000000008,7.00000000000092,2.));
#1476=CARTESIAN_POINT('Origin',(-10.0000000000008,7.00000000000092,2.));
#1477=CARTESIAN_POINT('Origin',(-10.0000000000008,-6.99999999999908,2.));
#1478=CARTESIAN_POINT('Origin',(-10.0000000000008,-6.99999999999908,2.));
#1479=CARTESIAN_POINT('Origin',(9.99999999999922,7.00000000000092,0.));
#1480=CARTESIAN_POINT('',(9.99999999999923,9.00000000000092,5.));
#1481=CARTESIAN_POINT('',(9.99999999999923,9.00000000000092,0.));
#1482=CARTESIAN_POINT('Origin',(9.99999999999922,7.00000000000092,5.));
#1483=CARTESIAN_POINT('Origin',(9.99999999999923,9.00000000000092,0.));
#1484=CARTESIAN_POINT('',(-10.0000000000008,9.00000000000092,5.));
#1485=CARTESIAN_POINT('',(-10.0000000000008,9.00000000000092,0.));
#1486=CARTESIAN_POINT('',(4.99999999999922,9.00000000000092,5.));
#1487=CARTESIAN_POINT('Origin',(-10.0000000000008,7.00000000000092,0.));
#1488=CARTESIAN_POINT('Origin',(-10.0000000000008,7.00000000000092,5.));
#1489=CARTESIAN_POINT('Origin',(-12.0000000000008,7.00000000000092,0.));
#1490=CARTESIAN_POINT('Origin',(-7.7937656328686E-13,9.22595333463505E-13,
0.));
#1491=CARTESIAN_POINT('Origin',(-5.00000000000078,-6.99999999999908,5.));
#1492=CARTESIAN_POINT('',(-10.0000000000008,-6.99999999999908,7.));
#1493=CARTESIAN_POINT('',(-10.0000000000008,-8.99999999999908,5.));
#1494=CARTESIAN_POINT('Origin',(-10.0000000000008,-6.99999999999908,5.));
#1495=CARTESIAN_POINT('',(9.99999999999922,-8.99999999999908,5.));
#1496=CARTESIAN_POINT('',(-5.00000000000078,-8.99999999999908,5.));
#1497=CARTESIAN_POINT('',(9.99999999999922,-6.99999999999908,7.));
#1498=CARTESIAN_POINT('Origin',(9.99999999999922,-6.99999999999908,5.));
#1499=CARTESIAN_POINT('',(-5.00000000000078,-6.99999999999908,7.));
#1500=CARTESIAN_POINT('Origin',(9.99999999999922,-3.49999999999908,5.));
#1501=CARTESIAN_POINT('Origin',(9.99999999999922,-6.99999999999908,5.));
#1502=CARTESIAN_POINT('',(9.99999999999923,7.00000000000092,7.));
#1503=CARTESIAN_POINT('Origin',(9.99999999999923,7.00000000000092,5.));
#1504=CARTESIAN_POINT('',(9.99999999999922,-3.49999999999908,7.));
#1505=CARTESIAN_POINT('Origin',(9.99999999999922,-6.99999999999908,5.));
#1506=CARTESIAN_POINT('Origin',(9.99999999999922,-6.99999999999908,5.));
#1507=CARTESIAN_POINT('Origin',(4.99999999999922,7.00000000000092,5.));
#1508=CARTESIAN_POINT('Origin',(9.99999999999923,7.00000000000092,5.));
#1509=CARTESIAN_POINT('',(-10.0000000000008,7.00000000000092,7.));
#1510=CARTESIAN_POINT('Origin',(-10.0000000000008,7.00000000000092,5.));
#1511=CARTESIAN_POINT('',(4.99999999999922,7.00000000000092,7.));
#1512=CARTESIAN_POINT('Origin',(9.99999999999922,7.00000000000092,5.));
#1513=CARTESIAN_POINT('Origin',(-10.0000000000008,3.50000000000092,5.));
#1514=CARTESIAN_POINT('Origin',(-10.0000000000008,7.00000000000092,5.));
#1515=CARTESIAN_POINT('Origin',(-10.0000000000008,-6.99999999999908,5.));
#1516=CARTESIAN_POINT('',(-10.0000000000008,3.50000000000092,7.));
#1517=CARTESIAN_POINT('Origin',(-10.0000000000008,7.00000000000092,5.));
#1518=CARTESIAN_POINT('Origin',(-10.0000000000008,-6.99999999999908,5.));
#1519=CARTESIAN_POINT('Origin',(-10.0000000000008,-6.99999999999908,5.));
#1520=CARTESIAN_POINT('Origin',(9.99999999999922,-6.99999999999908,0.));
#1521=CARTESIAN_POINT('',(9.99999999999922,-8.99999999999908,0.));
#1522=CARTESIAN_POINT('Origin',(-10.0000000000008,-8.99999999999908,0.));
#1523=CARTESIAN_POINT('',(-10.0000000000008,-8.99999999999908,0.));
#1524=CARTESIAN_POINT('Origin',(-10.0000000000008,-6.99999999999908,0.));
#1525=CARTESIAN_POINT('Origin',(-7.7937656328686E-13,9.22595333463505E-13,
7.));
#1526=UNCERTAINTY_MEASURE_WITH_UNIT(LENGTH_MEASURE(0.01),#1530,
'DISTANCE_ACCURACY_VALUE',
'Maximum model space distance between geometric entities at asserted c
onnectivities');
#1527=UNCERTAINTY_MEASURE_WITH_UNIT(LENGTH_MEASURE(0.01),#1530,
'DISTANCE_ACCURACY_VALUE',
'Maximum model space distance between geometric entities at asserted c
onnectivities');
#1528=(
GEOMETRIC_REPRESENTATION_CONTEXT(3)
GLOBAL_UNCERTAINTY_ASSIGNED_CONTEXT((#1526))
GLOBAL_UNIT_ASSIGNED_CONTEXT((#1530,#1532,#1533))
REPRESENTATION_CONTEXT('','3D')
);
#1529=(
GEOMETRIC_REPRESENTATION_CONTEXT(3)
GLOBAL_UNCERTAINTY_ASSIGNED_CONTEXT((#1527))
GLOBAL_UNIT_ASSIGNED_CONTEXT((#1530,#1532,#1533))
REPRESENTATION_CONTEXT('','3D')
);
#1530=(
LENGTH_UNIT()
NAMED_UNIT(*)
SI_UNIT(.MILLI.,.METRE.)
);
#1531=(
LENGTH_UNIT()
NAMED_UNIT(*)
SI_UNIT($,.METRE.)
);
#1532=(
NAMED_UNIT(*)
PLANE_ANGLE_UNIT()
SI_UNIT($,.RADIAN.)
);
#1533=(
NAMED_UNIT(*)
SI_UNIT($,.STERADIAN.)
SOLID_ANGLE_UNIT()
);
#1534=SHAPE_DEFINITION_REPRESENTATION(#1535,#1536);
#1535=PRODUCT_DEFINITION_SHAPE('',$,#1538);
#1536=SHAPE_REPRESENTATION('',(#884),#1528);
#1537=PRODUCT_DEFINITION_CONTEXT('part definition',#1542,'design');
#1538=PRODUCT_DEFINITION('Elecrical Connector','Elecrical Connector v2',
#1539,#1537);
#1539=PRODUCT_DEFINITION_FORMATION('',$,#1544);
#1540=PRODUCT_RELATED_PRODUCT_CATEGORY('Elecrical Connector v2',
'Elecrical Connector v2',(#1544));
#1541=APPLICATION_PROTOCOL_DEFINITION('international standard',
'automotive_design',2009,#1542);
#1542=APPLICATION_CONTEXT(
'Core Data for Automotive Mechanical Design Process');
#1543=PRODUCT_CONTEXT('part definition',#1542,'mechanical');
#1544=PRODUCT('Elecrical Connector','Elecrical Connector v2',$,(#1543));
#1545=PRESENTATION_STYLE_ASSIGNMENT((#1549));
#1546=PRESENTATION_STYLE_ASSIGNMENT((#1550));
#1547=PRESENTATION_STYLE_ASSIGNMENT((#1551));
#1548=PRESENTATION_STYLE_ASSIGNMENT((#1552));
#1549=SURFACE_STYLE_USAGE(.BOTH.,#1553);
#1550=SURFACE_STYLE_USAGE(.BOTH.,#1554);
#1551=SURFACE_STYLE_USAGE(.BOTH.,#1555);
#1552=SURFACE_STYLE_USAGE(.BOTH.,#1556);
#1553=SURFACE_SIDE_STYLE('',(#1557));
#1554=SURFACE_SIDE_STYLE('',(#1558));
#1555=SURFACE_SIDE_STYLE('',(#1559));
#1556=SURFACE_SIDE_STYLE('',(#1560));
#1557=SURFACE_STYLE_FILL_AREA(#1561);
#1558=SURFACE_STYLE_FILL_AREA(#1562);
#1559=SURFACE_STYLE_FILL_AREA(#1563);
#1560=SURFACE_STYLE_FILL_AREA(#1564);
#1561=FILL_AREA_STYLE('Steel - Satin',(#1565));
#1562=FILL_AREA_STYLE('Paint - Metallic (Black)',(#1566));
#1563=FILL_AREA_STYLE('Paint - Metallic (Yellow)',(#1567));
#1564=FILL_AREA_STYLE('Aluminum - Polished',(#1568));
#1565=FILL_AREA_STYLE_COLOUR('Steel - Satin',#1569);
#1566=FILL_AREA_STYLE_COLOUR('Paint - Metallic (Black)',#1570);
#1567=FILL_AREA_STYLE_COLOUR('Paint - Metallic (Yellow)',#1571);
#1568=FILL_AREA_STYLE_COLOUR('Aluminum - Polished',#1572);
#1569=COLOUR_RGB('Steel - Satin',0.627450980392157,0.627450980392157,0.627450980392157);
#1570=COLOUR_RGB('Paint - Metallic (Black)',0.0980392156862745,0.0980392156862745,
0.0980392156862745);
#1571=COLOUR_RGB('Paint - Metallic (Yellow)',0.909803921568627,0.67843137254902,
0.137254901960784);
#1572=COLOUR_RGB('Aluminum - Polished',0.96078431372549,0.96078431372549,
0.964705882352941);
ENDSEC;
END-ISO-10303-21;
