ISO-10303-21;
HEADER;
/* Generated by software containing ST-Developer
 * from STEP Tools, Inc. (www.steptools.com) 
 */

FILE_DESCRIPTION(
/* description */ (''),
/* implementation_level */ '2;1');

FILE_NAME(
/* name */ 'Fan.step',
/* time_stamp */ '2026-07-19T11:28:13+05:30',
/* author */ (''),
/* organization */ (''),
/* preprocessor_version */ 'ST-DEVELOPER v20.1',
/* originating_system */ 'Autodesk Translation Framework v15.8.0.0',
/* authorisation */ '');

FILE_SCHEMA (('AUTOMOTIVE_DESIGN { 1 0 10303 214 3 1 1 }'));
ENDSEC;

DATA;
#10=MECHANICAL_DESIGN_GEOMETRIC_PRESENTATION_REPRESENTATION('',(#179,#180,
#181,#182,#183,#184,#185,#186,#187,#188),#428);
#11=ITEM_DEFINED_TRANSFORMATION($,$,#214,#232);
#12=(
REPRESENTATION_RELATIONSHIP($,$,#439,#438)
REPRESENTATION_RELATIONSHIP_WITH_TRANSFORMATION(#11)
SHAPE_REPRESENTATION_RELATIONSHIP()
);
#13=CONTEXT_DEPENDENT_SHAPE_REPRESENTATION(#12,#437);
#14=NEXT_ASSEMBLY_USAGE_OCCURRENCE('Component1:1','Component1:1',
'Component1:1',#441,#442,'Component1:1');
#15=SHAPE_REPRESENTATION_RELATIONSHIP('SRR','None',#439,#16);
#16=ADVANCED_BREP_SHAPE_REPRESENTATION('',(#17),#427);
#17=MANIFOLD_SOLID_BREP('Body1',#200);
#18=FACE_BOUND('',#53,.T.);
#19=ELLIPSE('',#223,5.75789098948805,5.75);
#20=ELLIPSE('',#225,280.033919285235,5.75);
#21=ELLIPSE('',#228,5.75789098948805,5.75);
#22=(
BOUNDED_CURVE()
B_SPLINE_CURVE(5,(#361,#362,#363,#364,#365,#366,#367,#368,#369,#370,#371,
#372,#373,#374,#375,#376,#377,#378,#379,#380),.UNSPECIFIED.,.F.,.F.)
B_SPLINE_CURVE_WITH_KNOTS((6,1,1,1,1,1,1,1,1,1,1,1,1,1,1,6),(-1.,-0.933333333333333,
-0.866666666666667,-0.8,-0.733333333333333,-0.666666666666667,-0.6,-0.533333333333333,
-0.466666666666667,-0.4,-0.333333333333333,-0.266666666666667,-0.2,-0.133333333333333,
-0.0666666666666667,-0.0475338197580458),.UNSPECIFIED.)
CURVE()
GEOMETRIC_REPRESENTATION_ITEM()
RATIONAL_B_SPLINE_CURVE((1.,1.,1.,1.,1.,1.,1.,1.,1.,1.,1.,1.,1.,1.,1.,1.,
1.,1.,1.,1.))
REPRESENTATION_ITEM('')
);
#23=(
BOUNDED_CURVE()
B_SPLINE_CURVE(5,(#383,#384,#385,#386,#387,#388,#389,#390,#391,#392,#393,
#394,#395,#396,#397,#398,#399,#400,#401,#402),.UNSPECIFIED.,.F.,.F.)
B_SPLINE_CURVE_WITH_KNOTS((6,1,1,1,1,1,1,1,1,1,1,1,1,1,1,6),(0.0477177017973917,
0.0666666666666667,0.133333333333333,0.2,0.266666666666667,0.333333333333333,
0.4,0.466666666666667,0.533333333333333,0.6,0.666666666666667,0.733333333333333,
0.8,0.866666666666667,0.933333333333333,1.),.UNSPECIFIED.)
CURVE()
GEOMETRIC_REPRESENTATION_ITEM()
RATIONAL_B_SPLINE_CURVE((1.,1.,1.,1.,1.,1.,1.,1.,1.,1.,1.,1.,1.,1.,1.,1.,
1.,1.,1.,1.))
REPRESENTATION_ITEM('')
);
#24=B_SPLINE_CURVE_WITH_KNOTS('',3,(#354,#355,#356,#357,#358,#359),
 .UNSPECIFIED.,.F.,.F.,(4,2,4),(0.,0.0150151075894833,0.0300314914789847),
 .UNSPECIFIED.);
#25=(
BOUNDED_SURFACE()
B_SPLINE_SURFACE(5,1,((#312,#313),(#314,#315),(#316,#317),(#318,#319),(#320,
#321),(#322,#323),(#324,#325),(#326,#327),(#328,#329),(#330,#331),(#332,
#333),(#334,#335),(#336,#337),(#338,#339),(#340,#341),(#342,#343),(#344,
#345),(#346,#347),(#348,#349),(#350,#351)),.UNSPECIFIED.,.F.,.F.,.F.)
B_SPLINE_SURFACE_WITH_KNOTS((6,1,1,1,1,1,1,1,1,1,1,1,1,1,1,6),(2,2),(0.,
0.0666666666666667,0.133333333333333,0.2,0.266666666666667,0.333333333333333,
0.4,0.466666666666667,0.533333333333333,0.6,0.666666666666667,0.733333333333333,
0.8,0.866666666666667,0.933333333333333,1.),(-0.63947510364675,0.62447510364675),
 .UNSPECIFIED.)
GEOMETRIC_REPRESENTATION_ITEM()
RATIONAL_B_SPLINE_SURFACE(((1.,1.),(1.,1.),(1.,1.),(1.,1.),(1.,1.),(1.,
1.),(1.,1.),(1.,1.),(1.,1.),(1.,1.),(1.,1.),(1.,1.),(1.,1.),(1.,1.),(1.,
1.),(1.,1.),(1.,1.),(1.,1.),(1.,1.),(1.,1.)))
REPRESENTATION_ITEM('')
SURFACE()
);
#26=CYLINDRICAL_SURFACE('',#220,2.5);
#27=CYLINDRICAL_SURFACE('',#229,5.75);
#28=CIRCLE('',#218,2.5);
#29=CIRCLE('',#219,5.75);
#30=CIRCLE('',#221,2.5);
#31=CIRCLE('',#230,5.75);
#32=FACE_OUTER_BOUND('',#43,.T.);
#33=FACE_OUTER_BOUND('',#44,.T.);
#34=FACE_OUTER_BOUND('',#45,.T.);
#35=FACE_OUTER_BOUND('',#46,.T.);
#36=FACE_OUTER_BOUND('',#47,.T.);
#37=FACE_OUTER_BOUND('',#48,.T.);
#38=FACE_OUTER_BOUND('',#49,.T.);
#39=FACE_OUTER_BOUND('',#50,.T.);
#40=FACE_OUTER_BOUND('',#51,.T.);
#41=FACE_OUTER_BOUND('',#52,.T.);
#42=FACE_OUTER_BOUND('',#54,.T.);
#43=EDGE_LOOP('',(#123,#124,#125,#126));
#44=EDGE_LOOP('',(#127,#128,#129,#130));
#45=EDGE_LOOP('',(#131,#132,#133,#134));
#46=EDGE_LOOP('',(#135,#136,#137,#138));
#47=EDGE_LOOP('',(#139,#140,#141,#142));
#48=EDGE_LOOP('',(#143,#144,#145,#146));
#49=EDGE_LOOP('',(#147,#148,#149,#150));
#50=EDGE_LOOP('',(#151,#152,#153,#154));
#51=EDGE_LOOP('',(#155,#156,#157,#158));
#52=EDGE_LOOP('',(#159,#160,#161,#162));
#53=EDGE_LOOP('',(#163,#164,#165,#166));
#54=EDGE_LOOP('',(#167,#168,#169,#170));
#55=LINE('',#292,#69);
#56=LINE('',#294,#70);
#57=LINE('',#296,#71);
#58=LINE('',#297,#72);
#59=LINE('',#301,#73);
#60=LINE('',#303,#74);
#61=LINE('',#305,#75);
#62=LINE('',#306,#76);
#63=LINE('',#382,#77);
#64=LINE('',#407,#78);
#65=LINE('',#408,#79);
#66=LINE('',#413,#80);
#67=LINE('',#414,#81);
#68=LINE('',#416,#82);
#69=VECTOR('',#239,10.);
#70=VECTOR('',#240,10.);
#71=VECTOR('',#241,10.);
#72=VECTOR('',#242,10.);
#73=VECTOR('',#245,10.);
#74=VECTOR('',#246,10.);
#75=VECTOR('',#247,10.);
#76=VECTOR('',#248,10.);
#77=VECTOR('',#259,10.);
#78=VECTOR('',#264,10.);
#79=VECTOR('',#265,10.);
#80=VECTOR('',#270,10.);
#81=VECTOR('',#271,10.);
#82=VECTOR('',#274,10.);
#83=VERTEX_POINT('',#290);
#84=VERTEX_POINT('',#291);
#85=VERTEX_POINT('',#293);
#86=VERTEX_POINT('',#295);
#87=VERTEX_POINT('',#299);
#88=VERTEX_POINT('',#300);
#89=VERTEX_POINT('',#302);
#90=VERTEX_POINT('',#304);
#91=VERTEX_POINT('',#352);
#92=VERTEX_POINT('',#353);
#93=VERTEX_POINT('',#360);
#94=VERTEX_POINT('',#381);
#95=VERTEX_POINT('',#404);
#96=VERTEX_POINT('',#406);
#97=VERTEX_POINT('',#410);
#98=VERTEX_POINT('',#412);
#99=EDGE_CURVE('',#83,#84,#55,.T.);
#100=EDGE_CURVE('',#85,#83,#56,.T.);
#101=EDGE_CURVE('',#86,#85,#57,.T.);
#102=EDGE_CURVE('',#84,#86,#58,.T.);
#103=EDGE_CURVE('',#87,#88,#59,.T.);
#104=EDGE_CURVE('',#89,#87,#60,.T.);
#105=EDGE_CURVE('',#90,#89,#61,.T.);
#106=EDGE_CURVE('',#88,#90,#62,.T.);
#107=EDGE_CURVE('',#84,#87,#28,.T.);
#108=EDGE_CURVE('',#88,#83,#29,.T.);
#109=EDGE_CURVE('',#89,#86,#30,.T.);
#110=EDGE_CURVE('',#91,#92,#24,.T.);
#111=EDGE_CURVE('',#93,#91,#22,.T.);
#112=EDGE_CURVE('',#93,#94,#63,.T.);
#113=EDGE_CURVE('',#92,#94,#23,.T.);
#114=EDGE_CURVE('',#95,#91,#19,.T.);
#115=EDGE_CURVE('',#95,#96,#64,.T.);
#116=EDGE_CURVE('',#96,#93,#65,.T.);
#117=EDGE_CURVE('',#97,#95,#20,.T.);
#118=EDGE_CURVE('',#98,#97,#66,.T.);
#119=EDGE_CURVE('',#96,#98,#67,.T.);
#120=EDGE_CURVE('',#94,#98,#68,.T.);
#121=EDGE_CURVE('',#92,#97,#21,.T.);
#122=EDGE_CURVE('',#85,#90,#31,.T.);
#123=ORIENTED_EDGE('',*,*,#99,.F.);
#124=ORIENTED_EDGE('',*,*,#100,.F.);
#125=ORIENTED_EDGE('',*,*,#101,.F.);
#126=ORIENTED_EDGE('',*,*,#102,.F.);
#127=ORIENTED_EDGE('',*,*,#103,.F.);
#128=ORIENTED_EDGE('',*,*,#104,.F.);
#129=ORIENTED_EDGE('',*,*,#105,.F.);
#130=ORIENTED_EDGE('',*,*,#106,.F.);
#131=ORIENTED_EDGE('',*,*,#99,.T.);
#132=ORIENTED_EDGE('',*,*,#107,.T.);
#133=ORIENTED_EDGE('',*,*,#103,.T.);
#134=ORIENTED_EDGE('',*,*,#108,.T.);
#135=ORIENTED_EDGE('',*,*,#102,.T.);
#136=ORIENTED_EDGE('',*,*,#109,.F.);
#137=ORIENTED_EDGE('',*,*,#104,.T.);
#138=ORIENTED_EDGE('',*,*,#107,.F.);
#139=ORIENTED_EDGE('',*,*,#110,.F.);
#140=ORIENTED_EDGE('',*,*,#111,.F.);
#141=ORIENTED_EDGE('',*,*,#112,.T.);
#142=ORIENTED_EDGE('',*,*,#113,.F.);
#143=ORIENTED_EDGE('',*,*,#114,.F.);
#144=ORIENTED_EDGE('',*,*,#115,.T.);
#145=ORIENTED_EDGE('',*,*,#116,.T.);
#146=ORIENTED_EDGE('',*,*,#111,.T.);
#147=ORIENTED_EDGE('',*,*,#117,.F.);
#148=ORIENTED_EDGE('',*,*,#118,.F.);
#149=ORIENTED_EDGE('',*,*,#119,.F.);
#150=ORIENTED_EDGE('',*,*,#115,.F.);
#151=ORIENTED_EDGE('',*,*,#119,.T.);
#152=ORIENTED_EDGE('',*,*,#120,.F.);
#153=ORIENTED_EDGE('',*,*,#112,.F.);
#154=ORIENTED_EDGE('',*,*,#116,.F.);
#155=ORIENTED_EDGE('',*,*,#121,.F.);
#156=ORIENTED_EDGE('',*,*,#113,.T.);
#157=ORIENTED_EDGE('',*,*,#120,.T.);
#158=ORIENTED_EDGE('',*,*,#118,.T.);
#159=ORIENTED_EDGE('',*,*,#100,.T.);
#160=ORIENTED_EDGE('',*,*,#108,.F.);
#161=ORIENTED_EDGE('',*,*,#106,.T.);
#162=ORIENTED_EDGE('',*,*,#122,.F.);
#163=ORIENTED_EDGE('',*,*,#114,.T.);
#164=ORIENTED_EDGE('',*,*,#110,.T.);
#165=ORIENTED_EDGE('',*,*,#121,.T.);
#166=ORIENTED_EDGE('',*,*,#117,.T.);
#167=ORIENTED_EDGE('',*,*,#101,.T.);
#168=ORIENTED_EDGE('',*,*,#122,.T.);
#169=ORIENTED_EDGE('',*,*,#105,.T.);
#170=ORIENTED_EDGE('',*,*,#109,.T.);
#171=PLANE('',#215);
#172=PLANE('',#216);
#173=PLANE('',#217);
#174=PLANE('',#222);
#175=PLANE('',#224);
#176=PLANE('',#226);
#177=PLANE('',#227);
#178=PLANE('',#231);
#179=STYLED_ITEM('',(#454),#189);
#180=STYLED_ITEM('',(#454),#190);
#181=STYLED_ITEM('',(#454),#192);
#182=STYLED_ITEM('',(#455),#193);
#183=STYLED_ITEM('',(#455),#194);
#184=STYLED_ITEM('',(#455),#196);
#185=STYLED_ITEM('',(#455),#197);
#186=STYLED_ITEM('',(#454),#198);
#187=STYLED_ITEM('',(#454),#199);
#188=STYLED_ITEM('',(#453),#17);
#189=ADVANCED_FACE('',(#32),#171,.F.);
#190=ADVANCED_FACE('',(#33),#172,.F.);
#191=ADVANCED_FACE('',(#34),#173,.F.);
#192=ADVANCED_FACE('',(#35),#26,.F.);
#193=ADVANCED_FACE('',(#36),#25,.T.);
#194=ADVANCED_FACE('',(#37),#174,.F.);
#195=ADVANCED_FACE('',(#38),#175,.T.);
#196=ADVANCED_FACE('',(#39),#176,.T.);
#197=ADVANCED_FACE('',(#40),#177,.T.);
#198=ADVANCED_FACE('',(#41,#18),#27,.T.);
#199=ADVANCED_FACE('',(#42),#178,.T.);
#200=CLOSED_SHELL('',(#189,#190,#191,#192,#193,#194,#195,#196,#197,#198,
#199));
#201=DERIVED_UNIT_ELEMENT(#203,1.);
#202=DERIVED_UNIT_ELEMENT(#430,-3.);
#203=(
MASS_UNIT()
NAMED_UNIT(*)
SI_UNIT(.KILO.,.GRAM.)
);
#204=DERIVED_UNIT((#201,#202));
#205=MEASURE_REPRESENTATION_ITEM('density measure',
POSITIVE_RATIO_MEASURE(7850.),#204);
#206=PROPERTY_DEFINITION_REPRESENTATION(#211,#208);
#207=PROPERTY_DEFINITION_REPRESENTATION(#212,#209);
#208=REPRESENTATION('material name',(#210),#427);
#209=REPRESENTATION('density',(#205),#427);
#210=DESCRIPTIVE_REPRESENTATION_ITEM('Steel','Steel');
#211=PROPERTY_DEFINITION('material property','material name',#442);
#212=PROPERTY_DEFINITION('material property','density of part',#442);
#213=AXIS2_PLACEMENT_3D('',#287,#233,#234);
#214=AXIS2_PLACEMENT_3D('',#288,#235,#236);
#215=AXIS2_PLACEMENT_3D('',#289,#237,#238);
#216=AXIS2_PLACEMENT_3D('',#298,#243,#244);
#217=AXIS2_PLACEMENT_3D('',#307,#249,#250);
#218=AXIS2_PLACEMENT_3D('',#308,#251,#252);
#219=AXIS2_PLACEMENT_3D('',#309,#253,#254);
#220=AXIS2_PLACEMENT_3D('',#310,#255,#256);
#221=AXIS2_PLACEMENT_3D('',#311,#257,#258);
#222=AXIS2_PLACEMENT_3D('',#403,#260,#261);
#223=AXIS2_PLACEMENT_3D('',#405,#262,#263);
#224=AXIS2_PLACEMENT_3D('',#409,#266,#267);
#225=AXIS2_PLACEMENT_3D('',#411,#268,#269);
#226=AXIS2_PLACEMENT_3D('',#415,#272,#273);
#227=AXIS2_PLACEMENT_3D('',#417,#275,#276);
#228=AXIS2_PLACEMENT_3D('',#418,#277,#278);
#229=AXIS2_PLACEMENT_3D('',#419,#279,#280);
#230=AXIS2_PLACEMENT_3D('',#420,#281,#282);
#231=AXIS2_PLACEMENT_3D('',#421,#283,#284);
#232=AXIS2_PLACEMENT_3D('',#422,#285,#286);
#233=DIRECTION('axis',(0.,0.,1.));
#234=DIRECTION('refdir',(1.,0.,0.));
#235=DIRECTION('axis',(0.,0.,1.));
#236=DIRECTION('refdir',(1.,0.,0.));
#237=DIRECTION('center_axis',(-1.,0.,0.));
#238=DIRECTION('ref_axis',(0.,1.,0.));
#239=DIRECTION('',(0.,-1.,0.));
#240=DIRECTION('',(0.,0.,-1.));
#241=DIRECTION('',(0.,1.,0.));
#242=DIRECTION('',(0.,0.,1.));
#243=DIRECTION('center_axis',(-1.,0.,0.));
#244=DIRECTION('ref_axis',(0.,1.,0.));
#245=DIRECTION('',(0.,-1.,0.));
#246=DIRECTION('',(0.,0.,-1.));
#247=DIRECTION('',(0.,1.,0.));
#248=DIRECTION('',(0.,0.,1.));
#249=DIRECTION('center_axis',(0.,0.,1.));
#250=DIRECTION('ref_axis',(1.,0.,0.));
#251=DIRECTION('center_axis',(0.,0.,1.));
#252=DIRECTION('ref_axis',(-1.,0.,0.));
#253=DIRECTION('center_axis',(0.,0.,-1.));
#254=DIRECTION('ref_axis',(1.,0.,0.));
#255=DIRECTION('center_axis',(0.,0.,-1.));
#256=DIRECTION('ref_axis',(-1.,0.,0.));
#257=DIRECTION('center_axis',(0.,0.,-1.));
#258=DIRECTION('ref_axis',(-1.,0.,0.));
#259=DIRECTION('',(0.0523359562429438,0.,0.998629534754574));
#260=DIRECTION('center_axis',(0.0523359562429438,0.,0.998629534754574));
#261=DIRECTION('ref_axis',(0.,1.,0.));
#262=DIRECTION('center_axis',(-0.0523359562429438,0.,-0.998629534754574));
#263=DIRECTION('ref_axis',(0.998629534754574,0.,-0.0523359562429438));
#264=DIRECTION('',(-0.918561819631689,-0.392334990289345,0.0481397851010863));
#265=DIRECTION('',(-0.998629534754574,0.,0.0523359562429438));
#266=DIRECTION('center_axis',(0.391797308820589,-0.919822404268704,-0.020533226884359));
#267=DIRECTION('ref_axis',(0.918561819631689,0.392334990289345,-0.0481397851010863));
#268=DIRECTION('center_axis',(0.391797308820589,-0.919822404268704,-0.020533226884359));
#269=DIRECTION('ref_axis',(0.0080465594822006,-0.0188909048693801,0.999789171072439));
#270=DIRECTION('',(0.918561819631689,0.392334990289345,-0.0481397851010863));
#271=DIRECTION('',(0.0523359562429438,0.,0.998629534754574));
#272=DIRECTION('center_axis',(0.,-1.,0.));
#273=DIRECTION('ref_axis',(0.998629534754574,0.,-0.0523359562429438));
#274=DIRECTION('',(0.998629534754574,0.,-0.0523359562429438));
#275=DIRECTION('center_axis',(0.0523359562429438,0.,0.998629534754574));
#276=DIRECTION('ref_axis',(0.,1.,0.));
#277=DIRECTION('center_axis',(0.0523359562429438,0.,0.998629534754574));
#278=DIRECTION('ref_axis',(0.998629534754574,0.,-0.0523359562429438));
#279=DIRECTION('center_axis',(0.,0.,1.));
#280=DIRECTION('ref_axis',(-1.,1.22464679914735E-16,0.));
#281=DIRECTION('center_axis',(0.,0.,1.));
#282=DIRECTION('ref_axis',(1.,0.,0.));
#283=DIRECTION('center_axis',(0.,0.,1.));
#284=DIRECTION('ref_axis',(1.,0.,0.));
#285=DIRECTION('',(0.,0.,1.));
#286=DIRECTION('',(1.,0.,0.));
#287=CARTESIAN_POINT('',(0.,0.,0.));
#288=CARTESIAN_POINT('',(0.,0.,0.));
#289=CARTESIAN_POINT('Origin',(0.,2.5,3.));
#290=CARTESIAN_POINT('',(0.,5.75,-3.));
#291=CARTESIAN_POINT('',(0.,2.5,-3.));
#292=CARTESIAN_POINT('',(0.,1.25,-3.));
#293=CARTESIAN_POINT('',(0.,5.75,3.));
#294=CARTESIAN_POINT('',(0.,5.75,0.));
#295=CARTESIAN_POINT('',(0.,2.5,3.));
#296=CARTESIAN_POINT('',(0.,1.25,3.));
#297=CARTESIAN_POINT('',(0.,2.5,3.));
#298=CARTESIAN_POINT('Origin',(0.,-5.75,3.));
#299=CARTESIAN_POINT('',(0.,-2.5,-3.));
#300=CARTESIAN_POINT('',(0.,-5.75,-3.));
#301=CARTESIAN_POINT('',(0.,-2.875,-3.));
#302=CARTESIAN_POINT('',(0.,-2.5,3.));
#303=CARTESIAN_POINT('',(0.,-2.5,3.));
#304=CARTESIAN_POINT('',(0.,-5.75,3.));
#305=CARTESIAN_POINT('',(0.,-2.875,3.));
#306=CARTESIAN_POINT('',(0.,-5.75,0.));
#307=CARTESIAN_POINT('Origin',(0.,0.,-3.));
#308=CARTESIAN_POINT('Origin',(0.,0.,-3.));
#309=CARTESIAN_POINT('Origin',(0.,0.,-3.));
#310=CARTESIAN_POINT('Origin',(0.,0.,3.));
#311=CARTESIAN_POINT('Origin',(0.,0.,3.));
#312=CARTESIAN_POINT('Ctrl Pts',(-0.419018478861326,4.00000004522083,-6.38156701950441));
#313=CARTESIAN_POINT('Ctrl Pts',(0.242481948560397,4.00000004522083,6.24061305512013));
#314=CARTESIAN_POINT('Ctrl Pts',(-1.45426103614429,4.09406569093995,-6.32731225605792));
#315=CARTESIAN_POINT('Ctrl Pts',(-0.792760608722567,4.09406569093995,6.29486781856663));
#316=CARTESIAN_POINT('Ctrl Pts',(-3.5360519642181,4.27031430228113,-6.21821021658599));
#317=CARTESIAN_POINT('Ctrl Pts',(-2.87455153679638,4.27031430228113,6.40396985803856));
#318=CARTESIAN_POINT('Ctrl Pts',(-6.6926558917889,4.49903938561382,-6.05277961466587));
#319=CARTESIAN_POINT('Ctrl Pts',(-6.03115546436717,4.49903938561382,6.56940045995867));
#320=CARTESIAN_POINT('Ctrl Pts',(-10.9697888791432,4.73219054847654,-5.82862457310039));
#321=CARTESIAN_POINT('Ctrl Pts',(-10.3082884517215,4.73219054847654,6.79355550152415));
#322=CARTESIAN_POINT('Ctrl Pts',(-16.4272301087886,4.89959863496299,-5.54261219768697));
#323=CARTESIAN_POINT('Ctrl Pts',(-15.7657296813669,4.89959863496299,7.07956787693758));
#324=CARTESIAN_POINT('Ctrl Pts',(-21.9817714201142,4.93539002360921,-5.25151102262449));
#325=CARTESIAN_POINT('Ctrl Pts',(-21.3202709926924,4.93539002360921,7.37066905200006));
#326=CARTESIAN_POINT('Ctrl Pts',(-27.6010584511299,4.82875655276836,-4.95701666817496));
#327=CARTESIAN_POINT('Ctrl Pts',(-26.9395580237081,4.82875655276836,7.66516340644959));
#328=CARTESIAN_POINT('Ctrl Pts',(-33.2260080888006,4.56596078297797,-4.66222554908569));
#329=CARTESIAN_POINT('Ctrl Pts',(-32.5645076613789,4.56596078297797,7.95995452553886));
#330=CARTESIAN_POINT('Ctrl Pts',(-38.7624895200271,4.13089185668828,-4.37207085223332));
#331=CARTESIAN_POINT('Ctrl Pts',(-38.1009890926053,4.13089185668828,8.25010922239123));
#332=CARTESIAN_POINT('Ctrl Pts',(-44.0705578550659,3.50602179171295,-4.0938867785113));
#333=CARTESIAN_POINT('Ctrl Pts',(-43.4090574276441,3.50602179171295,8.52829329611324));
#334=CARTESIAN_POINT('Ctrl Pts',(-48.9577240315657,2.67357608850101,-3.83776125221375));
#335=CARTESIAN_POINT('Ctrl Pts',(-48.296223604144,2.67357608850101,8.78441882241079));
#336=CARTESIAN_POINT('Ctrl Pts',(-53.2061166212732,1.61599119211235,-3.61511243106466));
#337=CARTESIAN_POINT('Ctrl Pts',(-52.5446161938515,1.61599119211235,9.00706764355989));
#338=CARTESIAN_POINT('Ctrl Pts',(-56.5961216532719,0.316958522669485,-3.43744979557927));
#339=CARTESIAN_POINT('Ctrl Pts',(-55.9346212258502,0.316958522669485,9.18473027904528));
#340=CARTESIAN_POINT('Ctrl Pts',(-58.9340486351308,-1.23686643033708,-3.31492423433414));
#341=CARTESIAN_POINT('Ctrl Pts',(-58.2725482077091,-1.23686643033708,9.3072558402904));
#342=CARTESIAN_POINT('Ctrl Pts',(-60.0792548131257,-3.05377789721298,-3.25490652172421));
#343=CARTESIAN_POINT('Ctrl Pts',(-59.417754385704,-3.05377789721298,9.36727355290034));
#344=CARTESIAN_POINT('Ctrl Pts',(-60.0015826641039,-4.7174827270266,-3.25897714656659));
#345=CARTESIAN_POINT('Ctrl Pts',(-59.3400822366822,-4.7174827270266,9.36320292805796));
#346=CARTESIAN_POINT('Ctrl Pts',(-59.3858312178401,-6.08160711077768,-3.29124731245559));
#347=CARTESIAN_POINT('Ctrl Pts',(-58.7243307904184,-6.08160711077768,9.33093276216895));
#348=CARTESIAN_POINT('Ctrl Pts',(-58.7293013810704,-7.04236353448506,-3.32565458323375));
#349=CARTESIAN_POINT('Ctrl Pts',(-58.0678009536486,-7.04236353448506,9.2965254913908));
#350=CARTESIAN_POINT('Ctrl Pts',(-58.3395316220753,-7.53557654739335,-3.34608155073437));
#351=CARTESIAN_POINT('Ctrl Pts',(-57.6780311946536,-7.53557654739335,9.27609852389018));
#352=CARTESIAN_POINT('',(-3.81162566941515,4.30511437202957,0.0495529848925951));
#353=CARTESIAN_POINT('',(-3.81042506276466,4.30617705639874,0.349901767563627));
#354=CARTESIAN_POINT('Ctrl Pts',(-3.81162566941515,4.30511437202957,0.0495529848925887));
#355=CARTESIAN_POINT('Ctrl Pts',(-3.81142556960144,4.30529153470644,0.0996026299722828));
#356=CARTESIAN_POINT('Ctrl Pts',(-3.81122543519554,4.30546870309747,0.14966499819327));
#357=CARTESIAN_POINT('Ctrl Pts',(-3.81082518205706,4.3058229762782,0.249793994327857));
#358=CARTESIAN_POINT('Ctrl Pts',(-3.81062511424435,4.30600003600175,0.299847883223167));
#359=CARTESIAN_POINT('Ctrl Pts',(-3.81042506276466,4.30617705639874,0.349901767563692));
#360=CARTESIAN_POINT('',(-58.0127066050827,-7.53557654739335,2.89011127147131));
#361=CARTESIAN_POINT('Ctrl Pts',(-58.0127066050827,-7.53557654739335,2.89011127147131));
#362=CARTESIAN_POINT('Ctrl Pts',(-58.4024763640777,-7.04236353448506,2.91053823897193));
#363=CARTESIAN_POINT('Ctrl Pts',(-59.0590062008474,-6.08160711077768,2.94494550975009));
#364=CARTESIAN_POINT('Ctrl Pts',(-59.6747576471112,-4.7174827270266,2.97721567563909));
#365=CARTESIAN_POINT('Ctrl Pts',(-59.7524297961331,-3.05377789721298,2.98128630048147));
#366=CARTESIAN_POINT('Ctrl Pts',(-58.6072236181382,-1.23686643033708,2.92126858787154));
#367=CARTESIAN_POINT('Ctrl Pts',(-56.2692966362793,0.316958522669485,2.79874302662641));
#368=CARTESIAN_POINT('Ctrl Pts',(-52.8792916042806,1.61599119211235,2.62108039114102));
#369=CARTESIAN_POINT('Ctrl Pts',(-48.6308990145731,2.67357608850101,2.39843156999192));
#370=CARTESIAN_POINT('Ctrl Pts',(-43.7437328380732,3.50602179171295,2.14230604369437));
#371=CARTESIAN_POINT('Ctrl Pts',(-38.4356645030344,4.13089185668828,1.86412196997236));
#372=CARTESIAN_POINT('Ctrl Pts',(-32.899183071808,4.56596078297797,1.57396727311999));
#373=CARTESIAN_POINT('Ctrl Pts',(-27.2742334341372,4.82875655276836,1.27917615403072));
#374=CARTESIAN_POINT('Ctrl Pts',(-21.6549464031215,4.93539002360921,0.984681799581191));
#375=CARTESIAN_POINT('Ctrl Pts',(-16.100405091796,4.89959863496299,0.693580624518709));
#376=CARTESIAN_POINT('Ctrl Pts',(-11.4212029454009,4.75606318590379,0.448354031209701));
#377=CARTESIAN_POINT('Ctrl Pts',(-7.89346652961658,4.57900588883434,0.263473199762531));
#378=CARTESIAN_POINT('Ctrl Pts',(-5.46857543918977,4.42424335243485,0.136390042710029));
#379=CARTESIAN_POINT('Ctrl Pts',(-4.11336420155248,4.32723820284449,0.0653664312860373));
#380=CARTESIAN_POINT('Ctrl Pts',(-3.81162566941515,4.30511437202957,0.0495529848925951));
#381=CARTESIAN_POINT('',(-57.9970058182098,-7.53557654739335,3.18970013189768));
#382=CARTESIAN_POINT('',(-58.0048562116463,-7.53557654739335,3.0399057016845));
#383=CARTESIAN_POINT('Ctrl Pts',(-3.81042506276466,4.30617705639874,0.349901767563627));
#384=CARTESIAN_POINT('Ctrl Pts',(-4.10928140841166,4.32806951965731,0.365564164963631));
#385=CARTESIAN_POINT('Ctrl Pts',(-5.46164841086689,4.42480316935459,0.436438716337973));
#386=CARTESIAN_POINT('Ctrl Pts',(-7.88368627910216,4.5793029916005,0.563372342351614));
#387=CARTESIAN_POINT('Ctrl Pts',(-11.4085127347967,4.75615553592483,0.74810066925268));
#388=CARTESIAN_POINT('Ctrl Pts',(-16.0847043049231,4.89959863496299,0.993169484945081));
#389=CARTESIAN_POINT('Ctrl Pts',(-21.6392456162486,4.93539002360921,1.28427066000756));
#390=CARTESIAN_POINT('Ctrl Pts',(-27.2585326472643,4.82875655276836,1.57876501445709));
#391=CARTESIAN_POINT('Ctrl Pts',(-32.8834822849351,4.56596078297797,1.87355613354636));
#392=CARTESIAN_POINT('Ctrl Pts',(-38.4199637161615,4.13089185668828,2.16371083039873));
#393=CARTESIAN_POINT('Ctrl Pts',(-43.7280320512003,3.50602179171295,2.44189490412075));
#394=CARTESIAN_POINT('Ctrl Pts',(-48.6151982277002,2.67357608850101,2.6980204304183));
#395=CARTESIAN_POINT('Ctrl Pts',(-52.8635908174077,1.61599119211235,2.92066925156739));
#396=CARTESIAN_POINT('Ctrl Pts',(-56.2535958494064,0.316958522669485,3.09833188705278));
#397=CARTESIAN_POINT('Ctrl Pts',(-58.5915228312653,-1.23686643033708,3.22085744829791));
#398=CARTESIAN_POINT('Ctrl Pts',(-59.7367290092602,-3.05377789721298,3.28087516090784));
#399=CARTESIAN_POINT('Ctrl Pts',(-59.6590568602383,-4.7174827270266,3.27680453606546));
#400=CARTESIAN_POINT('Ctrl Pts',(-59.0433054139746,-6.08160711077768,3.24453437017646));
#401=CARTESIAN_POINT('Ctrl Pts',(-58.3867755772048,-7.04236353448506,3.2101270993983));
#402=CARTESIAN_POINT('Ctrl Pts',(-57.9970058182098,-7.53557654739335,3.18970013189768));
#403=CARTESIAN_POINT('Origin',(-29.9223116290009,-1.30009326189207,1.41795605159137));
#404=CARTESIAN_POINT('',(-2.52884956042789,-5.16405072600219,-0.0176744622967675));
#405=CARTESIAN_POINT('Origin',(0.,0.,-0.150205851899688));
#406=CARTESIAN_POINT('',(-8.08122986735399,-7.53557654739335,0.27331345932412));
#407=CARTESIAN_POINT('',(-0.0921935893174008,-4.12330923606368,-0.14537419061943));
#408=CARTESIAN_POINT('',(-8.08122986735399,-7.53557654739335,0.27331345932412));
#409=CARTESIAN_POINT('Origin',(-8.07337947391755,-7.53557654739335,0.423107889537306));
#410=CARTESIAN_POINT('',(-2.52152803561337,-5.16762966606701,0.282353536646114));
#411=CARTESIAN_POINT('Origin',(0.,0.,-183.097183764006));
#412=CARTESIAN_POINT('',(-8.06552908048111,-7.53557654739335,0.572902319750492));
#413=CARTESIAN_POINT('',(-0.0764928024445177,-4.12330923606368,0.154214669806942));
#414=CARTESIAN_POINT('',(-8.07337947391755,-7.53557654739335,0.423107889537306));
#415=CARTESIAN_POINT('Origin',(-58.0048562116463,-7.53557654739335,3.0399057016845));
#416=CARTESIAN_POINT('',(-8.06552908048111,-7.53557654739335,0.572902319750492));
#417=CARTESIAN_POINT('Origin',(-29.906610842128,-1.30009326189207,1.71754491201774));
#418=CARTESIAN_POINT('Origin',(0.,0.,0.150205851899688));
#419=CARTESIAN_POINT('Origin',(0.,0.,0.));
#420=CARTESIAN_POINT('Origin',(0.,0.,3.));
#421=CARTESIAN_POINT('Origin',(0.,0.,3.));
#422=CARTESIAN_POINT('',(0.,0.,0.));
#423=UNCERTAINTY_MEASURE_WITH_UNIT(LENGTH_MEASURE(0.01),#429,
'DISTANCE_ACCURACY_VALUE',
'Maximum model space distance between geometric entities at asserted c
onnectivities');
#424=UNCERTAINTY_MEASURE_WITH_UNIT(LENGTH_MEASURE(0.01),#429,
'DISTANCE_ACCURACY_VALUE',
'Maximum model space distance between geometric entities at asserted c
onnectivities');
#425=UNCERTAINTY_MEASURE_WITH_UNIT(LENGTH_MEASURE(0.01),#429,
'DISTANCE_ACCURACY_VALUE',
'Maximum model space distance between geometric entities at asserted c
onnectivities');
#426=(
GEOMETRIC_REPRESENTATION_CONTEXT(3)
GLOBAL_UNCERTAINTY_ASSIGNED_CONTEXT((#423))
GLOBAL_UNIT_ASSIGNED_CONTEXT((#429,#431,#432))
REPRESENTATION_CONTEXT('','3D')
);
#427=(
GEOMETRIC_REPRESENTATION_CONTEXT(3)
GLOBAL_UNCERTAINTY_ASSIGNED_CONTEXT((#424))
GLOBAL_UNIT_ASSIGNED_CONTEXT((#429,#431,#432))
REPRESENTATION_CONTEXT('','3D')
);
#428=(
GEOMETRIC_REPRESENTATION_CONTEXT(3)
GLOBAL_UNCERTAINTY_ASSIGNED_CONTEXT((#425))
GLOBAL_UNIT_ASSIGNED_CONTEXT((#429,#431,#432))
REPRESENTATION_CONTEXT('','3D')
);
#429=(
LENGTH_UNIT()
NAMED_UNIT(*)
SI_UNIT(.MILLI.,.METRE.)
);
#430=(
LENGTH_UNIT()
NAMED_UNIT(*)
SI_UNIT($,.METRE.)
);
#431=(
NAMED_UNIT(*)
PLANE_ANGLE_UNIT()
SI_UNIT($,.RADIAN.)
);
#432=(
NAMED_UNIT(*)
SI_UNIT($,.STERADIAN.)
SOLID_ANGLE_UNIT()
);
#433=SHAPE_DEFINITION_REPRESENTATION(#435,#438);
#434=SHAPE_DEFINITION_REPRESENTATION(#436,#439);
#435=PRODUCT_DEFINITION_SHAPE('',$,#441);
#436=PRODUCT_DEFINITION_SHAPE('',$,#442);
#437=PRODUCT_DEFINITION_SHAPE($,$,#14);
#438=SHAPE_REPRESENTATION('',(#213,#232),#426);
#439=SHAPE_REPRESENTATION('',(#214),#427);
#440=PRODUCT_DEFINITION_CONTEXT('part definition',#448,'design');
#441=PRODUCT_DEFINITION('Fan','Fan v3',#443,#440);
#442=PRODUCT_DEFINITION('Component1','Component1',#444,#440);
#443=PRODUCT_DEFINITION_FORMATION('',$,#450);
#444=PRODUCT_DEFINITION_FORMATION('',$,#451);
#445=PRODUCT_RELATED_PRODUCT_CATEGORY('Fan v3','Fan v3',(#450));
#446=PRODUCT_RELATED_PRODUCT_CATEGORY('Component1','Component1',(#451));
#447=APPLICATION_PROTOCOL_DEFINITION('international standard',
'automotive_design',2009,#448);
#448=APPLICATION_CONTEXT(
'Core Data for Automotive Mechanical Design Process');
#449=PRODUCT_CONTEXT('part definition',#448,'mechanical');
#450=PRODUCT('Fan','Fan v3',$,(#449));
#451=PRODUCT('Component1','Component1',$,(#449));
#452=PRESENTATION_STYLE_ASSIGNMENT((#456));
#453=PRESENTATION_STYLE_ASSIGNMENT((#457));
#454=PRESENTATION_STYLE_ASSIGNMENT((#458));
#455=PRESENTATION_STYLE_ASSIGNMENT((#459));
#456=SURFACE_STYLE_USAGE(.BOTH.,#460);
#457=SURFACE_STYLE_USAGE(.BOTH.,#461);
#458=SURFACE_STYLE_USAGE(.BOTH.,#462);
#459=SURFACE_STYLE_USAGE(.BOTH.,#463);
#460=SURFACE_SIDE_STYLE('',(#464));
#461=SURFACE_SIDE_STYLE('',(#465));
#462=SURFACE_SIDE_STYLE('',(#466));
#463=SURFACE_SIDE_STYLE('',(#467));
#464=SURFACE_STYLE_FILL_AREA(#468);
#465=SURFACE_STYLE_FILL_AREA(#469);
#466=SURFACE_STYLE_FILL_AREA(#470);
#467=SURFACE_STYLE_FILL_AREA(#471);
#468=FILL_AREA_STYLE('Steel - Satin',(#472));
#469=FILL_AREA_STYLE('Aluminum - Anodized Glossy (Red)',(#473));
#470=FILL_AREA_STYLE('Paint - Metallic (Silver)',(#474));
#471=FILL_AREA_STYLE('Paint - Metallic (Red)',(#475));
#472=FILL_AREA_STYLE_COLOUR('Steel - Satin',#476);
#473=FILL_AREA_STYLE_COLOUR('Aluminum - Anodized Glossy (Red)',#477);
#474=FILL_AREA_STYLE_COLOUR('Paint - Metallic (Silver)',#478);
#475=FILL_AREA_STYLE_COLOUR('Paint - Metallic (Red)',#479);
#476=COLOUR_RGB('Steel - Satin',0.627450980392157,0.627450980392157,0.627450980392157);
#477=COLOUR_RGB('Aluminum - Anodized Glossy (Red)',0.854901960784314,0.349019607843137,
0.349019607843137);
#478=COLOUR_RGB('Paint - Metallic (Silver)',0.984313725490196,0.980392156862745,
0.96078431372549);
#479=COLOUR_RGB('Paint - Metallic (Red)',0.768627450980392,0.207843137254902,
0.152941176470588);
ENDSEC;
END-ISO-10303-21;
