ISO-10303-21;
HEADER;
/* Generated by software containing ST-Developer
 * from STEP Tools, Inc. (www.steptools.com) 
 */

FILE_DESCRIPTION(
/* description */ (''),
/* implementation_level */ '2;1');

FILE_NAME(
/* name */ 'Pillar.step',
/* time_stamp */ '2026-07-19T11:32:35+05:30',
/* author */ (''),
/* organization */ (''),
/* preprocessor_version */ 'ST-DEVELOPER v20.1',
/* originating_system */ 'Autodesk Translation Framework v15.8.0.0',
/* authorisation */ '');

FILE_SCHEMA (('AUTOMOTIVE_DESIGN { 1 0 10303 214 3 1 1 }'));
ENDSEC;

DATA;
#10=MECHANICAL_DESIGN_GEOMETRIC_PRESENTATION_REPRESENTATION('',(#16,#17),
#365);
#11=SHAPE_REPRESENTATION_RELATIONSHIP('SRR','None',#372,#12);
#12=ADVANCED_BREP_SHAPE_REPRESENTATION('',(#13),#364);
#13=MANIFOLD_SOLID_BREP('Body1',#214);
#14=FACE_BOUND('',#49,.T.);
#15=FACE_BOUND('',#57,.T.);
#16=STYLED_ITEM('',(#383),#204);
#17=STYLED_ITEM('',(#382),#13);
#18=PLANE('',#233);
#19=PLANE('',#237);
#20=PLANE('',#238);
#21=PLANE('',#239);
#22=PLANE('',#240);
#23=PLANE('',#241);
#24=PLANE('',#242);
#25=PLANE('',#243);
#26=PLANE('',#244);
#27=PLANE('',#245);
#28=CYLINDRICAL_SURFACE('',#231,1.25);
#29=CYLINDRICAL_SURFACE('',#234,1.25);
#30=FACE_OUTER_BOUND('',#43,.T.);
#31=FACE_OUTER_BOUND('',#44,.T.);
#32=FACE_OUTER_BOUND('',#45,.T.);
#33=FACE_OUTER_BOUND('',#46,.T.);
#34=FACE_OUTER_BOUND('',#47,.T.);
#35=FACE_OUTER_BOUND('',#48,.T.);
#36=FACE_OUTER_BOUND('',#50,.T.);
#37=FACE_OUTER_BOUND('',#51,.T.);
#38=FACE_OUTER_BOUND('',#52,.T.);
#39=FACE_OUTER_BOUND('',#53,.T.);
#40=FACE_OUTER_BOUND('',#54,.T.);
#41=FACE_OUTER_BOUND('',#55,.T.);
#42=FACE_OUTER_BOUND('',#56,.T.);
#43=EDGE_LOOP('',(#148,#149,#150,#151));
#44=EDGE_LOOP('',(#152,#153,#154,#155));
#45=EDGE_LOOP('',(#156));
#46=EDGE_LOOP('',(#157,#158,#159,#160));
#47=EDGE_LOOP('',(#161));
#48=EDGE_LOOP('',(#162,#163,#164,#165,#166,#167));
#49=EDGE_LOOP('',(#168));
#50=EDGE_LOOP('',(#169,#170,#171,#172));
#51=EDGE_LOOP('',(#173,#174,#175,#176));
#52=EDGE_LOOP('',(#177,#178,#179,#180));
#53=EDGE_LOOP('',(#181,#182,#183,#184));
#54=EDGE_LOOP('',(#185,#186,#187,#188));
#55=EDGE_LOOP('',(#189,#190,#191,#192));
#56=EDGE_LOOP('',(#193,#194,#195,#196,#197,#198));
#57=EDGE_LOOP('',(#199));
#58=LINE('',#310,#79);
#59=LINE('',#315,#80);
#60=LINE('',#321,#81);
#61=LINE('',#327,#82);
#62=LINE('',#329,#83);
#63=LINE('',#331,#84);
#64=LINE('',#333,#85);
#65=LINE('',#335,#86);
#66=LINE('',#336,#87);
#67=LINE('',#339,#88);
#68=LINE('',#341,#89);
#69=LINE('',#342,#90);
#70=LINE('',#345,#91);
#71=LINE('',#346,#92);
#72=LINE('',#349,#93);
#73=LINE('',#350,#94);
#74=LINE('',#353,#95);
#75=LINE('',#354,#96);
#76=LINE('',#357,#97);
#77=LINE('',#358,#98);
#78=LINE('',#360,#99);
#79=VECTOR('',#252,1.);
#80=VECTOR('',#259,1.25);
#81=VECTOR('',#266,1.25);
#82=VECTOR('',#273,10.);
#83=VECTOR('',#274,10.);
#84=VECTOR('',#275,10.);
#85=VECTOR('',#276,10.);
#86=VECTOR('',#277,10.);
#87=VECTOR('',#278,10.);
#88=VECTOR('',#281,10.);
#89=VECTOR('',#282,10.);
#90=VECTOR('',#283,10.);
#91=VECTOR('',#286,10.);
#92=VECTOR('',#287,10.);
#93=VECTOR('',#290,10.);
#94=VECTOR('',#291,10.);
#95=VECTOR('',#294,10.);
#96=VECTOR('',#295,10.);
#97=VECTOR('',#298,10.);
#98=VECTOR('',#299,10.);
#99=VECTOR('',#302,10.);
#100=CIRCLE('',#229,1.25);
#101=CIRCLE('',#230,0.75);
#102=CIRCLE('',#232,1.25);
#103=CIRCLE('',#235,1.25);
#104=CIRCLE('',#236,1.25);
#105=VERTEX_POINT('',#307);
#106=VERTEX_POINT('',#309);
#107=VERTEX_POINT('',#313);
#108=VERTEX_POINT('',#318);
#109=VERTEX_POINT('',#320);
#110=VERTEX_POINT('',#325);
#111=VERTEX_POINT('',#326);
#112=VERTEX_POINT('',#328);
#113=VERTEX_POINT('',#330);
#114=VERTEX_POINT('',#332);
#115=VERTEX_POINT('',#334);
#116=VERTEX_POINT('',#338);
#117=VERTEX_POINT('',#340);
#118=VERTEX_POINT('',#344);
#119=VERTEX_POINT('',#348);
#120=VERTEX_POINT('',#352);
#121=VERTEX_POINT('',#356);
#122=EDGE_CURVE('',#105,#105,#100,.T.);
#123=EDGE_CURVE('',#105,#106,#58,.T.);
#124=EDGE_CURVE('',#106,#106,#101,.T.);
#125=EDGE_CURVE('',#107,#107,#102,.T.);
#126=EDGE_CURVE('',#107,#105,#59,.T.);
#127=EDGE_CURVE('',#108,#108,#103,.T.);
#128=EDGE_CURVE('',#108,#109,#60,.T.);
#129=EDGE_CURVE('',#109,#109,#104,.T.);
#130=EDGE_CURVE('',#110,#111,#61,.T.);
#131=EDGE_CURVE('',#112,#110,#62,.T.);
#132=EDGE_CURVE('',#113,#112,#63,.T.);
#133=EDGE_CURVE('',#114,#113,#64,.T.);
#134=EDGE_CURVE('',#115,#114,#65,.T.);
#135=EDGE_CURVE('',#111,#115,#66,.T.);
#136=EDGE_CURVE('',#110,#116,#67,.T.);
#137=EDGE_CURVE('',#117,#116,#68,.T.);
#138=EDGE_CURVE('',#112,#117,#69,.T.);
#139=EDGE_CURVE('',#118,#117,#70,.T.);
#140=EDGE_CURVE('',#113,#118,#71,.T.);
#141=EDGE_CURVE('',#119,#118,#72,.T.);
#142=EDGE_CURVE('',#114,#119,#73,.T.);
#143=EDGE_CURVE('',#120,#119,#74,.T.);
#144=EDGE_CURVE('',#115,#120,#75,.T.);
#145=EDGE_CURVE('',#121,#120,#76,.T.);
#146=EDGE_CURVE('',#111,#121,#77,.T.);
#147=EDGE_CURVE('',#116,#121,#78,.T.);
#148=ORIENTED_EDGE('',*,*,#122,.T.);
#149=ORIENTED_EDGE('',*,*,#123,.T.);
#150=ORIENTED_EDGE('',*,*,#124,.T.);
#151=ORIENTED_EDGE('',*,*,#123,.F.);
#152=ORIENTED_EDGE('',*,*,#125,.F.);
#153=ORIENTED_EDGE('',*,*,#126,.T.);
#154=ORIENTED_EDGE('',*,*,#122,.F.);
#155=ORIENTED_EDGE('',*,*,#126,.F.);
#156=ORIENTED_EDGE('',*,*,#124,.F.);
#157=ORIENTED_EDGE('',*,*,#127,.F.);
#158=ORIENTED_EDGE('',*,*,#128,.T.);
#159=ORIENTED_EDGE('',*,*,#129,.T.);
#160=ORIENTED_EDGE('',*,*,#128,.F.);
#161=ORIENTED_EDGE('',*,*,#129,.F.);
#162=ORIENTED_EDGE('',*,*,#130,.F.);
#163=ORIENTED_EDGE('',*,*,#131,.F.);
#164=ORIENTED_EDGE('',*,*,#132,.F.);
#165=ORIENTED_EDGE('',*,*,#133,.F.);
#166=ORIENTED_EDGE('',*,*,#134,.F.);
#167=ORIENTED_EDGE('',*,*,#135,.F.);
#168=ORIENTED_EDGE('',*,*,#125,.T.);
#169=ORIENTED_EDGE('',*,*,#131,.T.);
#170=ORIENTED_EDGE('',*,*,#136,.T.);
#171=ORIENTED_EDGE('',*,*,#137,.F.);
#172=ORIENTED_EDGE('',*,*,#138,.F.);
#173=ORIENTED_EDGE('',*,*,#132,.T.);
#174=ORIENTED_EDGE('',*,*,#138,.T.);
#175=ORIENTED_EDGE('',*,*,#139,.F.);
#176=ORIENTED_EDGE('',*,*,#140,.F.);
#177=ORIENTED_EDGE('',*,*,#133,.T.);
#178=ORIENTED_EDGE('',*,*,#140,.T.);
#179=ORIENTED_EDGE('',*,*,#141,.F.);
#180=ORIENTED_EDGE('',*,*,#142,.F.);
#181=ORIENTED_EDGE('',*,*,#134,.T.);
#182=ORIENTED_EDGE('',*,*,#142,.T.);
#183=ORIENTED_EDGE('',*,*,#143,.F.);
#184=ORIENTED_EDGE('',*,*,#144,.F.);
#185=ORIENTED_EDGE('',*,*,#135,.T.);
#186=ORIENTED_EDGE('',*,*,#144,.T.);
#187=ORIENTED_EDGE('',*,*,#145,.F.);
#188=ORIENTED_EDGE('',*,*,#146,.F.);
#189=ORIENTED_EDGE('',*,*,#130,.T.);
#190=ORIENTED_EDGE('',*,*,#146,.T.);
#191=ORIENTED_EDGE('',*,*,#147,.F.);
#192=ORIENTED_EDGE('',*,*,#136,.F.);
#193=ORIENTED_EDGE('',*,*,#147,.T.);
#194=ORIENTED_EDGE('',*,*,#145,.T.);
#195=ORIENTED_EDGE('',*,*,#143,.T.);
#196=ORIENTED_EDGE('',*,*,#141,.T.);
#197=ORIENTED_EDGE('',*,*,#139,.T.);
#198=ORIENTED_EDGE('',*,*,#137,.T.);
#199=ORIENTED_EDGE('',*,*,#127,.T.);
#200=CONICAL_SURFACE('',#228,1.,0.785398163397448);
#201=ADVANCED_FACE('',(#30),#200,.T.);
#202=ADVANCED_FACE('',(#31),#28,.T.);
#203=ADVANCED_FACE('',(#32),#18,.F.);
#204=ADVANCED_FACE('',(#33),#29,.F.);
#205=ADVANCED_FACE('',(#34),#19,.T.);
#206=ADVANCED_FACE('',(#35,#14),#20,.F.);
#207=ADVANCED_FACE('',(#36),#21,.T.);
#208=ADVANCED_FACE('',(#37),#22,.T.);
#209=ADVANCED_FACE('',(#38),#23,.T.);
#210=ADVANCED_FACE('',(#39),#24,.T.);
#211=ADVANCED_FACE('',(#40),#25,.T.);
#212=ADVANCED_FACE('',(#41),#26,.T.);
#213=ADVANCED_FACE('',(#42,#15),#27,.T.);
#214=CLOSED_SHELL('',(#201,#202,#203,#204,#205,#206,#207,#208,#209,#210,
#211,#212,#213));
#215=DERIVED_UNIT_ELEMENT(#217,1.);
#216=DERIVED_UNIT_ELEMENT(#367,-3.);
#217=(
MASS_UNIT()
NAMED_UNIT(*)
SI_UNIT(.KILO.,.GRAM.)
);
#218=DERIVED_UNIT((#215,#216));
#219=MEASURE_REPRESENTATION_ITEM('density measure',
POSITIVE_RATIO_MEASURE(7850.),#218);
#220=PROPERTY_DEFINITION_REPRESENTATION(#225,#222);
#221=PROPERTY_DEFINITION_REPRESENTATION(#226,#223);
#222=REPRESENTATION('material name',(#224),#364);
#223=REPRESENTATION('density',(#219),#364);
#224=DESCRIPTIVE_REPRESENTATION_ITEM('Steel','Steel');
#225=PROPERTY_DEFINITION('material property','material name',#374);
#226=PROPERTY_DEFINITION('material property','density of part',#374);
#227=AXIS2_PLACEMENT_3D('',#305,#246,#247);
#228=AXIS2_PLACEMENT_3D('',#306,#248,#249);
#229=AXIS2_PLACEMENT_3D('',#308,#250,#251);
#230=AXIS2_PLACEMENT_3D('',#311,#253,#254);
#231=AXIS2_PLACEMENT_3D('',#312,#255,#256);
#232=AXIS2_PLACEMENT_3D('',#314,#257,#258);
#233=AXIS2_PLACEMENT_3D('',#316,#260,#261);
#234=AXIS2_PLACEMENT_3D('',#317,#262,#263);
#235=AXIS2_PLACEMENT_3D('',#319,#264,#265);
#236=AXIS2_PLACEMENT_3D('',#322,#267,#268);
#237=AXIS2_PLACEMENT_3D('',#323,#269,#270);
#238=AXIS2_PLACEMENT_3D('',#324,#271,#272);
#239=AXIS2_PLACEMENT_3D('',#337,#279,#280);
#240=AXIS2_PLACEMENT_3D('',#343,#284,#285);
#241=AXIS2_PLACEMENT_3D('',#347,#288,#289);
#242=AXIS2_PLACEMENT_3D('',#351,#292,#293);
#243=AXIS2_PLACEMENT_3D('',#355,#296,#297);
#244=AXIS2_PLACEMENT_3D('',#359,#300,#301);
#245=AXIS2_PLACEMENT_3D('',#361,#303,#304);
#246=DIRECTION('axis',(0.,0.,1.));
#247=DIRECTION('refdir',(1.,0.,0.));
#248=DIRECTION('center_axis',(0.,0.,1.));
#249=DIRECTION('ref_axis',(1.,0.,0.));
#250=DIRECTION('center_axis',(0.,0.,-1.));
#251=DIRECTION('ref_axis',(1.,0.,0.));
#252=DIRECTION('',(0.707106781186548,8.65956056235493E-17,-0.707106781186548));
#253=DIRECTION('center_axis',(0.,0.,1.));
#254=DIRECTION('ref_axis',(1.,0.,0.));
#255=DIRECTION('center_axis',(0.,0.,1.));
#256=DIRECTION('ref_axis',(1.,0.,0.));
#257=DIRECTION('center_axis',(0.,0.,1.));
#258=DIRECTION('ref_axis',(1.,0.,0.));
#259=DIRECTION('',(0.,0.,-1.));
#260=DIRECTION('center_axis',(0.,0.,1.));
#261=DIRECTION('ref_axis',(1.,0.,0.));
#262=DIRECTION('center_axis',(0.,0.,-1.));
#263=DIRECTION('ref_axis',(-1.,0.,0.));
#264=DIRECTION('center_axis',(0.,0.,-1.));
#265=DIRECTION('ref_axis',(-1.,0.,0.));
#266=DIRECTION('',(0.,0.,-1.));
#267=DIRECTION('center_axis',(0.,0.,-1.));
#268=DIRECTION('ref_axis',(-1.,0.,0.));
#269=DIRECTION('center_axis',(0.,0.,1.));
#270=DIRECTION('ref_axis',(-1.,0.,0.));
#271=DIRECTION('center_axis',(0.,0.,1.));
#272=DIRECTION('ref_axis',(-1.,0.,0.));
#273=DIRECTION('',(0.00529848329398078,0.999985962938872,0.));
#274=DIRECTION('',(0.868662488979898,0.495404360335321,0.));
#275=DIRECTION('',(0.863364005685917,-0.504581602603551,0.));
#276=DIRECTION('',(-0.00529848329398057,-0.999985962938872,0.));
#277=DIRECTION('',(-0.868662488979898,-0.495404360335322,0.));
#278=DIRECTION('',(-0.863364005685918,0.50458160260355,0.));
#279=DIRECTION('center_axis',(0.495404360335321,-0.868662488979898,0.));
#280=DIRECTION('ref_axis',(0.868662488979898,0.495404360335321,0.));
#281=DIRECTION('',(0.,0.,1.));
#282=DIRECTION('',(0.868662488979898,0.495404360335321,0.));
#283=DIRECTION('',(0.,0.,1.));
#284=DIRECTION('center_axis',(-0.504581602603551,-0.863364005685917,0.));
#285=DIRECTION('ref_axis',(0.863364005685917,-0.504581602603551,0.));
#286=DIRECTION('',(0.863364005685917,-0.504581602603551,0.));
#287=DIRECTION('',(0.,0.,1.));
#288=DIRECTION('center_axis',(-0.999985962938872,0.00529848329398057,0.));
#289=DIRECTION('ref_axis',(-0.00529848329398057,-0.999985962938872,0.));
#290=DIRECTION('',(-0.00529848329398057,-0.999985962938872,0.));
#291=DIRECTION('',(0.,0.,1.));
#292=DIRECTION('center_axis',(-0.495404360335322,0.868662488979898,0.));
#293=DIRECTION('ref_axis',(-0.868662488979898,-0.495404360335322,0.));
#294=DIRECTION('',(-0.868662488979898,-0.495404360335322,0.));
#295=DIRECTION('',(0.,0.,1.));
#296=DIRECTION('center_axis',(0.50458160260355,0.863364005685917,0.));
#297=DIRECTION('ref_axis',(-0.863364005685918,0.50458160260355,0.));
#298=DIRECTION('',(-0.863364005685918,0.50458160260355,0.));
#299=DIRECTION('',(0.,0.,1.));
#300=DIRECTION('center_axis',(0.999985962938872,-0.00529848329398078,0.));
#301=DIRECTION('ref_axis',(0.00529848329398078,0.999985962938872,0.));
#302=DIRECTION('',(0.00529848329398078,0.999985962938872,0.));
#303=DIRECTION('center_axis',(0.,0.,1.));
#304=DIRECTION('ref_axis',(1.,0.,0.));
#305=CARTESIAN_POINT('',(0.,0.,0.));
#306=CARTESIAN_POINT('Origin',(0.,0.,0.25));
#307=CARTESIAN_POINT('',(-1.25,1.53080849893419E-16,0.5));
#308=CARTESIAN_POINT('Origin',(0.,0.,0.5));
#309=CARTESIAN_POINT('',(-0.75,-9.18485099360515E-17,0.));
#310=CARTESIAN_POINT('',(-1.,-1.22464679914735E-16,0.25));
#311=CARTESIAN_POINT('Origin',(0.,0.,0.));
#312=CARTESIAN_POINT('Origin',(0.,0.,0.));
#313=CARTESIAN_POINT('',(-1.25,-1.53080849893419E-16,3.9));
#314=CARTESIAN_POINT('Origin',(0.,0.,3.9));
#315=CARTESIAN_POINT('',(-1.25,-1.53080849893419E-16,0.));
#316=CARTESIAN_POINT('Origin',(0.,0.,0.));
#317=CARTESIAN_POINT('Origin',(0.,0.,11.9));
#318=CARTESIAN_POINT('',(1.25,1.53080849893419E-16,11.9));
#319=CARTESIAN_POINT('Origin',(0.,0.,11.9));
#320=CARTESIAN_POINT('',(1.25,1.53080849893419E-16,7.1));
#321=CARTESIAN_POINT('',(1.25,-1.53080849893419E-16,11.9));
#322=CARTESIAN_POINT('Origin',(0.,0.,7.1));
#323=CARTESIAN_POINT('Origin',(0.,0.,7.1));
#324=CARTESIAN_POINT('Origin',(0.,0.,3.9));
#325=CARTESIAN_POINT('',(2.24308548491128,-1.31094145841081,3.9));
#326=CARTESIAN_POINT('',(2.25685134831362,1.2870982835879,3.9));
#327=CARTESIAN_POINT('',(2.24308548491128,-1.31094145841081,3.9));
#328=CARTESIAN_POINT('',(-0.013765863402344,-2.59803974199871,3.9));
#329=CARTESIAN_POINT('',(-0.013765863402344,-2.59803974199871,3.9));
#330=CARTESIAN_POINT('',(-2.25685134831362,-1.2870982835879,3.9));
#331=CARTESIAN_POINT('',(-2.25685134831362,-1.2870982835879,3.9));
#332=CARTESIAN_POINT('',(-2.24308548491128,1.31094145841081,3.9));
#333=CARTESIAN_POINT('',(-2.24308548491128,1.31094145841081,3.9));
#334=CARTESIAN_POINT('',(0.013765863402343,2.59803974199871,3.9));
#335=CARTESIAN_POINT('',(0.013765863402343,2.59803974199871,3.9));
#336=CARTESIAN_POINT('',(2.25685134831362,1.2870982835879,3.9));
#337=CARTESIAN_POINT('Origin',(-0.013765863402344,-2.59803974199871,3.9));
#338=CARTESIAN_POINT('',(2.24308548491128,-1.31094145841081,11.9));
#339=CARTESIAN_POINT('',(2.24308548491128,-1.31094145841081,3.9));
#340=CARTESIAN_POINT('',(-0.0137658634023441,-2.59803974199871,11.9));
#341=CARTESIAN_POINT('',(-0.013765863402344,-2.59803974199871,11.9));
#342=CARTESIAN_POINT('',(-0.013765863402344,-2.59803974199871,3.9));
#343=CARTESIAN_POINT('Origin',(-2.25685134831362,-1.2870982835879,3.9));
#344=CARTESIAN_POINT('',(-2.25685134831362,-1.2870982835879,11.9));
#345=CARTESIAN_POINT('',(-2.25685134831362,-1.2870982835879,11.9));
#346=CARTESIAN_POINT('',(-2.25685134831362,-1.2870982835879,3.9));
#347=CARTESIAN_POINT('Origin',(-2.24308548491128,1.31094145841081,3.9));
#348=CARTESIAN_POINT('',(-2.24308548491128,1.31094145841081,11.9));
#349=CARTESIAN_POINT('',(-2.24308548491128,1.31094145841081,11.9));
#350=CARTESIAN_POINT('',(-2.24308548491128,1.31094145841081,3.9));
#351=CARTESIAN_POINT('Origin',(0.013765863402343,2.59803974199871,3.9));
#352=CARTESIAN_POINT('',(0.013765863402343,2.59803974199871,11.9));
#353=CARTESIAN_POINT('',(0.013765863402343,2.59803974199871,11.9));
#354=CARTESIAN_POINT('',(0.013765863402343,2.59803974199871,3.9));
#355=CARTESIAN_POINT('Origin',(2.25685134831362,1.2870982835879,3.9));
#356=CARTESIAN_POINT('',(2.25685134831362,1.2870982835879,11.9));
#357=CARTESIAN_POINT('',(2.25685134831362,1.2870982835879,11.9));
#358=CARTESIAN_POINT('',(2.25685134831362,1.2870982835879,3.9));
#359=CARTESIAN_POINT('Origin',(2.24308548491128,-1.31094145841081,3.9));
#360=CARTESIAN_POINT('',(2.24308548491128,-1.31094145841081,11.9));
#361=CARTESIAN_POINT('Origin',(0.,0.,11.9));
#362=UNCERTAINTY_MEASURE_WITH_UNIT(LENGTH_MEASURE(0.01),#366,
'DISTANCE_ACCURACY_VALUE',
'Maximum model space distance between geometric entities at asserted c
onnectivities');
#363=UNCERTAINTY_MEASURE_WITH_UNIT(LENGTH_MEASURE(0.01),#366,
'DISTANCE_ACCURACY_VALUE',
'Maximum model space distance between geometric entities at asserted c
onnectivities');
#364=(
GEOMETRIC_REPRESENTATION_CONTEXT(3)
GLOBAL_UNCERTAINTY_ASSIGNED_CONTEXT((#362))
GLOBAL_UNIT_ASSIGNED_CONTEXT((#366,#368,#369))
REPRESENTATION_CONTEXT('','3D')
);
#365=(
GEOMETRIC_REPRESENTATION_CONTEXT(3)
GLOBAL_UNCERTAINTY_ASSIGNED_CONTEXT((#363))
GLOBAL_UNIT_ASSIGNED_CONTEXT((#366,#368,#369))
REPRESENTATION_CONTEXT('','3D')
);
#366=(
LENGTH_UNIT()
NAMED_UNIT(*)
SI_UNIT(.MILLI.,.METRE.)
);
#367=(
LENGTH_UNIT()
NAMED_UNIT(*)
SI_UNIT($,.METRE.)
);
#368=(
NAMED_UNIT(*)
PLANE_ANGLE_UNIT()
SI_UNIT($,.RADIAN.)
);
#369=(
NAMED_UNIT(*)
SI_UNIT($,.STERADIAN.)
SOLID_ANGLE_UNIT()
);
#370=SHAPE_DEFINITION_REPRESENTATION(#371,#372);
#371=PRODUCT_DEFINITION_SHAPE('',$,#374);
#372=SHAPE_REPRESENTATION('',(#227),#364);
#373=PRODUCT_DEFINITION_CONTEXT('part definition',#378,'design');
#374=PRODUCT_DEFINITION('Pillar','Pillar v3',#375,#373);
#375=PRODUCT_DEFINITION_FORMATION('',$,#380);
#376=PRODUCT_RELATED_PRODUCT_CATEGORY('Pillar v3','Pillar v3',(#380));
#377=APPLICATION_PROTOCOL_DEFINITION('international standard',
'automotive_design',2009,#378);
#378=APPLICATION_CONTEXT(
'Core Data for Automotive Mechanical Design Process');
#379=PRODUCT_CONTEXT('part definition',#378,'mechanical');
#380=PRODUCT('Pillar','Pillar v3',$,(#379));
#381=PRESENTATION_STYLE_ASSIGNMENT((#384));
#382=PRESENTATION_STYLE_ASSIGNMENT((#385));
#383=PRESENTATION_STYLE_ASSIGNMENT((#386));
#384=SURFACE_STYLE_USAGE(.BOTH.,#387);
#385=SURFACE_STYLE_USAGE(.BOTH.,#388);
#386=SURFACE_STYLE_USAGE(.BOTH.,#389);
#387=SURFACE_SIDE_STYLE('',(#390));
#388=SURFACE_SIDE_STYLE('',(#391));
#389=SURFACE_SIDE_STYLE('',(#392));
#390=SURFACE_STYLE_FILL_AREA(#393);
#391=SURFACE_STYLE_FILL_AREA(#394);
#392=SURFACE_STYLE_FILL_AREA(#395);
#393=FILL_AREA_STYLE('Steel - Satin',(#396));
#394=FILL_AREA_STYLE('Paint - Metallic (Yellow)',(#397));
#395=FILL_AREA_STYLE('Paint - Metallic (Silver)',(#398));
#396=FILL_AREA_STYLE_COLOUR('Steel - Satin',#399);
#397=FILL_AREA_STYLE_COLOUR('Paint - Metallic (Yellow)',#400);
#398=FILL_AREA_STYLE_COLOUR('Paint - Metallic (Silver)',#401);
#399=COLOUR_RGB('Steel - Satin',0.627450980392157,0.627450980392157,0.627450980392157);
#400=COLOUR_RGB('Paint - Metallic (Yellow)',0.909803921568627,0.67843137254902,
0.137254901960784);
#401=COLOUR_RGB('Paint - Metallic (Silver)',0.984313725490196,0.980392156862745,
0.96078431372549);
ENDSEC;
END-ISO-10303-21;
