ISO-10303-21;
HEADER;
/* Generated by software containing ST-Developer
 * from STEP Tools, Inc. (www.steptools.com) 
 */

FILE_DESCRIPTION(
/* description */ (''),
/* implementation_level */ '2;1');

FILE_NAME(
/* name */ 'Spinner.step',
/* time_stamp */ '2026-07-19T11:33:36+05:30',
/* author */ (''),
/* organization */ (''),
/* preprocessor_version */ 'ST-DEVELOPER v20.1',
/* originating_system */ 'Autodesk Translation Framework v15.8.0.0',
/* authorisation */ '');

FILE_SCHEMA (('AUTOMOTIVE_DESIGN { 1 0 10303 214 3 1 1 }'));
ENDSEC;

DATA;
#10=MECHANICAL_DESIGN_GEOMETRIC_PRESENTATION_REPRESENTATION('',(#14,#15,
#16),#514);
#11=SHAPE_REPRESENTATION_RELATIONSHIP('SRR','None',#521,#12);
#12=ADVANCED_BREP_SHAPE_REPRESENTATION('',(#13),#513);
#13=MANIFOLD_SOLID_BREP('Body1',#286);
#14=STYLED_ITEM('',(#532),#281);
#15=STYLED_ITEM('',(#532),#282);
#16=STYLED_ITEM('',(#531),#13);
#17=FACE_BOUND('',#66,.T.);
#18=FACE_BOUND('',#69,.T.);
#19=FACE_BOUND('',#72,.T.);
#20=FACE_BOUND('',#75,.T.);
#21=FACE_BOUND('',#79,.T.);
#22=FACE_BOUND('',#80,.T.);
#23=FACE_BOUND('',#81,.T.);
#24=FACE_BOUND('',#82,.T.);
#25=FACE_BOUND('',#83,.T.);
#26=FACE_BOUND('',#86,.T.);
#27=FACE_BOUND('',#87,.T.);
#28=FACE_BOUND('',#88,.T.);
#29=FACE_BOUND('',#89,.T.);
#30=FACE_BOUND('',#90,.T.);
#31=PLANE('',#303);
#32=PLANE('',#319);
#33=PLANE('',#323);
#34=PLANE('',#327);
#35=PLANE('',#331);
#36=PLANE('',#332);
#37=PLANE('',#336);
#38=PLANE('',#340);
#39=FACE_OUTER_BOUND('',#58,.T.);
#40=FACE_OUTER_BOUND('',#59,.T.);
#41=FACE_OUTER_BOUND('',#60,.T.);
#42=FACE_OUTER_BOUND('',#61,.T.);
#43=FACE_OUTER_BOUND('',#62,.T.);
#44=FACE_OUTER_BOUND('',#63,.T.);
#45=FACE_OUTER_BOUND('',#64,.T.);
#46=FACE_OUTER_BOUND('',#65,.T.);
#47=FACE_OUTER_BOUND('',#67,.T.);
#48=FACE_OUTER_BOUND('',#68,.T.);
#49=FACE_OUTER_BOUND('',#70,.T.);
#50=FACE_OUTER_BOUND('',#71,.T.);
#51=FACE_OUTER_BOUND('',#73,.T.);
#52=FACE_OUTER_BOUND('',#74,.T.);
#53=FACE_OUTER_BOUND('',#76,.T.);
#54=FACE_OUTER_BOUND('',#77,.T.);
#55=FACE_OUTER_BOUND('',#78,.T.);
#56=FACE_OUTER_BOUND('',#84,.T.);
#57=FACE_OUTER_BOUND('',#85,.T.);
#58=EDGE_LOOP('',(#190,#191,#192,#193));
#59=EDGE_LOOP('',(#194));
#60=EDGE_LOOP('',(#195,#196,#197,#198));
#61=EDGE_LOOP('',(#199,#200,#201,#202));
#62=EDGE_LOOP('',(#203,#204,#205,#206));
#63=EDGE_LOOP('',(#207,#208,#209,#210));
#64=EDGE_LOOP('',(#211,#212,#213,#214));
#65=EDGE_LOOP('',(#215));
#66=EDGE_LOOP('',(#216));
#67=EDGE_LOOP('',(#217,#218,#219,#220));
#68=EDGE_LOOP('',(#221));
#69=EDGE_LOOP('',(#222));
#70=EDGE_LOOP('',(#223,#224,#225,#226));
#71=EDGE_LOOP('',(#227));
#72=EDGE_LOOP('',(#228));
#73=EDGE_LOOP('',(#229,#230,#231,#232));
#74=EDGE_LOOP('',(#233));
#75=EDGE_LOOP('',(#234));
#76=EDGE_LOOP('',(#235));
#77=EDGE_LOOP('',(#236,#237,#238,#239));
#78=EDGE_LOOP('',(#240));
#79=EDGE_LOOP('',(#241));
#80=EDGE_LOOP('',(#242));
#81=EDGE_LOOP('',(#243));
#82=EDGE_LOOP('',(#244));
#83=EDGE_LOOP('',(#245));
#84=EDGE_LOOP('',(#246,#247,#248,#249));
#85=EDGE_LOOP('',(#250));
#86=EDGE_LOOP('',(#251));
#87=EDGE_LOOP('',(#252));
#88=EDGE_LOOP('',(#253));
#89=EDGE_LOOP('',(#254));
#90=EDGE_LOOP('',(#255));
#91=LINE('',#441,#102);
#92=LINE('',#448,#103);
#93=LINE('',#454,#104);
#94=LINE('',#460,#105);
#95=LINE('',#466,#106);
#96=LINE('',#472,#107);
#97=LINE('',#479,#108);
#98=LINE('',#486,#109);
#99=LINE('',#493,#110);
#100=LINE('',#502,#111);
#101=LINE('',#509,#112);
#102=VECTOR('',#347,1.);
#103=VECTOR('',#356,1.375);
#104=VECTOR('',#363,1.375);
#105=VECTOR('',#370,1.375);
#106=VECTOR('',#377,1.375);
#107=VECTOR('',#384,2.225);
#108=VECTOR('',#393,2.225);
#109=VECTOR('',#402,2.225);
#110=VECTOR('',#411,2.225);
#111=VECTOR('',#424,2.00000002980232);
#112=VECTOR('',#433,8.00000005960464);
#113=CIRCLE('',#301,1.);
#114=CIRCLE('',#302,1.);
#115=CIRCLE('',#305,1.375);
#116=CIRCLE('',#306,1.375);
#117=CIRCLE('',#308,1.375);
#118=CIRCLE('',#309,1.375);
#119=CIRCLE('',#311,1.375);
#120=CIRCLE('',#312,1.375);
#121=CIRCLE('',#314,1.375);
#122=CIRCLE('',#315,1.375);
#123=CIRCLE('',#317,2.225);
#124=CIRCLE('',#318,2.225);
#125=CIRCLE('',#321,2.225);
#126=CIRCLE('',#322,2.225);
#127=CIRCLE('',#325,2.225);
#128=CIRCLE('',#326,2.225);
#129=CIRCLE('',#329,2.225);
#130=CIRCLE('',#330,2.225);
#131=CIRCLE('',#333,2.00000002980232);
#132=CIRCLE('',#335,2.00000002980232);
#133=CIRCLE('',#337,8.00000011920929);
#134=CIRCLE('',#339,8.);
#135=VERTEX_POINT('',#438);
#136=VERTEX_POINT('',#440);
#137=VERTEX_POINT('',#445);
#138=VERTEX_POINT('',#447);
#139=VERTEX_POINT('',#451);
#140=VERTEX_POINT('',#453);
#141=VERTEX_POINT('',#457);
#142=VERTEX_POINT('',#459);
#143=VERTEX_POINT('',#463);
#144=VERTEX_POINT('',#465);
#145=VERTEX_POINT('',#469);
#146=VERTEX_POINT('',#471);
#147=VERTEX_POINT('',#476);
#148=VERTEX_POINT('',#478);
#149=VERTEX_POINT('',#483);
#150=VERTEX_POINT('',#485);
#151=VERTEX_POINT('',#490);
#152=VERTEX_POINT('',#492);
#153=VERTEX_POINT('',#497);
#154=VERTEX_POINT('',#500);
#155=VERTEX_POINT('',#504);
#156=VERTEX_POINT('',#507);
#157=EDGE_CURVE('',#135,#135,#113,.T.);
#158=EDGE_CURVE('',#135,#136,#91,.T.);
#159=EDGE_CURVE('',#136,#136,#114,.T.);
#160=EDGE_CURVE('',#137,#137,#115,.T.);
#161=EDGE_CURVE('',#137,#138,#92,.T.);
#162=EDGE_CURVE('',#138,#138,#116,.T.);
#163=EDGE_CURVE('',#139,#139,#117,.T.);
#164=EDGE_CURVE('',#139,#140,#93,.T.);
#165=EDGE_CURVE('',#140,#140,#118,.T.);
#166=EDGE_CURVE('',#141,#141,#119,.T.);
#167=EDGE_CURVE('',#141,#142,#94,.T.);
#168=EDGE_CURVE('',#142,#142,#120,.T.);
#169=EDGE_CURVE('',#143,#143,#121,.T.);
#170=EDGE_CURVE('',#143,#144,#95,.T.);
#171=EDGE_CURVE('',#144,#144,#122,.T.);
#172=EDGE_CURVE('',#145,#145,#123,.T.);
#173=EDGE_CURVE('',#145,#146,#96,.T.);
#174=EDGE_CURVE('',#146,#146,#124,.T.);
#175=EDGE_CURVE('',#147,#147,#125,.T.);
#176=EDGE_CURVE('',#147,#148,#97,.T.);
#177=EDGE_CURVE('',#148,#148,#126,.T.);
#178=EDGE_CURVE('',#149,#149,#127,.T.);
#179=EDGE_CURVE('',#149,#150,#98,.T.);
#180=EDGE_CURVE('',#150,#150,#128,.T.);
#181=EDGE_CURVE('',#151,#151,#129,.T.);
#182=EDGE_CURVE('',#151,#152,#99,.T.);
#183=EDGE_CURVE('',#152,#152,#130,.T.);
#184=EDGE_CURVE('',#153,#153,#131,.T.);
#185=EDGE_CURVE('',#154,#154,#132,.T.);
#186=EDGE_CURVE('',#154,#153,#100,.T.);
#187=EDGE_CURVE('',#155,#155,#133,.T.);
#188=EDGE_CURVE('',#156,#156,#134,.T.);
#189=EDGE_CURVE('',#156,#155,#101,.T.);
#190=ORIENTED_EDGE('',*,*,#157,.F.);
#191=ORIENTED_EDGE('',*,*,#158,.T.);
#192=ORIENTED_EDGE('',*,*,#159,.T.);
#193=ORIENTED_EDGE('',*,*,#158,.F.);
#194=ORIENTED_EDGE('',*,*,#159,.F.);
#195=ORIENTED_EDGE('',*,*,#160,.F.);
#196=ORIENTED_EDGE('',*,*,#161,.T.);
#197=ORIENTED_EDGE('',*,*,#162,.F.);
#198=ORIENTED_EDGE('',*,*,#161,.F.);
#199=ORIENTED_EDGE('',*,*,#163,.F.);
#200=ORIENTED_EDGE('',*,*,#164,.T.);
#201=ORIENTED_EDGE('',*,*,#165,.F.);
#202=ORIENTED_EDGE('',*,*,#164,.F.);
#203=ORIENTED_EDGE('',*,*,#166,.F.);
#204=ORIENTED_EDGE('',*,*,#167,.T.);
#205=ORIENTED_EDGE('',*,*,#168,.F.);
#206=ORIENTED_EDGE('',*,*,#167,.F.);
#207=ORIENTED_EDGE('',*,*,#169,.F.);
#208=ORIENTED_EDGE('',*,*,#170,.T.);
#209=ORIENTED_EDGE('',*,*,#171,.F.);
#210=ORIENTED_EDGE('',*,*,#170,.F.);
#211=ORIENTED_EDGE('',*,*,#172,.F.);
#212=ORIENTED_EDGE('',*,*,#173,.T.);
#213=ORIENTED_EDGE('',*,*,#174,.T.);
#214=ORIENTED_EDGE('',*,*,#173,.F.);
#215=ORIENTED_EDGE('',*,*,#174,.F.);
#216=ORIENTED_EDGE('',*,*,#163,.T.);
#217=ORIENTED_EDGE('',*,*,#175,.F.);
#218=ORIENTED_EDGE('',*,*,#176,.T.);
#219=ORIENTED_EDGE('',*,*,#177,.T.);
#220=ORIENTED_EDGE('',*,*,#176,.F.);
#221=ORIENTED_EDGE('',*,*,#177,.F.);
#222=ORIENTED_EDGE('',*,*,#169,.T.);
#223=ORIENTED_EDGE('',*,*,#178,.F.);
#224=ORIENTED_EDGE('',*,*,#179,.T.);
#225=ORIENTED_EDGE('',*,*,#180,.T.);
#226=ORIENTED_EDGE('',*,*,#179,.F.);
#227=ORIENTED_EDGE('',*,*,#180,.F.);
#228=ORIENTED_EDGE('',*,*,#166,.T.);
#229=ORIENTED_EDGE('',*,*,#181,.F.);
#230=ORIENTED_EDGE('',*,*,#182,.T.);
#231=ORIENTED_EDGE('',*,*,#183,.T.);
#232=ORIENTED_EDGE('',*,*,#182,.F.);
#233=ORIENTED_EDGE('',*,*,#183,.F.);
#234=ORIENTED_EDGE('',*,*,#160,.T.);
#235=ORIENTED_EDGE('',*,*,#184,.F.);
#236=ORIENTED_EDGE('',*,*,#185,.F.);
#237=ORIENTED_EDGE('',*,*,#186,.T.);
#238=ORIENTED_EDGE('',*,*,#184,.T.);
#239=ORIENTED_EDGE('',*,*,#186,.F.);
#240=ORIENTED_EDGE('',*,*,#187,.F.);
#241=ORIENTED_EDGE('',*,*,#172,.T.);
#242=ORIENTED_EDGE('',*,*,#175,.T.);
#243=ORIENTED_EDGE('',*,*,#178,.T.);
#244=ORIENTED_EDGE('',*,*,#181,.T.);
#245=ORIENTED_EDGE('',*,*,#185,.T.);
#246=ORIENTED_EDGE('',*,*,#188,.F.);
#247=ORIENTED_EDGE('',*,*,#189,.T.);
#248=ORIENTED_EDGE('',*,*,#187,.T.);
#249=ORIENTED_EDGE('',*,*,#189,.F.);
#250=ORIENTED_EDGE('',*,*,#188,.T.);
#251=ORIENTED_EDGE('',*,*,#157,.T.);
#252=ORIENTED_EDGE('',*,*,#162,.T.);
#253=ORIENTED_EDGE('',*,*,#165,.T.);
#254=ORIENTED_EDGE('',*,*,#168,.T.);
#255=ORIENTED_EDGE('',*,*,#171,.T.);
#256=CYLINDRICAL_SURFACE('',#300,1.);
#257=CYLINDRICAL_SURFACE('',#304,1.375);
#258=CYLINDRICAL_SURFACE('',#307,1.375);
#259=CYLINDRICAL_SURFACE('',#310,1.375);
#260=CYLINDRICAL_SURFACE('',#313,1.375);
#261=CYLINDRICAL_SURFACE('',#316,2.225);
#262=CYLINDRICAL_SURFACE('',#320,2.225);
#263=CYLINDRICAL_SURFACE('',#324,2.225);
#264=CYLINDRICAL_SURFACE('',#328,2.225);
#265=CYLINDRICAL_SURFACE('',#334,2.00000002980232);
#266=CYLINDRICAL_SURFACE('',#338,8.00000005960464);
#267=ADVANCED_FACE('',(#39),#256,.F.);
#268=ADVANCED_FACE('',(#40),#31,.T.);
#269=ADVANCED_FACE('',(#41),#257,.F.);
#270=ADVANCED_FACE('',(#42),#258,.F.);
#271=ADVANCED_FACE('',(#43),#259,.F.);
#272=ADVANCED_FACE('',(#44),#260,.F.);
#273=ADVANCED_FACE('',(#45),#261,.F.);
#274=ADVANCED_FACE('',(#46,#17),#32,.T.);
#275=ADVANCED_FACE('',(#47),#262,.F.);
#276=ADVANCED_FACE('',(#48,#18),#33,.T.);
#277=ADVANCED_FACE('',(#49),#263,.F.);
#278=ADVANCED_FACE('',(#50,#19),#34,.T.);
#279=ADVANCED_FACE('',(#51),#264,.F.);
#280=ADVANCED_FACE('',(#52,#20),#35,.T.);
#281=ADVANCED_FACE('',(#53),#36,.T.);
#282=ADVANCED_FACE('',(#54),#265,.T.);
#283=ADVANCED_FACE('',(#55,#21,#22,#23,#24,#25),#37,.T.);
#284=ADVANCED_FACE('',(#56),#266,.T.);
#285=ADVANCED_FACE('',(#57,#26,#27,#28,#29,#30),#38,.T.);
#286=CLOSED_SHELL('',(#267,#268,#269,#270,#271,#272,#273,#274,#275,#276,
#277,#278,#279,#280,#281,#282,#283,#284,#285));
#287=DERIVED_UNIT_ELEMENT(#289,1.);
#288=DERIVED_UNIT_ELEMENT(#516,-3.);
#289=(
MASS_UNIT()
NAMED_UNIT(*)
SI_UNIT(.KILO.,.GRAM.)
);
#290=DERIVED_UNIT((#287,#288));
#291=MEASURE_REPRESENTATION_ITEM('density measure',
POSITIVE_RATIO_MEASURE(7850.),#290);
#292=PROPERTY_DEFINITION_REPRESENTATION(#297,#294);
#293=PROPERTY_DEFINITION_REPRESENTATION(#298,#295);
#294=REPRESENTATION('material name',(#296),#513);
#295=REPRESENTATION('density',(#291),#513);
#296=DESCRIPTIVE_REPRESENTATION_ITEM('Steel','Steel');
#297=PROPERTY_DEFINITION('material property','material name',#523);
#298=PROPERTY_DEFINITION('material property','density of part',#523);
#299=AXIS2_PLACEMENT_3D('',#436,#341,#342);
#300=AXIS2_PLACEMENT_3D('',#437,#343,#344);
#301=AXIS2_PLACEMENT_3D('',#439,#345,#346);
#302=AXIS2_PLACEMENT_3D('',#442,#348,#349);
#303=AXIS2_PLACEMENT_3D('',#443,#350,#351);
#304=AXIS2_PLACEMENT_3D('',#444,#352,#353);
#305=AXIS2_PLACEMENT_3D('',#446,#354,#355);
#306=AXIS2_PLACEMENT_3D('',#449,#357,#358);
#307=AXIS2_PLACEMENT_3D('',#450,#359,#360);
#308=AXIS2_PLACEMENT_3D('',#452,#361,#362);
#309=AXIS2_PLACEMENT_3D('',#455,#364,#365);
#310=AXIS2_PLACEMENT_3D('',#456,#366,#367);
#311=AXIS2_PLACEMENT_3D('',#458,#368,#369);
#312=AXIS2_PLACEMENT_3D('',#461,#371,#372);
#313=AXIS2_PLACEMENT_3D('',#462,#373,#374);
#314=AXIS2_PLACEMENT_3D('',#464,#375,#376);
#315=AXIS2_PLACEMENT_3D('',#467,#378,#379);
#316=AXIS2_PLACEMENT_3D('',#468,#380,#381);
#317=AXIS2_PLACEMENT_3D('',#470,#382,#383);
#318=AXIS2_PLACEMENT_3D('',#473,#385,#386);
#319=AXIS2_PLACEMENT_3D('',#474,#387,#388);
#320=AXIS2_PLACEMENT_3D('',#475,#389,#390);
#321=AXIS2_PLACEMENT_3D('',#477,#391,#392);
#322=AXIS2_PLACEMENT_3D('',#480,#394,#395);
#323=AXIS2_PLACEMENT_3D('',#481,#396,#397);
#324=AXIS2_PLACEMENT_3D('',#482,#398,#399);
#325=AXIS2_PLACEMENT_3D('',#484,#400,#401);
#326=AXIS2_PLACEMENT_3D('',#487,#403,#404);
#327=AXIS2_PLACEMENT_3D('',#488,#405,#406);
#328=AXIS2_PLACEMENT_3D('',#489,#407,#408);
#329=AXIS2_PLACEMENT_3D('',#491,#409,#410);
#330=AXIS2_PLACEMENT_3D('',#494,#412,#413);
#331=AXIS2_PLACEMENT_3D('',#495,#414,#415);
#332=AXIS2_PLACEMENT_3D('',#496,#416,#417);
#333=AXIS2_PLACEMENT_3D('',#498,#418,#419);
#334=AXIS2_PLACEMENT_3D('',#499,#420,#421);
#335=AXIS2_PLACEMENT_3D('',#501,#422,#423);
#336=AXIS2_PLACEMENT_3D('',#503,#425,#426);
#337=AXIS2_PLACEMENT_3D('',#505,#427,#428);
#338=AXIS2_PLACEMENT_3D('',#506,#429,#430);
#339=AXIS2_PLACEMENT_3D('',#508,#431,#432);
#340=AXIS2_PLACEMENT_3D('',#510,#434,#435);
#341=DIRECTION('axis',(0.,0.,1.));
#342=DIRECTION('refdir',(1.,0.,0.));
#343=DIRECTION('center_axis',(0.,0.,1.));
#344=DIRECTION('ref_axis',(1.,0.,0.));
#345=DIRECTION('center_axis',(0.,0.,1.));
#346=DIRECTION('ref_axis',(1.,0.,0.));
#347=DIRECTION('',(0.,0.,1.));
#348=DIRECTION('center_axis',(0.,0.,1.));
#349=DIRECTION('ref_axis',(1.,0.,0.));
#350=DIRECTION('center_axis',(0.,0.,-1.));
#351=DIRECTION('ref_axis',(1.,0.,0.));
#352=DIRECTION('center_axis',(0.,0.,-1.));
#353=DIRECTION('ref_axis',(-1.,0.,0.));
#354=DIRECTION('center_axis',(0.,0.,-1.));
#355=DIRECTION('ref_axis',(-1.,0.,0.));
#356=DIRECTION('',(0.,0.,-1.));
#357=DIRECTION('center_axis',(0.,0.,1.));
#358=DIRECTION('ref_axis',(-1.,0.,0.));
#359=DIRECTION('center_axis',(0.,0.,-1.));
#360=DIRECTION('ref_axis',(-1.,0.,0.));
#361=DIRECTION('center_axis',(0.,0.,-1.));
#362=DIRECTION('ref_axis',(-1.,0.,0.));
#363=DIRECTION('',(0.,0.,-1.));
#364=DIRECTION('center_axis',(0.,0.,1.));
#365=DIRECTION('ref_axis',(-1.,0.,0.));
#366=DIRECTION('center_axis',(0.,0.,-1.));
#367=DIRECTION('ref_axis',(-1.,0.,0.));
#368=DIRECTION('center_axis',(0.,0.,-1.));
#369=DIRECTION('ref_axis',(-1.,0.,0.));
#370=DIRECTION('',(0.,0.,-1.));
#371=DIRECTION('center_axis',(0.,0.,1.));
#372=DIRECTION('ref_axis',(-1.,0.,0.));
#373=DIRECTION('center_axis',(0.,0.,-1.));
#374=DIRECTION('ref_axis',(-1.,0.,0.));
#375=DIRECTION('center_axis',(0.,0.,-1.));
#376=DIRECTION('ref_axis',(-1.,0.,0.));
#377=DIRECTION('',(0.,0.,-1.));
#378=DIRECTION('center_axis',(0.,0.,1.));
#379=DIRECTION('ref_axis',(-1.,0.,0.));
#380=DIRECTION('center_axis',(0.,0.,-1.));
#381=DIRECTION('ref_axis',(-1.,0.,0.));
#382=DIRECTION('center_axis',(0.,0.,-1.));
#383=DIRECTION('ref_axis',(-1.,0.,0.));
#384=DIRECTION('',(0.,0.,-1.));
#385=DIRECTION('center_axis',(0.,0.,-1.));
#386=DIRECTION('ref_axis',(-1.,0.,0.));
#387=DIRECTION('center_axis',(0.,0.,1.));
#388=DIRECTION('ref_axis',(-1.,0.,0.));
#389=DIRECTION('center_axis',(0.,0.,-1.));
#390=DIRECTION('ref_axis',(-1.,0.,0.));
#391=DIRECTION('center_axis',(0.,0.,-1.));
#392=DIRECTION('ref_axis',(-1.,0.,0.));
#393=DIRECTION('',(0.,0.,-1.));
#394=DIRECTION('center_axis',(0.,0.,-1.));
#395=DIRECTION('ref_axis',(-1.,0.,0.));
#396=DIRECTION('center_axis',(0.,0.,1.));
#397=DIRECTION('ref_axis',(-1.,0.,0.));
#398=DIRECTION('center_axis',(0.,0.,-1.));
#399=DIRECTION('ref_axis',(-1.,0.,0.));
#400=DIRECTION('center_axis',(0.,0.,-1.));
#401=DIRECTION('ref_axis',(-1.,0.,0.));
#402=DIRECTION('',(0.,0.,-1.));
#403=DIRECTION('center_axis',(0.,0.,-1.));
#404=DIRECTION('ref_axis',(-1.,0.,0.));
#405=DIRECTION('center_axis',(0.,0.,1.));
#406=DIRECTION('ref_axis',(-1.,0.,0.));
#407=DIRECTION('center_axis',(0.,0.,-1.));
#408=DIRECTION('ref_axis',(-1.,0.,0.));
#409=DIRECTION('center_axis',(0.,0.,-1.));
#410=DIRECTION('ref_axis',(-1.,0.,0.));
#411=DIRECTION('',(0.,0.,-1.));
#412=DIRECTION('center_axis',(0.,0.,-1.));
#413=DIRECTION('ref_axis',(-1.,0.,0.));
#414=DIRECTION('center_axis',(0.,0.,1.));
#415=DIRECTION('ref_axis',(-1.,0.,0.));
#416=DIRECTION('center_axis',(0.,0.,1.));
#417=DIRECTION('ref_axis',(1.,0.,0.));
#418=DIRECTION('center_axis',(0.,0.,-1.));
#419=DIRECTION('ref_axis',(1.,0.,0.));
#420=DIRECTION('center_axis',(0.,0.,-1.));
#421=DIRECTION('ref_axis',(0.,1.,0.));
#422=DIRECTION('center_axis',(0.,0.,-1.));
#423=DIRECTION('ref_axis',(1.,0.,0.));
#424=DIRECTION('',(0.,0.,1.));
#425=DIRECTION('center_axis',(0.,0.,1.));
#426=DIRECTION('ref_axis',(1.,0.,0.));
#427=DIRECTION('center_axis',(0.,0.,-1.));
#428=DIRECTION('ref_axis',(1.,0.,0.));
#429=DIRECTION('center_axis',(0.,0.,-1.));
#430=DIRECTION('ref_axis',(0.,1.,0.));
#431=DIRECTION('center_axis',(0.,0.,-1.));
#432=DIRECTION('ref_axis',(1.,0.,0.));
#433=DIRECTION('',(0.,0.,1.));
#434=DIRECTION('center_axis',(0.,0.,-1.));
#435=DIRECTION('ref_axis',(-1.,0.,0.));
#436=CARTESIAN_POINT('',(0.,0.,0.));
#437=CARTESIAN_POINT('Origin',(0.,0.,0.));
#438=CARTESIAN_POINT('',(-1.,1.22464679914735E-16,0.));
#439=CARTESIAN_POINT('Origin',(0.,0.,0.));
#440=CARTESIAN_POINT('',(-1.,1.22464679914735E-16,3.5));
#441=CARTESIAN_POINT('',(-1.,-1.22464679914735E-16,0.));
#442=CARTESIAN_POINT('Origin',(0.,0.,3.5));
#443=CARTESIAN_POINT('Origin',(0.,0.,3.5));
#444=CARTESIAN_POINT('Origin',(0.,4.5,1.5));
#445=CARTESIAN_POINT('',(1.375,4.5,1.5));
#446=CARTESIAN_POINT('Origin',(0.,4.5,1.5));
#447=CARTESIAN_POINT('',(1.375,4.5,0.));
#448=CARTESIAN_POINT('',(1.375,4.5,1.5));
#449=CARTESIAN_POINT('Origin',(0.,4.5,0.));
#450=CARTESIAN_POINT('Origin',(4.49986605421304,-0.0347202266869195,1.5));
#451=CARTESIAN_POINT('',(5.87486605421304,-0.0347202266869193,1.5));
#452=CARTESIAN_POINT('Origin',(4.49986605421304,-0.0347202266869195,1.5));
#453=CARTESIAN_POINT('',(5.87486605421304,-0.0347202266869193,0.));
#454=CARTESIAN_POINT('',(5.87486605421304,-0.0347202266869196,1.5));
#455=CARTESIAN_POINT('Origin',(4.49986605421304,-0.0347202266869195,0.));
#456=CARTESIAN_POINT('Origin',(0.,-4.5,1.5));
#457=CARTESIAN_POINT('',(1.375,-4.5,1.5));
#458=CARTESIAN_POINT('Origin',(0.,-4.5,1.5));
#459=CARTESIAN_POINT('',(1.375,-4.5,0.));
#460=CARTESIAN_POINT('',(1.375,-4.5,1.5));
#461=CARTESIAN_POINT('Origin',(0.,-4.5,0.));
#462=CARTESIAN_POINT('Origin',(-4.49986605421304,-0.0347202266869195,3.5));
#463=CARTESIAN_POINT('',(-3.12486605421304,-0.0347202266869196,1.5));
#464=CARTESIAN_POINT('Origin',(-4.49986605421304,-0.0347202266869195,1.5));
#465=CARTESIAN_POINT('',(-3.12486605421304,-0.0347202266869193,0.));
#466=CARTESIAN_POINT('',(-3.12486605421304,-0.0347202266869196,3.5));
#467=CARTESIAN_POINT('Origin',(-4.49986605421304,-0.0347202266869195,0.));
#468=CARTESIAN_POINT('Origin',(4.49986605421304,-0.0347202266869195,3.5));
#469=CARTESIAN_POINT('',(6.72486605421304,-0.0347202266869192,3.5));
#470=CARTESIAN_POINT('Origin',(4.49986605421304,-0.0347202266869195,3.5));
#471=CARTESIAN_POINT('',(6.72486605421304,-0.0347202266869192,1.5));
#472=CARTESIAN_POINT('',(6.72486605421304,-0.0347202266869197,3.5));
#473=CARTESIAN_POINT('Origin',(4.49986605421304,-0.0347202266869195,1.5));
#474=CARTESIAN_POINT('Origin',(4.49986605421304,-0.0347202266869195,1.5));
#475=CARTESIAN_POINT('Origin',(-4.49986605421304,-0.0347202266869195,3.5));
#476=CARTESIAN_POINT('',(-2.27486605421304,-0.0347202266869192,3.5));
#477=CARTESIAN_POINT('Origin',(-4.49986605421304,-0.0347202266869195,3.5));
#478=CARTESIAN_POINT('',(-2.27486605421304,-0.0347202266869192,1.5));
#479=CARTESIAN_POINT('',(-2.27486605421304,-0.0347202266869197,3.5));
#480=CARTESIAN_POINT('Origin',(-4.49986605421304,-0.0347202266869195,1.5));
#481=CARTESIAN_POINT('Origin',(-4.49986605421304,-0.0347202266869195,1.5));
#482=CARTESIAN_POINT('Origin',(0.,-4.5,3.5));
#483=CARTESIAN_POINT('',(2.225,-4.5,3.5));
#484=CARTESIAN_POINT('Origin',(0.,-4.5,3.5));
#485=CARTESIAN_POINT('',(2.225,-4.5,1.5));
#486=CARTESIAN_POINT('',(2.225,-4.5,3.5));
#487=CARTESIAN_POINT('Origin',(0.,-4.5,1.5));
#488=CARTESIAN_POINT('Origin',(0.,-4.5,1.5));
#489=CARTESIAN_POINT('Origin',(0.,4.5,3.5));
#490=CARTESIAN_POINT('',(2.225,4.5,3.5));
#491=CARTESIAN_POINT('Origin',(0.,4.5,3.5));
#492=CARTESIAN_POINT('',(2.225,4.5,1.5));
#493=CARTESIAN_POINT('',(2.225,4.5,3.5));
#494=CARTESIAN_POINT('Origin',(0.,4.5,1.5));
#495=CARTESIAN_POINT('Origin',(0.,4.5,1.5));
#496=CARTESIAN_POINT('Origin',(0.,2.00000002980232,14.5));
#497=CARTESIAN_POINT('',(-2.44929363479203E-16,-2.00000002980232,14.5));
#498=CARTESIAN_POINT('Origin',(0.,0.,14.5));
#499=CARTESIAN_POINT('Origin',(0.,0.,9.));
#500=CARTESIAN_POINT('',(-2.44929363479203E-16,-2.00000002980232,3.5));
#501=CARTESIAN_POINT('Origin',(0.,0.,3.5));
#502=CARTESIAN_POINT('',(-2.44929363479203E-16,-2.00000002980232,9.));
#503=CARTESIAN_POINT('Origin',(0.,8.00000011920929,3.5));
#504=CARTESIAN_POINT('',(-9.79717446617346E-16,-8.00000005960464,3.5));
#505=CARTESIAN_POINT('Origin',(0.,0.,3.5));
#506=CARTESIAN_POINT('Origin',(0.,0.,1.75));
#507=CARTESIAN_POINT('',(-9.79717446617346E-16,-8.00000005960464,0.));
#508=CARTESIAN_POINT('Origin',(0.,0.,0.));
#509=CARTESIAN_POINT('',(-9.79717446617346E-16,-8.00000005960464,1.75));
#510=CARTESIAN_POINT('Origin',(0.,0.,0.));
#511=UNCERTAINTY_MEASURE_WITH_UNIT(LENGTH_MEASURE(0.01),#515,
'DISTANCE_ACCURACY_VALUE',
'Maximum model space distance between geometric entities at asserted c
onnectivities');
#512=UNCERTAINTY_MEASURE_WITH_UNIT(LENGTH_MEASURE(0.01),#515,
'DISTANCE_ACCURACY_VALUE',
'Maximum model space distance between geometric entities at asserted c
onnectivities');
#513=(
GEOMETRIC_REPRESENTATION_CONTEXT(3)
GLOBAL_UNCERTAINTY_ASSIGNED_CONTEXT((#511))
GLOBAL_UNIT_ASSIGNED_CONTEXT((#515,#517,#518))
REPRESENTATION_CONTEXT('','3D')
);
#514=(
GEOMETRIC_REPRESENTATION_CONTEXT(3)
GLOBAL_UNCERTAINTY_ASSIGNED_CONTEXT((#512))
GLOBAL_UNIT_ASSIGNED_CONTEXT((#515,#517,#518))
REPRESENTATION_CONTEXT('','3D')
);
#515=(
LENGTH_UNIT()
NAMED_UNIT(*)
SI_UNIT(.MILLI.,.METRE.)
);
#516=(
LENGTH_UNIT()
NAMED_UNIT(*)
SI_UNIT($,.METRE.)
);
#517=(
NAMED_UNIT(*)
PLANE_ANGLE_UNIT()
SI_UNIT($,.RADIAN.)
);
#518=(
NAMED_UNIT(*)
SI_UNIT($,.STERADIAN.)
SOLID_ANGLE_UNIT()
);
#519=SHAPE_DEFINITION_REPRESENTATION(#520,#521);
#520=PRODUCT_DEFINITION_SHAPE('',$,#523);
#521=SHAPE_REPRESENTATION('',(#299),#513);
#522=PRODUCT_DEFINITION_CONTEXT('part definition',#527,'design');
#523=PRODUCT_DEFINITION('Spinner','Spinner v6',#524,#522);
#524=PRODUCT_DEFINITION_FORMATION('',$,#529);
#525=PRODUCT_RELATED_PRODUCT_CATEGORY('Spinner v6','Spinner v6',(#529));
#526=APPLICATION_PROTOCOL_DEFINITION('international standard',
'automotive_design',2009,#527);
#527=APPLICATION_CONTEXT(
'Core Data for Automotive Mechanical Design Process');
#528=PRODUCT_CONTEXT('part definition',#527,'mechanical');
#529=PRODUCT('Spinner','Spinner v6',$,(#528));
#530=PRESENTATION_STYLE_ASSIGNMENT((#533));
#531=PRESENTATION_STYLE_ASSIGNMENT((#534));
#532=PRESENTATION_STYLE_ASSIGNMENT((#535));
#533=SURFACE_STYLE_USAGE(.BOTH.,#536);
#534=SURFACE_STYLE_USAGE(.BOTH.,#537);
#535=SURFACE_STYLE_USAGE(.BOTH.,#538);
#536=SURFACE_SIDE_STYLE('',(#539));
#537=SURFACE_SIDE_STYLE('',(#540));
#538=SURFACE_SIDE_STYLE('',(#541));
#539=SURFACE_STYLE_FILL_AREA(#542);
#540=SURFACE_STYLE_FILL_AREA(#543);
#541=SURFACE_STYLE_FILL_AREA(#544);
#542=FILL_AREA_STYLE('Steel - Satin',(#545));
#543=FILL_AREA_STYLE('Paint - Metallic (Black)',(#546));
#544=FILL_AREA_STYLE('Paint - Metallic (Silver)',(#547));
#545=FILL_AREA_STYLE_COLOUR('Steel - Satin',#548);
#546=FILL_AREA_STYLE_COLOUR('Paint - Metallic (Black)',#549);
#547=FILL_AREA_STYLE_COLOUR('Paint - Metallic (Silver)',#550);
#548=COLOUR_RGB('Steel - Satin',0.627450980392157,0.627450980392157,0.627450980392157);
#549=COLOUR_RGB('Paint - Metallic (Black)',0.0980392156862745,0.0980392156862745,
0.0980392156862745);
#550=COLOUR_RGB('Paint - Metallic (Silver)',0.984313725490196,0.980392156862745,
0.96078431372549);
ENDSEC;
END-ISO-10303-21;
